<?xml version="1.0" encoding="UTF-8"?>
<svg width="32px" height="32px" viewBox="0 0 32 32" version="1.1" xmlns="http://www.w3.org/2000/svg" xmlns:xlink="http://www.w3.org/1999/xlink">
    <!-- Generator: Sketch 52.5 (67469) - http://www.bohemiancoding.com/sketch -->
    <title>样本营销-选中</title>
    <desc>Created with Sketch.</desc>
    <g id="样本营销-选中" stroke="none" stroke-width="1" fill="none" fill-rule="evenodd">
        <path d="M6,2 L26,2 C27.1045695,2 28,2.8954305 28,4 L28,28 C28,29.1045695 27.1045695,30 26,30 L6,30 C4.8954305,30 4,29.1045695 4,28 L4,4 C4,2.8954305 4.8954305,2 6,2 Z M8,6 L8,8 L24,8 L24,6 L8,6 Z M8,11 L8,13 L24,13 L24,11 L8,11 Z M8,16 L8,18 L24,18 L24,16 L8,16 Z M8,21 L8,23 L14,23 L14,21 L8,21 Z M21,27 C22.6568542,27 24,25.6568542 24,24 C24,22.3431458 22.6568542,21 21,21 C19.3431458,21 18,22.3431458 18,24 C18,25.6568542 19.3431458,27 21,27 Z" id="Combined-Shape" fill="#FF4F25"></path>
    </g>
</svg>