<?xml version="1.0" encoding="UTF-8"?>
<svg width="32px" height="32px" viewBox="0 0 32 32" version="1.1" xmlns="http://www.w3.org/2000/svg" xmlns:xlink="http://www.w3.org/1999/xlink">
    <!-- Generator: Sketch 52.5 (67469) - http://www.bohemiancoding.com/sketch -->
    <title>微信小程序-选中</title>
    <desc>Created with Sketch.</desc>
    <g id="微信小程序-选中" stroke="none" stroke-width="1" fill="none" fill-rule="evenodd">
        <path d="M16,30 C8.2680135,30 2,23.7319865 2,16 C2,8.2680135 8.2680135,2 16,2 C23.7319865,2 30,8.2680135 30,16 C30,23.7319865 23.7319865,30 16,30 Z M19.108286,8.9984109 C18.399546,8.9984109 17.7098751,9.17639047 17.1060159,9.54506243 C15.9586833,10.1934166 15.2658343,11.3407491 15.2658343,12.5897843 L15.2658343,18.7364359 C15.2658343,19.4578888 14.8558456,20.1189557 14.1629966,20.5162316 C13.7657208,20.7355278 13.3271283,20.8531215 12.8694665,20.8531215 C11.5473326,20.8531215 10.4730988,19.8996595 10.4730988,18.7364359 C10.4730988,18.3836549 10.5620885,18.0435868 10.7527809,17.7353008 C11.0324631,17.2649262 11.5314415,16.8962543 12.1639047,16.7055619 C12.2370034,16.676958 12.2973893,16.676958 12.3259932,16.676958 C12.7359818,16.676958 13.0601589,16.3559591 13.0601589,15.9427923 C13.0601589,15.5328036 12.73916,15.2086266 12.3259932,15.2086266 C12.1511918,15.2086266 11.9732123,15.2372304 11.7094211,15.3103292 C10.768672,15.5900114 9.99001135,16.1779796 9.50374574,16.9725312 C9.18274688,17.5160045 9.00476731,18.1198638 9.00476731,18.7364359 C9.00476731,20.7196368 10.7400681,22.3246311 12.8726447,22.3246311 C13.5782066,22.3246311 14.2710556,22.1466515 14.8876277,21.7938706 C16.0349603,21.1455165 16.7278093,19.9981839 16.7278093,18.7491487 L16.7278093,12.5866061 C16.7278093,11.8651532 17.137798,11.2040863 17.830647,10.8068104 C18.2279228,10.5875142 18.6665153,10.4699205 19.1241771,10.4699205 C20.4335982,10.4699205 21.507832,11.4233825 21.507832,12.5866061 C21.507832,12.9393871 21.4188422,13.2794552 21.2281498,13.5877412 C20.9484677,14.0740068 20.4494892,14.4395006 19.8170261,14.6174801 C19.7439274,14.646084 19.6835414,14.646084 19.6549376,14.646084 C19.2449489,14.646084 18.9207719,14.9670829 18.9207719,15.3802497 C18.9207719,15.7902384 19.2417707,16.1144154 19.6549376,16.1144154 C19.8297389,16.1144154 20.0204313,16.0858116 20.2715096,16.0127128 C21.2122588,15.7330306 21.9909194,15.1450624 22.477185,14.3505108 C22.7981839,13.8070375 22.9761635,13.2031782 22.9761635,12.5866061 C22.9761635,10.6034052 21.2408627,8.9984109 19.108286,8.9984109 Z" id="Combined-Shape" fill="#FF4F25"></path>
    </g>
</svg>