<?xml version="1.0" encoding="UTF-8"?>
<svg width="32px" height="32px" viewBox="0 0 32 32" version="1.1" xmlns="http://www.w3.org/2000/svg" xmlns:xlink="http://www.w3.org/1999/xlink">
    <!-- Generator: Sketch 52.5 (67469) - http://www.bohemiancoding.com/sketch -->
    <title>产品流向-默认</title>
    <desc>Created with Sketch.</desc>
    <g id="产品流向-默认" stroke="none" stroke-width="1" fill="none" fill-rule="evenodd">
        <path d="M24.0609331,5.29944477 L10.4464874,11.7066653 L10.4464874,15.8220724 L8.07031684,14.7651548 L8.07031684,10.6497477 L21.6847625,4.24252719 L17.11289,2.20535963 C16.5003904,1.93154679 15.4996097,1.93154679 14.88711,2.20535963 L3.62422552,7.2188728 C2.72735101,7.61863956 1.99727328,8.7494866 2.00000766,9.73247471 L2.02735139,22.484522 C2.03008576,23.4784626 2.77930411,24.6093096 3.68985048,25.000862 L14.9199225,29.8090155 C15.5132815,30.0636615 16.4812498,30.0636615 17.0746088,29.8090155 L28.3101495,25.000862 C29.2234303,24.6093096 29.9699143,23.4784626 29.9726486,22.484522 L29.9999924,9.73247471 C30.0027267,8.7494866 29.2699146,7.61863956 28.3730401,7.2188728 L24.0609331,5.29944477 Z M28.5453057,21.8903481 C28.5453057,21.9916588 28.452337,22.1121365 28.3402277,22.1614228 L17.8894521,26.556119 C17.7910147,26.5971909 17.7117178,26.5533808 17.7089835,26.4602845 L17.7007803,25.9482544 C17.698046,25.8551581 17.7773428,25.7428948 17.8757802,25.7018229 L28.3456964,21.2359354 C28.4578057,21.1893872 28.54804,21.2331973 28.54804,21.334508 L28.5453057,21.8903481 Z" id="Shape" fill="#ADB6D7" fill-rule="nonzero"></path>
    </g>
</svg>