<?xml version="1.0" encoding="UTF-8"?>
<svg width="32px" height="32px" viewBox="0 0 32 32" version="1.1" xmlns="http://www.w3.org/2000/svg" xmlns:xlink="http://www.w3.org/1999/xlink">
    <!-- Generator: Sketch 52.5 (67469) - http://www.bohemiancoding.com/sketch -->
    <title>社交获客-默认</title>
    <desc>Created with Sketch.</desc>
    <g id="社交获客-默认" stroke="none" stroke-width="1" fill="none" fill-rule="evenodd">
        <g id="社交" transform="translate(2.000000, 2.000000)" fill="#ADB6D7" fill-rule="nonzero">
            <path d="M11.4663668,0.0091226978 C5.14302847,0.0091226978 0.0197073874,4.59069261 0.0197073874,10.2447664 C0.0197073874,13.4726906 1.69722234,16.3443532 4.3127582,18.2260694 L4.3127582,23.3989296 L9.32832865,20.2900072 C10.0347237,20.4106046 10.7499075,20.4713098 11.4663668,20.4714849 C17.7889672,20.4714849 22.9130263,15.889915 22.9130263,10.2447664 C22.9218825,4.59069261 17.7889672,0.0091226978 11.4663668,0.0091226978 Z M5.74672721,11.7084887 C5.36387391,11.7063266 4.99758773,11.5508248 4.72860133,11.2762572 C4.45961494,11.0016896 4.31000908,10.6305952 4.3127582,10.2447664 C4.3127582,9.43555403 4.95335784,8.78104405 5.74746523,8.78104405 C6.54083459,8.78104405 7.18143423,9.43555403 7.18143423,10.2447664 C7.17257802,11.0539787 6.53197838,11.7084887 5.74746523,11.7084887 L5.74672721,11.7084887 Z M11.4663668,11.7084887 C11.0833853,11.7065234 10.7169095,11.5511082 10.4477637,11.2765192 C10.1786178,11.0019302 10.0289108,10.6307234 10.0316598,10.2447664 C10.0316598,9.43555403 10.6722595,8.78104405 11.4663668,8.78104405 C12.2597362,8.78104405 12.9003359,9.43555403 12.9003359,10.2447664 C12.903085,10.6305952 12.7534791,11.0016896 12.4844927,11.2762572 C12.2155063,11.5508248 11.8492201,11.7063266 11.4663668,11.7084887 Z M17.1933867,11.7084887 C16.8105334,11.7063266 16.4442472,11.5508248 16.1752608,11.2762572 C15.9062744,11.0016896 15.7566685,10.6305952 15.7594177,10.2447664 C15.7594177,9.43555403 16.4000173,8.78104405 17.1941247,8.78104405 C17.9874941,8.78104405 18.6280937,9.43555403 18.6280937,10.2447664 C18.6308428,10.6305952 18.481237,11.0016896 18.2122506,11.2762572 C17.9432642,11.5508248 17.576978,11.7063266 17.1941247,11.7084887 L17.1933867,11.7084887 Z M24.6444166,8.75426864 L24.6894357,9.48166724 C24.6990299,10.1718778 24.6894357,10.1086581 24.6894357,10.744574 C24.6894357,17.4533014 19.5122393,22.0988348 12.3232058,22.0988348 L9.85084541,22.0988348 C11.8176634,24.0534396 14.0996151,25.2531266 17.2657124,25.2531266 C17.942475,25.2531266 18.601525,25.1899069 19.2413867,25.080574 L23.8599034,27.9804995 L23.8599034,23.2070392 C26.3676886,21.4525061 27.9817341,18.7348022 27.9817341,15.6801743 C27.9817341,12.9528015 26.6924166,10.498389 24.6444166,8.75352488 L24.6444166,8.75426864 Z" id="Shape"></path>
        </g>
    </g>
</svg>