<?xml version="1.0" encoding="UTF-8"?>
<svg width="32px" height="32px" viewBox="0 0 32 32" version="1.1" xmlns="http://www.w3.org/2000/svg" xmlns:xlink="http://www.w3.org/1999/xlink">
    <!-- Generator: Sketch 52.5 (67469) - http://www.bohemiancoding.com/sketch -->
    <title>识别真伪-选中</title>
    <desc>Created with Sketch.</desc>
    <g id="识别真伪-选中" stroke="none" stroke-width="1" fill="none" fill-rule="evenodd">
        <path d="M6,6 L26,6 L26,26 L6,26 L6,6 Z M8,24 L24,24 L24,13 L17,19 L13,16 L8,20 L8,24 Z M11,13 C12.1045695,13 13,12.1045695 13,11 C13,9.8954305 12.1045695,9 11,9 C9.8954305,9 9,9.8954305 9,11 C9,12.1045695 9.8954305,13 11,13 Z M2,2 L8,2 L8,4 L4,4 L4,8 L2,8 L2,2 Z M2,30 L2,24 L4,24 L4,28 L8,28 L8,30 L2,30 Z M30,30 L24,30 L24,28 L28,28 L28,24 L30,24 L30,30 Z M30,2 L30,8 L28,8 L28,4 L24,4 L24,2 L30,2 Z" id="Combined-Shape" fill="#FF4F25"></path>
    </g>
</svg>