<?xml version="1.0" encoding="UTF-8"?>
<svg width="32px" height="32px" viewBox="0 0 32 32" version="1.1" xmlns="http://www.w3.org/2000/svg" xmlns:xlink="http://www.w3.org/1999/xlink">
    <!-- Generator: Sketch 52.5 (67469) - http://www.bohemiancoding.com/sketch -->
    <title>渠道赋能-默认</title>
    <desc>Created with Sketch.</desc>
    <g id="渠道赋能-默认" stroke="none" stroke-width="1" fill="none" fill-rule="evenodd">
        <path d="M17,11 L17,15 L23,15 C24.1045695,15 25,15.8954305 25,17 L25,19 L27,19 C28.1045695,19 29,19.8954305 29,21 L29,27 C29,28.1045695 28.1045695,29 27,29 L21,29 C19.8954305,29 19,28.1045695 19,27 L19,21 C19,19.8954305 19.8954305,19 21,19 L23,19 L23,17 L9,17 L9,19 L11,19 C12.1045695,19 13,19.8954305 13,21 L13,27 C13,28.1045695 12.1045695,29 11,29 L5,29 C3.8954305,29 3,28.1045695 3,27 L3,21 C3,19.8954305 3.8954305,19 5,19 L7,19 L7,17 C7,15.8954305 7.8954305,15 9,15 L15,15 L15,11 L6,11 C4.8954305,11 4,10.1045695 4,9 L4,5 C4,3.8954305 4.8954305,3 6,3 L26,3 C27.1045695,3 28,3.8954305 28,5 L28,9 C28,10.1045695 27.1045695,11 26,11 L17,11 Z M6,5 L6,9 L26,9 L26,5 L6,5 Z" id="Combined-Shape" fill="#ADB6D7" fill-rule="nonzero"></path>
    </g>
</svg>