<?xml version="1.0" encoding="UTF-8"?>
<svg width="32px" height="32px" viewBox="0 0 32 32" version="1.1" xmlns="http://www.w3.org/2000/svg" xmlns:xlink="http://www.w3.org/1999/xlink">
    <!-- Generator: Sketch 52.5 (67469) - http://www.bohemiancoding.com/sketch -->
    <title>个性化定制-默认</title>
    <desc>Created with Sketch.</desc>
    <g id="个性化定制-默认" stroke="none" stroke-width="1" fill="none" fill-rule="evenodd">
        <path d="M5,3 L27,3 C28.1045695,3 29,3.8954305 29,5 L29,27 C29,28.1045695 28.1045695,29 27,29 L5,29 C3.8954305,29 3,28.1045695 3,27 L3,5 C3,3.8954305 3.8954305,3 5,3 Z M10,25 C11.6568542,25 13,23.6568542 13,22 C13,20.3431458 11.6568542,19 10,19 C8.34314575,19 7,20.3431458 7,22 C7,23.6568542 8.34314575,25 10,25 Z M20,7 C19.4477153,7 19,7.44771525 19,8 L19,12 C19,12.5522847 19.4477153,13 20,13 L24,13 C24.5522847,13 25,12.5522847 25,12 L25,8 C25,7.44771525 24.5522847,7 24,7 L20,7 Z M16,6.5 C10.7532949,6.5 6.5,10.7532949 6.5,16 L7.5,16 C7.5,11.3055796 11.3055796,7.5 16,7.5 L16,6.5 Z M16,25.5 C21.2467051,25.5 25.5,21.2467051 25.5,16 L24.5,16 C24.5,20.6944204 20.6944204,24.5 16,24.5 L16,25.5 Z" id="Combined-Shape" fill="#ADB6D7"></path>
    </g>
</svg>