<?xml version="1.0" encoding="UTF-8"?>
<svg width="32px" height="32px" viewBox="0 0 32 32" version="1.1" xmlns="http://www.w3.org/2000/svg" xmlns:xlink="http://www.w3.org/1999/xlink">
    <!-- Generator: Sketch 52.5 (67469) - http://www.bohemiancoding.com/sketch -->
    <title>销售赋能-选中</title>
    <desc>Created with Sketch.</desc>
    <g id="销售赋能-选中" stroke="none" stroke-width="1" fill="none" fill-rule="evenodd">
        <path d="M4,2 L28,2 C29.1045695,2 30,2.8954305 30,4 L30,28 C30,29.1045695 29.1045695,30 28,30 L4,30 C2.8954305,30 2,29.1045695 2,28 L2,4 C2,2.8954305 2.8954305,2 4,2 Z M24.4972648,15.9448591 L24.0843624,9.37723532 C24.045501,8.77331589 23.581593,8.28628409 22.9816701,8.2205348 L16.3776607,7.50703322 C16.013335,7.46807067 15.6490094,7.59226378 15.3842661,7.84795547 L6.87847682,16.0787928 C6.38542278,16.556084 6.37327859,17.3402052 6.84690193,17.8345425 L13.8589561,25.1205381 C14.3350083,25.6148754 15.117094,25.6270512 15.610148,25.1521952 L24.120795,16.9164875 C24.3831094,16.663231 24.5215532,16.3076978 24.4972648,15.9448591 Z M19.6978817,15.5211414 C18.8332155,16.356401 17.4584934,16.3320494 16.6254021,15.4675679 C15.7923108,14.6006513 15.8165992,13.2223514 16.6788365,12.3870918 C17.5410739,11.5518323 18.9182248,11.5761839 19.7513161,12.4406653 C20.5868362,13.3075819 20.560119,14.6858819 19.6978817,15.5211414 Z" id="Combined-Shape" fill="#FF4F25"></path>
    </g>
</svg>