<?xml version="1.0" encoding="UTF-8"?>
<svg width="32px" height="32px" viewBox="0 0 32 32" version="1.1" xmlns="http://www.w3.org/2000/svg" xmlns:xlink="http://www.w3.org/1999/xlink">
    <!-- Generator: Sketch 52.5 (67469) - http://www.bohemiancoding.com/sketch -->
    <title>售后维修-选中</title>
    <desc>Created with Sketch.</desc>
    <g id="售后维修-选中" stroke="none" stroke-width="1" fill="none" fill-rule="evenodd">
        <g id="维修背景" transform="translate(2.000000, 2.000000)" fill="#FF4F25" fill-rule="nonzero">
            <path d="M23.4176763,11.1412 C23.4176763,11.1412 25.4947368,12.0512 25.350149,16.7468 L26.8516385,18.228 C26.8516385,18.228 28.4421053,14.5936 27.8637537,11.48 C27.8637537,11.48 27.8137041,8.5596 22.5473684,4.6844 C22.5473684,4.6844 19.9364449,4.97 20.1310824,2.2904 L18.0512413,0.2296 L14.2780536,3.9592 L16.1187686,5.782 C16.1187686,5.782 20.6593843,5.9696 19.0689176,9.66 L12.2566038,16.4584 L10.9497517,16.268 L3.16703078,23.9736 C3.16703078,23.9736 2.63316783,25.844 3.99006951,26.9892 C3.99006951,26.9892 4.86037736,28.0476 6.69553128,27.9972 L14.3336643,20.146 L14.4782522,18.8496 L22.2637537,11.186 C22.2637537,11.1916 22.6975174,10.5224 23.4176763,11.1412 Z M8.67805362,12.0008 L11.1443893,14.448 L14.4782522,11.1412 L11.9173784,8.6044 C14.6256207,2.4752 6.84011917,0.084 6.84011917,0.084 C5.38867925,-0.3024 5.68063555,0.8008 5.68063555,0.8008 C8.72810328,3.29 8.24150943,4.1048 8.24150943,4.1048 C7.85223436,6.9804 5.34141013,8.0836 5.34141013,8.0836 C2.82780536,9.1308 0.750744786,5.6392 0.750744786,5.6392 C-0.0722939424,5.4964 0.02224429,6.4036 0.02224429,6.4036 C2.05481629,15.2628 8.67805362,12.0008 8.67805362,12.0008 Z M27.4939424,23.9484 L19.8419067,16.6488 L16.4607746,19.9976 L23.7151936,27.6416 C23.7151936,27.6416 23.9209533,27.86 24.1461768,27.86 C24.3686197,27.86 24.5048659,27.7312 24.5048659,27.7312 L27.5551142,24.71 C27.5551142,24.71 27.6774578,24.6092 27.6774578,24.3544 C27.6774578,24.0996 27.4939424,23.9484 27.4939424,23.9484 Z M25.6170804,23.9764 L25.1972195,25.2616 C25.1360477,25.4156 24.9886792,25.522 24.8246276,25.5304 L23.4593843,25.5304 C23.2925521,25.5248 23.1479643,25.4156 23.0867925,25.2616 L22.669712,23.9764 C22.6224429,23.8196 22.6808342,23.6488 22.8142999,23.5424 L23.9181728,22.7528 C24.0544191,22.6576 24.2379345,22.6576 24.3797418,22.7528 L25.4836147,23.5424 C25.6115194,23.646 25.6643496,23.8196 25.6170804,23.9764 Z" id="Shape"></path>
        </g>
    </g>
</svg>