<?xml version="1.0" encoding="UTF-8"?>
<svg width="32px" height="32px" viewBox="0 0 32 32" version="1.1" xmlns="http://www.w3.org/2000/svg" xmlns:xlink="http://www.w3.org/1999/xlink">
    <!-- Generator: Sketch 52.5 (67469) - http://www.bohemiancoding.com/sketch -->
    <title>商机管理-选中</title>
    <desc>Created with Sketch.</desc>
    <g id="商机管理-选中" stroke="none" stroke-width="1" fill="none" fill-rule="evenodd">
        <path d="M11,6 L11,4 C11,2.8954305 11.8954305,2 13,2 L19,2 C20.1045695,2 21,2.8954305 21,4 L21,6 L26.7590012,6 C27.9949838,6 29,6.98397659 29,8.2009196 L29,12 L18,12 L18,11 L14,11 L14,12 L3,12 L3,8.2009196 C3,6.98397659 4.00501616,6 5.24099877,6 L11,6 Z M13,6 L19,6 L19,4 L13,4 L13,6 Z M3,14 L14,14 L14,15 L18,15 L18,14 L29,14 L29,19.1010173 C27.729483,17.8044672 25.9586882,17 24,17 C20.1340068,17 17,20.1340068 17,24 C17,24.3395213 17.024172,24.673397 17.0708889,25 L5.24099877,25 C4.00189499,25 3,24.0129581 3,22.7990804 L3,14 Z M15,12 L17,12 L17,14 L15,14 L15,12 Z M24,30 C20.6862915,30 18,27.3137085 18,24 C18,20.6862915 20.6862915,18 24,18 C27.3137085,18 30,20.6862915 30,24 C30,27.3137085 27.3137085,30 24,30 Z M23.117766,21 C23.0638274,21 23.0092145,21.0140944 22.9680863,21.0295983 L22.9546016,21.0295983 L22.1805821,21.4876674 L22.1670974,21.4876674 C22.0180919,21.602537 21.963479,21.8026779 22.0315766,21.97463 C22.0315766,21.97463 22.0996741,22.1324877 22.0996741,22.2755462 C22.0996741,22.7047216 21.7740196,23.0486258 21.3667828,23.0486258 L21.3532981,23.0486258 C21.217103,23.0486258 21.0950669,23.1775899 21.0680975,23.3777308 C21.0546129,23.4066244 21,23.7498238 21,24.0077519 C21,24.2797745 21.0546129,24.6236786 21.0680975,24.6377731 C21.1092258,24.837914 21.2177773,24.9668781 21.3532981,24.9668781 L21.3802674,24.9668781 C21.7875042,24.9668781 22.1131588,25.3100775 22.1131588,25.7399577 C22.1131588,25.8830162 22.0450612,26.0408739 22.0450612,26.0408739 C21.9776379,26.2121212 22.0315766,26.4270613 22.1819306,26.5412262 L22.1954152,26.5412262 L22.9283066,26.9711064 L22.9417912,26.9711064 C22.9964041,27 23.0368581,27 23.1049556,27 C23.2269918,27 23.3355433,26.9429175 23.4036409,26.8569415 C23.5121924,26.7427766 23.7839083,26.4848485 23.9875267,26.4848485 C24.2046297,26.4848485 24.503315,26.756871 24.5848972,26.8569415 C24.6529947,26.9429175 24.7750309,27 24.8970671,27 C24.9510057,27 25.0056186,26.9852008 25.0460726,26.9711064 L25.0595573,26.9711064 L25.8059333,26.5271318 L25.8194179,26.5271318 C25.9684234,26.4122622 26.0230363,26.2121212 25.9549388,26.0401691 C25.9549388,26.0401691 25.8868412,25.8823115 25.8868412,25.739253 C25.8868412,25.3100775 26.2124958,24.9661734 26.6197326,24.9661734 L26.6467019,24.9661734 C26.782897,24.9661734 26.9049331,24.8372093 26.9319025,24.6370684 C26.9319025,24.6370684 27,24.2931642 27,24.0070472 C27,23.7350247 26.9453871,23.3911205 26.9319025,23.3770261 C26.8907742,23.1768851 26.7822227,23.0479211 26.6467019,23.0479211 L26.6197326,23.0479211 C26.2124958,23.0479211 25.8868412,22.7047216 25.8868412,22.2748414 C25.8868412,22.1317829 25.9549388,21.9739253 25.9549388,21.9739253 C26.0230363,21.8019732 25.9684234,21.5877378 25.8194179,21.4728682 L25.8059333,21.4728682 L25.0595573,21.0288936 L25.0460726,21.0288936 C24.9914597,21 24.9510057,21 24.8829082,21 C24.7743567,21 24.6523205,21.042988 24.5842229,21.1289641 C24.5026407,21.2149401 24.2174402,21.4728682 24.0003371,21.4728682 C23.7832341,21.4728682 23.4980335,21.2149401 23.4164513,21.1148696 C23.3483537,21.042988 23.2263176,21 23.117766,21 Z M23.9868525,22.8618746 C24.5842229,22.8618746 25.0730419,23.3770261 25.0730419,24.0077519 C25.0730419,24.6384778 24.5842229,25.1536293 23.9868525,25.1536293 C23.389482,25.1536293 22.900663,24.6377731 22.900663,24.0077519 C22.900663,23.3770261 23.389482,22.8618746 23.9868525,22.8618746 Z" id="Combined-Shape" fill="#FF4F25" fill-rule="nonzero"></path>
    </g>
</svg>