<?xml version="1.0" encoding="UTF-8"?>
<svg width="540px" height="420px" viewBox="0 0 540 420" version="1.1" xmlns="http://www.w3.org/2000/svg" xmlns:xlink="http://www.w3.org/1999/xlink">
    <!-- Generator: Sketch 52.5 (67469) - http://www.bohemiancoding.com/sketch -->
    <title>内容获客配图</title>
    <desc>Created with Sketch.</desc>
    <g id="内容获客配图" stroke="none" stroke-width="1" fill="none" fill-rule="evenodd">
        <g id="Group-34">
            <path d="M4,0 L536,0 C538.209139,-4.05812251e-16 540,1.790861 540,4 L540,416 C540,418.209139 538.209139,420 536,420 L4,420 C1.790861,420 2.705415e-16,418.209139 0,416 L0,4 C-2.705415e-16,1.790861 1.790861,4.05812251e-16 4,0 Z" id="Rectangle" fill="#FFFFFF"></path>
            <rect id="Rectangle" fill="#F5F5F5" x="10" y="376" width="520" height="34"></rect>
            <path d="M173.232,385.422 L173.232,389.468 L176.55,389.468 L176.55,390.756 L173.232,390.756 L173.232,395.936 L176.452,394.9 C176.424,395.32 176.466,395.922 176.522,396.23 C172.784,397.504 172.196,397.77 171.846,398.036 C171.748,397.714 171.44,397.182 171.216,396.93 C171.496,396.762 171.846,396.398 171.846,395.768 L171.846,385.422 L173.232,385.422 Z M179.49,396.496 L181.212,396.496 C181.856,396.496 181.954,395.866 182.052,393.332 C182.374,393.584 182.948,393.864 183.298,393.948 C183.158,396.748 182.836,397.756 181.338,397.756 L179.308,397.756 C177.852,397.756 177.446,397.28 177.446,395.53 L177.446,385.352 L178.818,385.352 L178.818,390.434 C180.05,389.58 181.296,388.488 182.136,387.62 L183.214,388.768 C181.94,389.832 180.33,390.966 178.818,391.876 L178.818,395.572 C178.818,396.356 178.916,396.496 179.49,396.496 Z M188.646,394.914 L189.248,394.06 C191.124,394.256 193.476,394.788 194.862,395.236 L194.288,396.174 C192.958,395.698 190.564,395.152 188.646,394.914 Z M189.976,393.15 L190.522,392.394 C191.642,392.618 193.07,393.066 193.882,393.43 L193.336,394.256 C192.552,393.878 191.11,393.402 189.976,393.15 Z M190.242,389.244 C190.676,389.678 191.222,390.098 191.866,390.448 C192.524,390.084 193.098,389.678 193.574,389.244 L190.242,389.244 Z M194.666,388.194 L195.394,388.642 C194.82,389.552 193.98,390.322 192.972,390.98 C194.008,391.428 195.142,391.75 196.276,391.96 C196.024,392.184 195.702,392.632 195.548,392.926 C194.288,392.66 193.028,392.212 191.908,391.624 C190.648,392.296 189.248,392.8 187.918,393.108 C187.792,392.8 187.54,392.282 187.302,392.044 C188.464,391.82 189.682,391.456 190.816,390.966 C190.326,390.644 189.892,390.294 189.514,389.916 C189.15,390.224 188.786,390.518 188.422,390.756 C188.226,390.532 187.806,390.154 187.554,389.972 C188.716,389.286 189.892,388.236 190.578,387.158 L191.642,387.522 C191.488,387.774 191.32,388.012 191.124,388.25 L194.484,388.25 L194.666,388.194 Z M187.232,396.412 L196.346,396.412 L196.346,387.018 L187.232,387.018 L187.232,396.412 Z M185.986,385.842 L197.648,385.842 L197.648,398.106 L196.346,398.106 L196.346,397.56 L187.232,397.56 L187.232,398.106 L185.986,398.106 L185.986,385.842 Z M209.198,388.922 L203.766,388.922 C204.438,390.574 205.376,392.016 206.566,393.248 C207.7,392.072 208.568,390.644 209.198,388.922 Z M212.824,388.922 L210.654,388.922 C209.912,391.036 208.876,392.744 207.56,394.144 C209.058,395.362 210.878,396.272 213.034,396.804 C212.74,397.084 212.362,397.63 212.152,398.008 C209.926,397.406 208.064,396.412 206.552,395.096 C204.998,396.412 203.094,397.392 200.826,398.092 C200.672,397.756 200.28,397.154 200.014,396.846 C202.268,396.244 204.102,395.376 205.586,394.158 C204.228,392.716 203.192,390.966 202.408,388.922 L200.252,388.922 L200.252,387.662 L206.314,387.662 C206.146,387.088 205.754,386.206 205.376,385.548 L206.748,385.142 C207.154,385.8 207.602,386.696 207.784,387.27 L206.538,387.662 L212.824,387.662 L212.824,388.922 Z M217.626,392.59 L220.608,392.59 C220.636,392.366 220.636,392.142 220.636,391.904 L220.636,391.4 L217.626,391.4 L217.626,392.59 Z M217.626,389.202 L217.626,390.392 L220.636,390.392 L220.636,389.202 L217.626,389.202 Z M225.102,389.202 L221.994,389.202 L221.994,390.392 L225.102,390.392 L225.102,389.202 Z M225.102,392.59 L225.102,391.4 L221.994,391.4 L221.994,391.918 C221.994,392.156 221.994,392.366 221.966,392.59 L225.102,392.59 Z M226.39,393.654 L221.812,393.654 C221.644,394.452 221.294,395.194 220.65,395.852 C222.442,396.552 224.794,396.706 227.762,396.734 C227.524,397.042 227.286,397.588 227.216,398.022 C224.08,397.91 221.532,397.672 219.572,396.706 C218.662,397.28 217.388,397.756 215.68,398.12 C215.526,397.826 215.176,397.266 214.882,396.972 C216.408,396.706 217.514,396.356 218.354,395.95 C217.724,395.474 217.192,394.872 216.73,394.144 L217.864,393.696 C218.298,394.326 218.816,394.83 219.432,395.236 C219.964,394.76 220.258,394.228 220.426,393.654 L216.394,393.654 L216.394,388.138 L220.636,388.138 L220.636,387.13 L215.162,387.13 L215.162,385.954 L227.272,385.954 L227.272,387.13 L221.994,387.13 L221.994,388.138 L226.39,388.138 L226.39,393.654 Z M239.158,391.974 L239.158,390.756 L233.684,390.756 L233.684,391.974 L239.158,391.974 Z M233.684,394.284 L239.158,394.284 L239.158,393.066 L233.684,393.066 L233.684,394.284 Z M242.042,388.222 L234.566,388.222 C234.342,388.698 234.09,389.174 233.838,389.622 L240.432,389.622 L240.432,396.594 C240.432,397.294 240.292,397.686 239.788,397.882 C239.298,398.092 238.514,398.092 237.352,398.092 C237.31,397.742 237.114,397.182 236.946,396.832 C237.772,396.874 238.612,396.874 238.85,396.86 C239.088,396.86 239.158,396.79 239.158,396.58 L239.158,395.376 L233.684,395.376 L233.684,398.106 L232.396,398.106 L232.396,391.694 C231.78,392.422 231.08,393.08 230.296,393.626 C230.1,393.346 229.708,392.856 229.442,392.618 C231.024,391.554 232.242,389.944 233.124,388.222 L229.82,388.222 L229.82,387.004 L233.656,387.004 C233.894,386.416 234.09,385.828 234.244,385.254 L235.574,385.562 C235.42,386.038 235.266,386.528 235.084,387.004 L242.042,387.004 L242.042,388.222 Z M250.862,387.242 L250.862,388.404 L244.422,388.404 L244.422,387.242 L247.306,387.242 C247.138,386.766 246.774,386.136 246.438,385.646 L247.53,385.24 C247.922,385.744 248.342,386.43 248.524,386.892 L247.684,387.242 L250.862,387.242 Z M245.92,388.628 L247.054,388.964 C246.508,390.196 245.71,391.582 244.982,392.478 C244.786,392.254 244.352,391.848 244.086,391.666 C244.786,390.868 245.486,389.72 245.92,388.628 Z M250.288,395.894 L249.238,396.706 C248.944,396.16 248.482,395.474 247.908,394.76 C247.152,396.006 246.186,397.014 245.038,397.798 C244.87,397.56 244.422,397.056 244.142,396.86 C245.374,396.118 246.368,395.054 247.11,393.766 C246.578,393.164 246.032,392.562 245.528,392.058 L246.48,391.358 C246.858,391.736 247.264,392.156 247.684,392.59 C247.908,392.044 248.104,391.47 248.258,390.84 L249.49,391.064 C249.238,391.974 248.93,392.814 248.566,393.57 C249.28,394.396 249.924,395.222 250.288,395.894 Z M254.936,388.95 L252.934,388.95 C252.822,389.272 252.724,389.566 252.626,389.874 C252.878,391.078 253.27,392.226 253.76,393.262 C254.334,392.044 254.712,390.63 254.936,388.95 Z M256.924,388.95 L256.196,388.95 C255.86,391.19 255.328,393.024 254.474,394.508 C255.188,395.6 256.084,396.482 257.148,397.056 C256.84,397.308 256.448,397.784 256.238,398.12 C255.244,397.518 254.418,396.664 253.718,395.628 C252.92,396.678 251.898,397.518 250.61,398.176 C250.456,397.924 249.994,397.42 249.728,397.196 C251.17,396.552 252.248,395.656 253.046,394.494 C252.584,393.598 252.192,392.604 251.884,391.526 C251.66,391.918 251.436,392.282 251.198,392.618 C251.03,392.352 250.61,391.834 250.358,391.596 C250.47,391.456 250.568,391.316 250.652,391.162 L249.798,391.652 C249.546,390.952 248.86,389.86 248.23,389.062 L249.182,388.558 C249.812,389.286 250.484,390.266 250.778,390.952 C251.66,389.454 252.22,387.396 252.542,385.254 L253.76,385.436 C253.62,386.22 253.452,387.004 253.284,387.746 L256.924,387.746 L256.924,388.95 Z M260.704,395.516 L263.308,395.516 L263.308,392.422 L260.704,392.422 L260.704,395.516 Z M263.308,388.628 L260.704,388.628 L260.704,391.288 L263.308,391.288 L263.308,388.628 Z M267.27,387.424 L271.33,387.424 C271.33,387.424 271.33,387.872 271.316,388.04 C271.12,394.354 270.952,396.524 270.392,397.224 C270.042,397.686 269.706,397.812 269.174,397.882 C268.684,397.938 267.858,397.924 267.06,397.882 C267.032,397.532 266.878,396.986 266.64,396.622 C267.536,396.692 268.348,396.706 268.698,396.706 C268.978,396.706 269.132,396.664 269.286,396.468 C269.734,396.006 269.916,393.892 270.098,388.614 L266.794,388.614 C266.402,389.51 265.968,390.322 265.52,390.966 C265.31,390.77 264.82,390.42 264.498,390.238 L264.498,396.664 L260.704,396.664 L260.704,397.728 L259.514,397.728 L259.514,387.494 L261.082,387.494 C261.278,386.822 261.488,385.898 261.572,385.226 L262.986,385.464 C262.748,386.164 262.482,386.906 262.258,387.494 L264.498,387.494 L264.498,390.14 C265.422,388.936 266.164,387.074 266.584,385.226 L267.844,385.52 C267.676,386.164 267.494,386.808 267.27,387.424 Z M269.062,393.738 L267.97,394.424 C267.578,393.57 266.668,392.198 265.926,391.19 L266.948,390.616 C267.69,391.582 268.642,392.912 269.062,393.738 Z M285.666,387.606 L285.666,396.51 C285.666,397.28 285.484,397.672 284.966,397.882 C284.448,398.106 283.58,398.12 282.348,398.12 C282.292,397.756 282.082,397.154 281.9,396.804 C282.81,396.846 283.762,396.846 284.028,396.832 C284.294,396.818 284.378,396.748 284.378,396.496 L284.378,388.866 L280.682,388.866 C280.654,389.412 280.584,389.986 280.458,390.588 C281.746,391.75 283.356,393.29 284.168,394.284 L283.104,395.138 C282.46,394.284 281.214,392.968 280.052,391.848 C279.506,393.122 278.526,394.354 276.804,395.362 C276.636,395.082 276.188,394.62 275.88,394.382 C278.792,392.842 279.268,390.658 279.338,388.866 L275.698,388.866 L275.698,398.134 L274.396,398.134 L274.396,387.606 L279.352,387.606 L279.352,385.254 L280.696,385.254 L280.696,387.606 L285.666,387.606 Z M290.146,387.648 L290.146,389.188 L288.872,389.188 L288.872,386.472 L294.15,386.472 C294.01,386.122 293.842,385.758 293.674,385.436 L295.018,385.142 C295.256,385.534 295.522,386.052 295.69,386.472 L300.548,386.472 L300.548,389.188 L299.232,389.188 L299.232,387.648 L290.146,387.648 Z M295.746,388.894 L296.642,388.152 C297.86,388.88 299.442,390 300.212,390.784 L299.274,391.624 C298.546,390.854 297.006,389.678 295.746,388.894 Z M292.302,388.138 L293.52,388.558 C292.624,389.776 291.21,390.938 289.936,391.652 C289.754,391.414 289.306,390.896 289.04,390.672 C290.272,390.084 291.546,389.132 292.302,388.138 Z M292.218,393.416 L297.468,393.416 C296.488,392.786 295.606,392.058 294.752,391.148 C294.024,391.988 293.156,392.758 292.218,393.416 Z M292.05,396.524 L297.342,396.524 L297.342,394.564 L292.05,394.564 L292.05,396.524 Z M294.542,389.398 L295.676,389.888 C295.606,390.014 295.522,390.126 295.438,390.238 C297.006,391.946 298.924,393.01 301.136,393.836 C300.828,394.116 300.478,394.55 300.296,394.914 C299.736,394.676 299.19,394.396 298.672,394.13 L298.672,398.064 L297.342,398.064 L297.342,397.672 L292.05,397.672 L292.05,398.106 L290.776,398.106 L290.776,394.298 C290.23,394.592 289.656,394.872 289.082,395.096 C288.9,394.774 288.55,394.326 288.256,394.046 C290.818,393.136 293.24,391.47 294.542,389.398 Z M307.142,387.102 L306.456,388.096 C305.84,387.62 304.58,386.962 303.586,386.584 L304.244,385.688 C305.224,386.038 306.498,386.626 307.142,387.102 Z M307.17,388.712 L307.394,389.832 C306.064,390.308 304.636,390.77 303.53,391.162 L303.152,389.972 C304.16,389.678 305.686,389.202 307.17,388.712 Z M314.086,395.502 L312.756,395.502 L312.756,392.968 L306.19,392.968 L306.19,395.614 L304.902,395.614 L304.902,391.792 L314.086,391.792 L314.086,395.502 Z M308.864,393.346 L310.152,393.346 C309.676,395.992 308.416,397.462 303.67,398.12 C303.572,397.826 303.292,397.322 303.096,397.056 C307.492,396.538 308.472,395.404 308.864,393.346 Z M309.578,396.048 L310.32,395.138 C311.958,395.6 314.296,396.426 315.5,397 L314.716,398.064 C313.568,397.462 311.272,396.594 309.578,396.048 Z M313.75,387.48 L312,387.48 C311.944,387.676 311.888,387.858 311.818,388.054 C312.546,389.244 313.96,390.126 315.696,390.504 C315.416,390.728 315.094,391.204 314.926,391.512 C313.414,391.078 312.182,390.224 311.342,389.104 C310.684,390.168 309.62,391.05 307.73,391.638 C307.604,391.358 307.282,390.91 307.044,390.7 C309.452,390.028 310.306,388.824 310.712,387.48 L309.312,387.48 C308.92,388.054 308.444,388.6 307.828,389.104 C307.646,388.81 307.212,388.446 306.932,388.278 C308.038,387.438 308.738,386.304 309.074,385.324 L310.306,385.492 C310.18,385.828 310.04,386.15 309.886,386.486 L314.268,386.486 L314.464,386.444 L315.416,386.682 C315.108,387.48 314.702,388.362 314.366,388.922 L313.218,388.614 C313.386,388.32 313.582,387.9 313.75,387.48 Z M329.752,386.822 L329.752,388.068 L318.664,388.068 L318.664,386.822 L323.69,386.822 C323.494,386.416 323.228,385.926 322.948,385.562 L324.264,385.212 C324.656,385.702 325.062,386.374 325.258,386.822 L329.752,386.822 Z M330.102,390.476 L330.102,391.75 L320.19,391.75 L320.19,392.408 C320.19,394.102 319.938,396.594 318.692,398.246 C318.482,397.98 317.894,397.49 317.614,397.322 C318.706,395.852 318.832,393.822 318.832,392.38 L318.832,390.476 L321.842,390.476 C321.618,389.93 321.156,389.146 320.736,388.558 L321.87,388.096 C322.318,388.67 322.85,389.482 323.074,390.028 L322.08,390.476 L325.552,390.476 C325.93,389.832 326.392,388.866 326.63,388.18 L328.072,388.642 C327.666,389.272 327.26,389.944 326.882,390.476 L330.102,390.476 Z M342.058,391.974 L342.058,390.756 L336.584,390.756 L336.584,391.974 L342.058,391.974 Z M336.584,394.284 L342.058,394.284 L342.058,393.066 L336.584,393.066 L336.584,394.284 Z M344.942,388.222 L337.466,388.222 C337.242,388.698 336.99,389.174 336.738,389.622 L343.332,389.622 L343.332,396.594 C343.332,397.294 343.192,397.686 342.688,397.882 C342.198,398.092 341.414,398.092 340.252,398.092 C340.21,397.742 340.014,397.182 339.846,396.832 C340.672,396.874 341.512,396.874 341.75,396.86 C341.988,396.86 342.058,396.79 342.058,396.58 L342.058,395.376 L336.584,395.376 L336.584,398.106 L335.296,398.106 L335.296,391.694 C334.68,392.422 333.98,393.08 333.196,393.626 C333,393.346 332.608,392.856 332.342,392.618 C333.924,391.554 335.142,389.944 336.024,388.222 L332.72,388.222 L332.72,387.004 L336.556,387.004 C336.794,386.416 336.99,385.828 337.144,385.254 L338.474,385.562 C338.32,386.038 338.166,386.528 337.984,387.004 L344.942,387.004 L344.942,388.222 Z M350.514,397.182 C348.582,397.182 347.154,396.034 347.154,394.438 C347.154,393.08 348.05,392.17 349.002,391.666 L349.002,391.596 C348.232,391.05 347.616,390.28 347.616,389.188 C347.616,387.578 348.862,386.528 350.556,386.528 C352.348,386.528 353.468,387.648 353.468,389.258 C353.468,390.308 352.754,391.204 352.11,391.68 L352.11,391.75 C353.034,392.282 353.846,393.08 353.846,394.48 C353.846,396.006 352.502,397.182 350.514,397.182 Z M351.186,391.274 C351.802,390.7 352.11,390.042 352.11,389.356 C352.11,388.404 351.536,387.69 350.528,387.69 C349.688,387.69 349.058,388.264 349.058,389.188 C349.058,390.308 350.038,390.826 351.186,391.274 Z M350.542,396.02 C351.592,396.02 352.32,395.404 352.32,394.438 C352.32,393.178 351.186,392.702 349.786,392.128 C349.072,392.618 348.582,393.388 348.582,394.284 C348.582,395.306 349.436,396.02 350.542,396.02 Z M361.014,388.292 L363.142,388.292 C363.296,387.9 363.436,387.438 363.562,387.018 L360.566,387.018 L360.566,385.842 L368.56,385.842 L368.56,387.018 L365.102,387.018 C364.892,387.466 364.696,387.914 364.486,388.292 L367.734,388.292 L367.734,394.774 L366.418,394.774 L366.418,389.454 L362.274,389.454 L362.274,394.816 L361.014,394.816 L361.014,388.292 Z M360.412,392.912 L360.58,394.004 C358.956,394.592 357.248,395.18 355.932,395.614 L355.624,394.242 C356.142,394.102 356.8,393.92 357.542,393.738 L357.542,388.068 L355.848,388.068 L355.848,386.836 L360.342,386.836 L360.342,388.068 L358.83,388.068 L358.83,393.36 L360.412,392.912 Z M365.032,390.112 L365.032,393.01 C365.032,394.872 364.304,396.888 360.398,398.092 C360.23,397.812 359.852,397.336 359.572,397.098 C363.31,396.104 363.73,394.424 363.73,392.996 L363.73,390.112 L365.032,390.112 Z M364.78,395.796 L365.592,394.998 C366.628,395.614 368,396.552 368.672,397.168 L367.804,398.064 C367.16,397.42 365.83,396.454 364.78,395.796 Z" id="比图文更有效的内容资产有8项" fill="#666666"></path>
            <path d="M52.158,39.34 L51.276,40.152 C51.038,39.62 50.702,38.99 50.282,38.318 C49.778,39.592 49.12,40.684 48.28,41.524 C48.07,41.356 47.552,40.978 47.272,40.81 C48.266,39.9 48.994,38.626 49.498,37.114 C48.938,36.288 48.308,35.462 47.692,34.748 L48.49,34.048 C48.966,34.566 49.442,35.154 49.904,35.756 C50.1,34.93 50.254,34.048 50.38,33.124 L51.542,33.25 C51.36,34.594 51.108,35.826 50.772,36.96 C51.36,37.814 51.85,38.654 52.158,39.34 Z M53.796,31.066 L53.796,41.454 C53.796,42.238 53.6,42.63 53.096,42.84 C52.578,43.05 51.766,43.078 50.492,43.078 C50.408,42.714 50.184,42.112 50.002,41.776 C50.884,41.832 51.85,41.818 52.13,41.804 C52.396,41.79 52.494,41.706 52.494,41.44 L52.494,32.298 L43.534,32.298 L43.534,40.642 C44.444,39.746 45.116,38.542 45.606,37.114 C44.99,36.302 44.332,35.462 43.73,34.748 L44.486,33.992 C44.976,34.552 45.494,35.182 45.984,35.812 C46.208,34.958 46.39,34.048 46.516,33.096 L47.678,33.222 C47.468,34.566 47.216,35.812 46.866,36.946 C47.384,37.66 47.86,38.332 48.182,38.878 L47.356,39.774 C47.118,39.326 46.782,38.808 46.404,38.248 C45.914,39.494 45.27,40.572 44.486,41.412 C44.29,41.244 43.828,40.922 43.534,40.74 L43.534,43.078 L42.232,43.078 L42.232,31.066 L53.796,31.066 Z M59.494,32.368 L58.318,32.76 C58.164,32.2 57.772,31.318 57.422,30.66 L58.542,30.338 C58.934,30.968 59.326,31.808 59.494,32.368 Z M59.732,39.592 L61.062,39.284 L61.188,40.488 C59.382,40.936 57.436,41.426 55.98,41.776 L55.7,40.488 C56.498,40.32 57.534,40.11 58.64,39.844 C58.99,38.416 59.34,36.078 59.494,34.426 L60.712,34.636 C60.446,36.232 60.082,38.206 59.732,39.592 Z M56.344,34.762 L57.366,34.566 C57.688,36.106 57.954,38.038 58.038,39.368 L56.96,39.578 C56.904,38.262 56.638,36.288 56.344,34.762 Z M55.84,33.992 L55.84,32.788 L61.286,32.788 L61.286,33.992 L55.84,33.992 Z M66.55,41.216 L66.55,38.052 L62.756,38.052 L62.756,41.216 L66.55,41.216 Z M68.412,34.23 L65.024,34.23 L65.024,36.834 L67.866,36.834 L67.866,43.022 L66.55,43.022 L66.55,42.434 L62.756,42.434 L62.756,43.078 L61.496,43.078 L61.496,36.834 L63.694,36.834 L63.694,30.24 L65.024,30.24 L65.024,32.984 L68.412,32.984 L68.412,34.23 Z M81.656,32.606 L81.656,41.51 C81.656,42.28 81.474,42.672 80.956,42.882 C80.438,43.106 79.57,43.12 78.338,43.12 C78.282,42.756 78.072,42.154 77.89,41.804 C78.8,41.846 79.752,41.846 80.018,41.832 C80.284,41.818 80.368,41.748 80.368,41.496 L80.368,33.866 L76.672,33.866 C76.644,34.412 76.574,34.986 76.448,35.588 C77.736,36.75 79.346,38.29 80.158,39.284 L79.094,40.138 C78.45,39.284 77.204,37.968 76.042,36.848 C75.496,38.122 74.516,39.354 72.794,40.362 C72.626,40.082 72.178,39.62 71.87,39.382 C74.782,37.842 75.258,35.658 75.328,33.866 L71.688,33.866 L71.688,43.134 L70.386,43.134 L70.386,32.606 L75.342,32.606 L75.342,30.254 L76.686,30.254 L76.686,32.606 L81.656,32.606 Z M85.436,32.648 L85.436,34.188 L84.162,34.188 L84.162,31.472 L89.44,31.472 C89.3,31.122 89.132,30.758 88.964,30.436 L90.308,30.142 C90.546,30.534 90.812,31.052 90.98,31.472 L95.838,31.472 L95.838,34.188 L94.522,34.188 L94.522,32.648 L85.436,32.648 Z M91.036,33.894 L91.932,33.152 C93.15,33.88 94.732,35 95.502,35.784 L94.564,36.624 C93.836,35.854 92.296,34.678 91.036,33.894 Z M87.592,33.138 L88.81,33.558 C87.914,34.776 86.5,35.938 85.226,36.652 C85.044,36.414 84.596,35.896 84.33,35.672 C85.562,35.084 86.836,34.132 87.592,33.138 Z M87.508,38.416 L92.758,38.416 C91.778,37.786 90.896,37.058 90.042,36.148 C89.314,36.988 88.446,37.758 87.508,38.416 Z M87.34,41.524 L92.632,41.524 L92.632,39.564 L87.34,39.564 L87.34,41.524 Z M89.832,34.398 L90.966,34.888 C90.896,35.014 90.812,35.126 90.728,35.238 C92.296,36.946 94.214,38.01 96.426,38.836 C96.118,39.116 95.768,39.55 95.586,39.914 C95.026,39.676 94.48,39.396 93.962,39.13 L93.962,43.064 L92.632,43.064 L92.632,42.672 L87.34,42.672 L87.34,43.106 L86.066,43.106 L86.066,39.298 C85.52,39.592 84.946,39.872 84.372,40.096 C84.19,39.774 83.84,39.326 83.546,39.046 C86.108,38.136 88.53,36.47 89.832,34.398 Z" id="网站内容" fill="#666666"></path>
            <path d="M490.149,42 C490.331,38.234 490.989,35.826 492.977,33.054 L488.133,33.054 L488.133,31.696 L494.769,31.696 L494.769,32.676 C492.347,35.7 491.969,37.968 491.801,42 L490.149,42 Z M499.417,42.182 C497.387,42.182 496.085,40.39 496.085,36.806 C496.085,33.236 497.387,31.5 499.417,31.5 C501.433,31.5 502.749,33.25 502.749,36.806 C502.749,40.39 501.433,42.182 499.417,42.182 Z M499.417,40.908 C500.467,40.908 501.209,39.788 501.209,36.806 C501.209,33.852 500.467,32.774 499.417,32.774 C498.367,32.774 497.625,33.852 497.625,36.806 C497.625,39.788 498.367,40.908 499.417,40.908 Z M506.319,38.024 C504.877,38.024 503.911,36.82 503.911,34.748 C503.911,32.676 504.877,31.5 506.319,31.5 C507.761,31.5 508.741,32.676 508.741,34.748 C508.741,36.82 507.761,38.024 506.319,38.024 Z M506.319,37.072 C507.047,37.072 507.565,36.33 507.565,34.748 C507.565,33.152 507.047,32.452 506.319,32.452 C505.605,32.452 505.087,33.152 505.087,34.748 C505.087,36.33 505.605,37.072 506.319,37.072 Z M506.641,42.182 L512.283,31.5 L513.305,31.5 L507.649,42.182 L506.641,42.182 Z M513.641,42.182 C512.199,42.182 511.219,40.992 511.219,38.92 C511.219,36.848 512.199,35.672 513.641,35.672 C515.069,35.672 516.049,36.848 516.049,38.92 C516.049,40.992 515.069,42.182 513.641,42.182 Z M513.641,41.244 C514.355,41.244 514.873,40.502 514.873,38.92 C514.873,37.324 514.355,36.624 513.641,36.624 C512.913,36.624 512.395,37.324 512.395,38.92 C512.395,40.502 512.913,41.244 513.641,41.244 Z" id="70%" fill="#666666"></path>
            <path d="M371.199,86.182 C369.575,86.182 368.553,85.524 367.825,84.81 L368.595,83.76 C369.183,84.348 369.925,84.866 371.003,84.866 C372.165,84.866 373.047,84.04 373.047,82.668 C373.047,81.296 372.263,80.512 371.087,80.512 C370.429,80.512 370.037,80.708 369.435,81.1 L368.651,80.582 L368.959,75.696 L374.181,75.696 L374.181,77.054 L370.359,77.054 L370.121,79.7 C370.555,79.476 370.975,79.336 371.535,79.336 C373.257,79.336 374.671,80.358 374.671,82.612 C374.671,84.894 373.005,86.182 371.199,86.182 Z M379.431,86.182 C377.499,86.182 376.071,85.034 376.071,83.438 C376.071,82.08 376.967,81.17 377.919,80.666 L377.919,80.596 C377.149,80.05 376.533,79.28 376.533,78.188 C376.533,76.578 377.779,75.528 379.473,75.528 C381.265,75.528 382.385,76.648 382.385,78.258 C382.385,79.308 381.671,80.204 381.027,80.68 L381.027,80.75 C381.951,81.282 382.763,82.08 382.763,83.48 C382.763,85.006 381.419,86.182 379.431,86.182 Z M380.103,80.274 C380.719,79.7 381.027,79.042 381.027,78.356 C381.027,77.404 380.453,76.69 379.445,76.69 C378.605,76.69 377.975,77.264 377.975,78.188 C377.975,79.308 378.955,79.826 380.103,80.274 Z M379.459,85.02 C380.509,85.02 381.237,84.404 381.237,83.438 C381.237,82.178 380.103,81.702 378.703,81.128 C377.989,81.618 377.499,82.388 377.499,83.284 C377.499,84.306 378.353,85.02 379.459,85.02 Z M386.319,82.024 C384.877,82.024 383.911,80.82 383.911,78.748 C383.911,76.676 384.877,75.5 386.319,75.5 C387.761,75.5 388.741,76.676 388.741,78.748 C388.741,80.82 387.761,82.024 386.319,82.024 Z M386.319,81.072 C387.047,81.072 387.565,80.33 387.565,78.748 C387.565,77.152 387.047,76.452 386.319,76.452 C385.605,76.452 385.087,77.152 385.087,78.748 C385.087,80.33 385.605,81.072 386.319,81.072 Z M386.641,86.182 L392.283,75.5 L393.305,75.5 L387.649,86.182 L386.641,86.182 Z M393.641,86.182 C392.199,86.182 391.219,84.992 391.219,82.92 C391.219,80.848 392.199,79.672 393.641,79.672 C395.069,79.672 396.049,80.848 396.049,82.92 C396.049,84.992 395.069,86.182 393.641,86.182 Z M393.641,85.244 C394.355,85.244 394.873,84.502 394.873,82.92 C394.873,81.324 394.355,80.624 393.641,80.624 C392.913,80.624 392.395,81.324 392.395,82.92 C392.395,84.502 392.913,85.244 393.641,85.244 Z" id="58%" fill="#666666"></path>
            <path d="M351.199,130.182 C349.575,130.182 348.553,129.524 347.825,128.81 L348.595,127.76 C349.183,128.348 349.925,128.866 351.003,128.866 C352.165,128.866 353.047,128.04 353.047,126.668 C353.047,125.296 352.263,124.512 351.087,124.512 C350.429,124.512 350.037,124.708 349.435,125.1 L348.651,124.582 L348.959,119.696 L354.181,119.696 L354.181,121.054 L350.359,121.054 L350.121,123.7 C350.555,123.476 350.975,123.336 351.535,123.336 C353.257,123.336 354.671,124.358 354.671,126.612 C354.671,128.894 353.005,130.182 351.199,130.182 Z M356.631,130 L356.631,128.67 L358.885,128.67 L358.885,121.502 L357.037,121.502 L357.037,120.48 C358.003,120.298 358.689,120.06 359.277,119.696 L360.495,119.696 L360.495,128.67 L362.511,128.67 L362.511,130 L356.631,130 Z M366.319,126.024 C364.877,126.024 363.911,124.82 363.911,122.748 C363.911,120.676 364.877,119.5 366.319,119.5 C367.761,119.5 368.741,120.676 368.741,122.748 C368.741,124.82 367.761,126.024 366.319,126.024 Z M366.319,125.072 C367.047,125.072 367.565,124.33 367.565,122.748 C367.565,121.152 367.047,120.452 366.319,120.452 C365.605,120.452 365.087,121.152 365.087,122.748 C365.087,124.33 365.605,125.072 366.319,125.072 Z M366.641,130.182 L372.283,119.5 L373.305,119.5 L367.649,130.182 L366.641,130.182 Z M373.641,130.182 C372.199,130.182 371.219,128.992 371.219,126.92 C371.219,124.848 372.199,123.672 373.641,123.672 C375.069,123.672 376.049,124.848 376.049,126.92 C376.049,128.992 375.069,130.182 373.641,130.182 Z M373.641,129.244 C374.355,129.244 374.873,128.502 374.873,126.92 C374.873,125.324 374.355,124.624 373.641,124.624 C372.913,124.624 372.395,125.324 372.395,126.92 C372.395,128.502 372.913,129.244 373.641,129.244 Z" id="51%" fill="#666666"></path>
            <path d="M340.351,169.982 L343.179,169.982 L343.179,167.28 C343.179,166.72 343.235,165.852 343.263,165.292 L343.207,165.292 C342.955,165.81 342.675,166.342 342.381,166.874 L340.351,169.982 Z M346.007,169.982 L346.007,171.228 L344.691,171.228 L344.691,174 L343.179,174 L343.179,171.228 L338.727,171.228 L338.727,170.15 L342.829,163.696 L344.691,163.696 L344.691,169.982 L346.007,169.982 Z M350.431,174.182 C348.499,174.182 347.071,173.034 347.071,171.438 C347.071,170.08 347.967,169.17 348.919,168.666 L348.919,168.596 C348.149,168.05 347.533,167.28 347.533,166.188 C347.533,164.578 348.779,163.528 350.473,163.528 C352.265,163.528 353.385,164.648 353.385,166.258 C353.385,167.308 352.671,168.204 352.027,168.68 L352.027,168.75 C352.951,169.282 353.763,170.08 353.763,171.48 C353.763,173.006 352.419,174.182 350.431,174.182 Z M351.103,168.274 C351.719,167.7 352.027,167.042 352.027,166.356 C352.027,165.404 351.453,164.69 350.445,164.69 C349.605,164.69 348.975,165.264 348.975,166.188 C348.975,167.308 349.955,167.826 351.103,168.274 Z M350.459,173.02 C351.509,173.02 352.237,172.404 352.237,171.438 C352.237,170.178 351.103,169.702 349.703,169.128 C348.989,169.618 348.499,170.388 348.499,171.284 C348.499,172.306 349.353,173.02 350.459,173.02 Z M357.319,170.024 C355.877,170.024 354.911,168.82 354.911,166.748 C354.911,164.676 355.877,163.5 357.319,163.5 C358.761,163.5 359.741,164.676 359.741,166.748 C359.741,168.82 358.761,170.024 357.319,170.024 Z M357.319,169.072 C358.047,169.072 358.565,168.33 358.565,166.748 C358.565,165.152 358.047,164.452 357.319,164.452 C356.605,164.452 356.087,165.152 356.087,166.748 C356.087,168.33 356.605,169.072 357.319,169.072 Z M357.641,174.182 L363.283,163.5 L364.305,163.5 L358.649,174.182 L357.641,174.182 Z M364.641,174.182 C363.199,174.182 362.219,172.992 362.219,170.92 C362.219,168.848 363.199,167.672 364.641,167.672 C366.069,167.672 367.049,168.848 367.049,170.92 C367.049,172.992 366.069,174.182 364.641,174.182 Z M364.641,173.244 C365.355,173.244 365.873,172.502 365.873,170.92 C365.873,169.324 365.355,168.624 364.641,168.624 C363.913,168.624 363.395,169.324 363.395,170.92 C363.395,172.502 363.913,173.244 364.641,173.244 Z" id="48%" fill="#666666"></path>
            <path d="M337.351,213.982 L340.179,213.982 L340.179,211.28 C340.179,210.72 340.235,209.852 340.263,209.292 L340.207,209.292 C339.955,209.81 339.675,210.342 339.381,210.874 L337.351,213.982 Z M343.007,213.982 L343.007,215.228 L341.691,215.228 L341.691,218 L340.179,218 L340.179,215.228 L335.727,215.228 L335.727,214.15 L339.829,207.696 L341.691,207.696 L341.691,213.982 L343.007,213.982 Z M347.711,216.95 C348.607,216.95 349.307,216.138 349.307,214.808 C349.307,213.478 348.719,212.736 347.613,212.736 C347.011,212.736 346.311,213.058 345.695,213.94 C345.863,215.984 346.605,216.95 347.711,216.95 Z M350.637,208.606 L349.755,209.586 C349.377,209.138 348.747,208.816 348.145,208.816 C346.829,208.816 345.737,209.81 345.667,212.75 C346.269,212.008 347.165,211.56 347.907,211.56 C349.643,211.56 350.805,212.624 350.805,214.808 C350.805,216.852 349.405,218.182 347.725,218.182 C345.765,218.182 344.169,216.544 344.169,213.044 C344.169,209.082 346.031,207.5 348.061,207.5 C349.209,207.5 350.049,207.99 350.637,208.606 Z M354.319,214.024 C352.877,214.024 351.911,212.82 351.911,210.748 C351.911,208.676 352.877,207.5 354.319,207.5 C355.761,207.5 356.741,208.676 356.741,210.748 C356.741,212.82 355.761,214.024 354.319,214.024 Z M354.319,213.072 C355.047,213.072 355.565,212.33 355.565,210.748 C355.565,209.152 355.047,208.452 354.319,208.452 C353.605,208.452 353.087,209.152 353.087,210.748 C353.087,212.33 353.605,213.072 354.319,213.072 Z M354.641,218.182 L360.283,207.5 L361.305,207.5 L355.649,218.182 L354.641,218.182 Z M361.641,218.182 C360.199,218.182 359.219,216.992 359.219,214.92 C359.219,212.848 360.199,211.672 361.641,211.672 C363.069,211.672 364.049,212.848 364.049,214.92 C364.049,216.992 363.069,218.182 361.641,218.182 Z M361.641,217.244 C362.355,217.244 362.873,216.502 362.873,214.92 C362.873,213.324 362.355,212.624 361.641,212.624 C360.913,212.624 360.395,213.324 360.395,214.92 C360.395,216.502 360.913,217.244 361.641,217.244 Z" id="46%" fill="#666666"></path>
            <path d="M337.351,257.982 L340.179,257.982 L340.179,255.28 C340.179,254.72 340.235,253.852 340.263,253.292 L340.207,253.292 C339.955,253.81 339.675,254.342 339.381,254.874 L337.351,257.982 Z M343.007,257.982 L343.007,259.228 L341.691,259.228 L341.691,262 L340.179,262 L340.179,259.228 L335.727,259.228 L335.727,258.15 L339.829,251.696 L341.691,251.696 L341.691,257.982 L343.007,257.982 Z M347.711,260.95 C348.607,260.95 349.307,260.138 349.307,258.808 C349.307,257.478 348.719,256.736 347.613,256.736 C347.011,256.736 346.311,257.058 345.695,257.94 C345.863,259.984 346.605,260.95 347.711,260.95 Z M350.637,252.606 L349.755,253.586 C349.377,253.138 348.747,252.816 348.145,252.816 C346.829,252.816 345.737,253.81 345.667,256.75 C346.269,256.008 347.165,255.56 347.907,255.56 C349.643,255.56 350.805,256.624 350.805,258.808 C350.805,260.852 349.405,262.182 347.725,262.182 C345.765,262.182 344.169,260.544 344.169,257.044 C344.169,253.082 346.031,251.5 348.061,251.5 C349.209,251.5 350.049,251.99 350.637,252.606 Z M354.319,258.024 C352.877,258.024 351.911,256.82 351.911,254.748 C351.911,252.676 352.877,251.5 354.319,251.5 C355.761,251.5 356.741,252.676 356.741,254.748 C356.741,256.82 355.761,258.024 354.319,258.024 Z M354.319,257.072 C355.047,257.072 355.565,256.33 355.565,254.748 C355.565,253.152 355.047,252.452 354.319,252.452 C353.605,252.452 353.087,253.152 353.087,254.748 C353.087,256.33 353.605,257.072 354.319,257.072 Z M354.641,262.182 L360.283,251.5 L361.305,251.5 L355.649,262.182 L354.641,262.182 Z M361.641,262.182 C360.199,262.182 359.219,260.992 359.219,258.92 C359.219,256.848 360.199,255.672 361.641,255.672 C363.069,255.672 364.049,256.848 364.049,258.92 C364.049,260.992 363.069,262.182 361.641,262.182 Z M361.641,261.244 C362.355,261.244 362.873,260.502 362.873,258.92 C362.873,257.324 362.355,256.624 361.641,256.624 C360.913,256.624 360.395,257.324 360.395,258.92 C360.395,260.502 360.913,261.244 361.641,261.244 Z" id="46%" fill="#666666"></path>
            <path d="M329.351,301.982 L332.179,301.982 L332.179,299.28 C332.179,298.72 332.235,297.852 332.263,297.292 L332.207,297.292 C331.955,297.81 331.675,298.342 331.381,298.874 L329.351,301.982 Z M335.007,301.982 L335.007,303.228 L333.691,303.228 L333.691,306 L332.179,306 L332.179,303.228 L327.727,303.228 L327.727,302.15 L331.829,295.696 L333.691,295.696 L333.691,301.982 L335.007,301.982 Z M337.331,301.982 L340.159,301.982 L340.159,299.28 C340.159,298.72 340.215,297.852 340.243,297.292 L340.187,297.292 C339.935,297.81 339.655,298.342 339.361,298.874 L337.331,301.982 Z M342.987,301.982 L342.987,303.228 L341.671,303.228 L341.671,306 L340.159,306 L340.159,303.228 L335.707,303.228 L335.707,302.15 L339.809,295.696 L341.671,295.696 L341.671,301.982 L342.987,301.982 Z M346.319,302.024 C344.877,302.024 343.911,300.82 343.911,298.748 C343.911,296.676 344.877,295.5 346.319,295.5 C347.761,295.5 348.741,296.676 348.741,298.748 C348.741,300.82 347.761,302.024 346.319,302.024 Z M346.319,301.072 C347.047,301.072 347.565,300.33 347.565,298.748 C347.565,297.152 347.047,296.452 346.319,296.452 C345.605,296.452 345.087,297.152 345.087,298.748 C345.087,300.33 345.605,301.072 346.319,301.072 Z M346.641,306.182 L352.283,295.5 L353.305,295.5 L347.649,306.182 L346.641,306.182 Z M353.641,306.182 C352.199,306.182 351.219,304.992 351.219,302.92 C351.219,300.848 352.199,299.672 353.641,299.672 C355.069,299.672 356.049,300.848 356.049,302.92 C356.049,304.992 355.069,306.182 353.641,306.182 Z M353.641,305.244 C354.355,305.244 354.873,304.502 354.873,302.92 C354.873,301.324 354.355,300.624 353.641,300.624 C352.913,300.624 352.395,301.324 352.395,302.92 C352.395,304.502 352.913,305.244 353.641,305.244 Z" id="44%" fill="#666666"></path>
            <path d="M311.199,350.182 C309.575,350.182 308.525,349.538 307.839,348.768 L308.623,347.732 C309.225,348.348 309.995,348.866 311.059,348.866 C312.221,348.866 313.019,348.222 313.019,347.158 C313.019,346.01 312.291,345.268 309.967,345.268 L309.967,344.078 C311.997,344.078 312.669,343.308 312.669,342.272 C312.669,341.362 312.067,340.788 311.087,340.774 C310.289,340.788 309.617,341.18 309.029,341.754 L308.189,340.746 C309.001,340.018 309.953,339.5 311.143,339.5 C312.991,339.5 314.293,340.452 314.293,342.16 C314.293,343.35 313.607,344.176 312.515,344.582 L312.515,344.652 C313.705,344.946 314.643,345.842 314.643,347.228 C314.643,349.09 313.089,350.182 311.199,350.182 Z M319.431,350.182 C317.499,350.182 316.071,349.034 316.071,347.438 C316.071,346.08 316.967,345.17 317.919,344.666 L317.919,344.596 C317.149,344.05 316.533,343.28 316.533,342.188 C316.533,340.578 317.779,339.528 319.473,339.528 C321.265,339.528 322.385,340.648 322.385,342.258 C322.385,343.308 321.671,344.204 321.027,344.68 L321.027,344.75 C321.951,345.282 322.763,346.08 322.763,347.48 C322.763,349.006 321.419,350.182 319.431,350.182 Z M320.103,344.274 C320.719,343.7 321.027,343.042 321.027,342.356 C321.027,341.404 320.453,340.69 319.445,340.69 C318.605,340.69 317.975,341.264 317.975,342.188 C317.975,343.308 318.955,343.826 320.103,344.274 Z M319.459,349.02 C320.509,349.02 321.237,348.404 321.237,347.438 C321.237,346.178 320.103,345.702 318.703,345.128 C317.989,345.618 317.499,346.388 317.499,347.284 C317.499,348.306 318.353,349.02 319.459,349.02 Z M326.319,346.024 C324.877,346.024 323.911,344.82 323.911,342.748 C323.911,340.676 324.877,339.5 326.319,339.5 C327.761,339.5 328.741,340.676 328.741,342.748 C328.741,344.82 327.761,346.024 326.319,346.024 Z M326.319,345.072 C327.047,345.072 327.565,344.33 327.565,342.748 C327.565,341.152 327.047,340.452 326.319,340.452 C325.605,340.452 325.087,341.152 325.087,342.748 C325.087,344.33 325.605,345.072 326.319,345.072 Z M326.641,350.182 L332.283,339.5 L333.305,339.5 L327.649,350.182 L326.641,350.182 Z M333.641,350.182 C332.199,350.182 331.219,348.992 331.219,346.92 C331.219,344.848 332.199,343.672 333.641,343.672 C335.069,343.672 336.049,344.848 336.049,346.92 C336.049,348.992 335.069,350.182 333.641,350.182 Z M333.641,349.244 C334.355,349.244 334.873,348.502 334.873,346.92 C334.873,345.324 334.355,344.624 333.641,344.624 C332.913,344.624 332.395,345.324 332.395,346.92 C332.395,348.502 332.913,349.244 333.641,349.244 Z" id="38%" fill="#666666"></path>
            <path d="M50.59,81.94 L50.59,85.552 L54.104,85.552 L54.104,86.77 L45.746,86.77 L45.746,85.552 L49.274,85.552 L49.274,81.94 L46.278,81.94 L46.278,80.736 L49.274,80.736 L49.274,78.216 L50.59,78.216 L50.59,80.736 L53.572,80.736 L53.572,81.94 L50.59,81.94 Z M47.118,76.298 L54.118,76.298 L54.118,77.544 L46.586,77.544 C46.11,78.538 45.564,79.49 44.92,80.358 L44.92,87.078 L43.618,87.078 L43.618,81.87 C43.17,82.304 42.68,82.724 42.162,83.088 C42.022,82.738 41.728,82.178 41.518,81.87 C43.058,80.82 44.248,79.252 45.116,77.544 L41.896,77.544 L41.896,76.298 L45.676,76.298 C45.97,75.612 46.18,74.926 46.362,74.24 L47.72,74.576 C47.538,75.15 47.342,75.724 47.118,76.298 Z M67.488,75.654 L66.718,76.452 C66.298,76.06 65.472,75.514 64.828,75.164 L65.584,74.478 C66.214,74.772 67.068,75.29 67.488,75.654 Z M57.94,81.842 L60.446,81.394 C60.418,81.73 60.404,82.234 60.432,82.5 C57.002,83.186 56.498,83.326 56.162,83.494 C56.106,83.256 55.91,82.668 55.77,82.346 C56.092,82.262 56.414,81.954 56.834,81.422 C57.086,81.184 57.562,80.568 58.108,79.784 C56.624,79.966 56.288,80.036 56.078,80.148 C56.008,79.896 55.812,79.28 55.658,78.944 C55.924,78.86 56.162,78.566 56.47,78.104 C56.778,77.67 57.758,75.92 58.29,74.296 L59.508,74.884 C58.92,76.228 58.15,77.642 57.338,78.762 L58.85,78.636 C59.158,78.16 59.438,77.642 59.704,77.138 L60.768,77.796 C59.956,79.224 58.948,80.652 57.94,81.842 Z M60.446,83.788 L60.642,84.866 C59.032,85.398 57.352,85.93 56.05,86.336 L55.784,85.104 C56.946,84.81 58.71,84.292 60.446,83.788 Z M67.208,81.114 L68.286,81.604 C67.614,82.682 66.732,83.62 65.696,84.432 C66.074,85.328 66.508,85.832 66.998,85.832 C67.334,85.832 67.474,85.496 67.53,84.306 C67.782,84.614 68.188,84.88 68.468,85.02 C68.258,86.644 67.88,87.092 66.858,87.092 C65.92,87.092 65.192,86.378 64.632,85.188 C63.568,85.888 62.364,86.448 61.118,86.882 C60.936,86.56 60.614,86.112 60.32,85.818 C61.706,85.398 63.036,84.796 64.198,84.054 C63.932,83.214 63.722,82.248 63.568,81.212 L60.978,81.688 L60.782,80.526 L63.4,80.036 C63.344,79.504 63.288,78.958 63.246,78.412 L61.286,78.706 L61.062,77.53 L63.162,77.222 C63.106,76.242 63.078,75.234 63.078,74.226 L64.38,74.226 C64.366,75.192 64.38,76.116 64.436,77.026 L67.6,76.55 L67.824,77.698 L64.506,78.216 C64.548,78.762 64.604,79.294 64.66,79.812 L67.992,79.196 L68.188,80.33 L64.814,80.96 C64.94,81.814 65.108,82.584 65.29,83.242 C66.06,82.612 66.718,81.898 67.208,81.114 Z M70.316,82.444 L70.316,81.17 L81.782,81.17 L81.782,82.444 L75.79,82.444 C75.034,83.438 74.152,84.404 73.242,85.23 L78.94,84.838 C78.478,84.306 77.974,83.788 77.498,83.354 L78.604,82.78 C79.836,83.858 81.124,85.342 81.754,86.378 L80.578,87.092 C80.396,86.77 80.158,86.378 79.85,85.986 C72.71,86.546 71.87,86.588 71.268,86.826 C71.184,86.532 70.988,85.86 70.82,85.496 C71.142,85.426 71.464,85.174 71.884,84.782 C72.248,84.474 73.158,83.536 74.012,82.444 L70.316,82.444 Z M73.256,78.496 L78.954,78.496 C77.834,77.782 76.798,76.956 76.028,76.2 C75.23,77.054 74.292,77.81 73.256,78.496 Z M76.014,74.226 L77.218,74.772 C77.092,74.968 76.938,75.164 76.784,75.36 C78.1,76.592 80.326,77.992 82.482,78.72 C82.202,78.972 81.768,79.504 81.572,79.854 C80.802,79.546 80.032,79.154 79.304,78.72 L79.304,79.7 L72.752,79.7 L72.752,78.818 C72.038,79.252 71.296,79.644 70.512,80.008 C70.33,79.672 69.882,79.112 69.588,78.86 C72.262,77.782 74.726,76.06 76.014,74.226 Z M92.94,77.404 L91.764,77.922 C91.568,77.124 91.022,75.864 90.504,74.898 L91.596,74.45 C92.156,75.388 92.73,76.62 92.94,77.404 Z M87.186,76.76 L86.206,77.53 C85.856,76.9 85.128,75.962 84.512,75.276 L85.45,74.604 C86.052,75.262 86.85,76.158 87.186,76.76 Z M86.766,84.306 L88.32,83.242 C88.404,83.578 88.586,84.096 88.712,84.348 C86.304,86.084 85.814,86.462 85.59,86.742 L85.59,86.798 L85.576,86.77 L85.562,86.784 L85.548,86.714 C85.38,86.434 85.072,86.056 84.848,85.874 C85.128,85.636 85.506,85.132 85.506,84.376 L85.506,79.812 L83.686,79.812 L83.686,78.566 L86.766,78.566 L86.766,84.306 Z M94.536,75.08 L95.838,75.276 C95.292,78.44 94.48,81.282 92.786,83.55 C93.78,84.586 94.998,85.398 96.496,85.93 C96.188,86.196 95.796,86.728 95.586,87.064 C94.088,86.462 92.884,85.636 91.904,84.6 C90.938,85.594 89.776,86.434 88.306,87.106 C88.124,86.826 87.76,86.35 87.494,86.112 C88.978,85.468 90.154,84.628 91.078,83.62 C89.552,81.562 88.656,78.874 88.054,75.598 L89.272,75.416 C89.776,78.23 90.588,80.666 91.946,82.542 C93.402,80.47 94.102,77.894 94.536,75.08 Z" id="在线会议" fill="#666666"></path>
            <path d="M43.352,120.34 L43.352,121.306 L42.148,121.306 L42.148,119.248 L47.3,119.248 C47.16,118.996 47.02,118.758 46.908,118.534 L48.014,118.17 C48.238,118.492 48.476,118.898 48.672,119.248 L53.908,119.248 L53.908,121.306 L52.662,121.306 L52.662,120.34 L43.352,120.34 Z M49.988,122.65 L46.39,122.65 C46.124,122.93 45.858,123.196 45.606,123.434 C46.53,123.588 47.468,123.742 48.364,123.924 C49.036,123.602 49.582,123.168 49.988,122.65 Z M53.838,125.338 L52.774,126.234 C51.682,125.814 50.226,125.408 48.532,125.002 C46.978,125.674 44.948,125.996 42.386,126.192 C42.288,125.842 42.092,125.436 41.91,125.17 C43.73,125.086 45.284,124.904 46.544,124.582 C45.606,124.4 44.612,124.232 43.604,124.078 L43.716,123.952 C44.136,123.588 44.584,123.126 45.018,122.65 L41.91,122.65 L41.91,121.614 L45.914,121.614 C46.264,121.18 46.558,120.774 46.81,120.368 L47.986,120.746 C47.79,121.026 47.566,121.32 47.328,121.614 L54.118,121.614 L54.118,122.65 L51.444,122.65 C51.038,123.294 50.534,123.826 49.904,124.26 C51.43,124.61 52.802,124.974 53.838,125.338 Z M54.258,127.816 L49.624,127.816 C50.884,128.74 52.802,129.51 54.594,129.846 C54.314,130.112 53.95,130.602 53.754,130.938 C51.92,130.462 49.946,129.482 48.616,128.264 L48.616,131.092 L47.314,131.092 L47.314,128.334 C46.012,129.51 44.108,130.462 42.288,130.924 C42.106,130.616 41.756,130.14 41.476,129.874 C43.254,129.524 45.144,128.754 46.348,127.816 L41.784,127.816 L41.784,126.738 L47.314,126.738 L47.314,125.674 L48.616,125.674 L48.616,126.738 L54.258,126.738 L54.258,127.816 Z M57.814,118.268 L58.99,118.618 C58.738,119.472 58.444,120.354 58.094,121.208 L58.094,131.092 L56.876,131.092 L56.876,123.672 C56.61,124.12 56.344,124.512 56.064,124.876 C55.966,124.568 55.672,123.826 55.462,123.504 C56.47,122.202 57.31,120.242 57.814,118.268 Z M59.186,120.186 L59.186,118.968 L63.974,118.968 L63.974,120.186 L61.706,120.186 C61.58,120.816 61.44,121.446 61.286,122.048 L62.812,122.048 L63.022,122.006 L63.778,122.202 C63.344,126.598 61.986,129.538 59.83,131.106 C59.648,130.798 59.284,130.35 59.018,130.098 C59.942,129.496 60.726,128.516 61.328,127.228 C60.936,126.85 60.432,126.416 59.998,126.066 L60.698,125.17 C61.048,125.422 61.454,125.744 61.818,126.052 C62.098,125.198 62.336,124.26 62.49,123.238 L60.922,123.238 C60.53,124.484 60.012,125.59 59.396,126.458 C59.2,126.248 58.71,125.814 58.43,125.632 C59.41,124.33 60.068,122.342 60.474,120.186 L59.186,120.186 Z M65.64,119.808 L65.64,127.648 L64.492,127.648 L64.492,119.808 L65.64,119.808 Z M66.732,118.352 L67.936,118.352 L67.936,129.44 C67.936,130.196 67.768,130.56 67.32,130.756 C66.872,130.966 66.116,131.008 65.01,130.994 C64.954,130.658 64.772,130.084 64.604,129.734 C65.402,129.762 66.172,129.762 66.424,129.762 C66.648,129.748 66.732,129.678 66.732,129.44 L66.732,118.352 Z M73.354,128.236 L73.354,124.386 L71.73,124.386 L71.73,128.236 L73.354,128.236 Z M69.728,120.144 L69.728,118.968 L74.684,118.968 L74.684,120.144 L72.584,120.144 C72.374,121.208 72.108,122.244 71.772,123.224 L74.474,123.224 L74.474,129.384 L71.73,129.384 L71.73,130.462 L70.638,130.462 L70.638,125.73 C70.428,126.08 70.218,126.402 69.98,126.696 C69.91,126.36 69.644,125.576 69.462,125.226 C70.386,123.98 70.988,122.132 71.352,120.144 L69.728,120.144 Z M77.694,123.952 L79.668,123.952 L79.668,120.2 L77.694,120.2 L77.694,123.952 Z M82.426,123.952 L82.426,125.184 L80.914,125.184 L80.914,131.106 L79.668,131.106 L79.668,125.184 L77.68,125.184 C77.61,127.284 77.246,129.608 75.734,131.176 C75.51,130.966 75.034,130.588 74.74,130.42 C76.07,129.034 76.392,126.976 76.462,125.184 L75.02,125.184 L75.02,123.952 L76.476,123.952 L76.476,120.2 L75.398,120.2 L75.398,118.982 L82.146,118.982 L82.146,120.2 L80.914,120.2 L80.914,123.952 L82.426,123.952 Z M85.38,120.83 L85.38,122.202 L84.078,122.202 L84.078,119.696 L89.356,119.696 C89.202,119.304 88.992,118.842 88.81,118.478 L90.182,118.128 C90.462,118.604 90.756,119.234 90.952,119.696 L95.936,119.696 L95.936,122.104 L94.578,122.104 L94.578,120.83 L85.38,120.83 Z M90.784,121.922 L91.652,121.222 C92.996,121.81 94.76,122.748 95.67,123.42 L94.746,124.218 C93.892,123.546 92.156,122.552 90.784,121.922 Z M85.24,124.218 L84.4,123.266 C85.646,122.846 87.214,122.076 88.348,121.222 L89.384,121.824 C88.18,122.79 86.584,123.686 85.24,124.218 Z M93.794,129.636 L94.816,129.636 C95.166,129.636 95.222,129.37 95.264,127.606 C95.544,127.83 96.104,128.054 96.454,128.138 C96.342,130.308 96.006,130.882 94.942,130.882 L93.57,130.882 C92.408,130.882 92.058,130.504 92.058,129.16 L92.058,126.122 L89.608,126.122 C89.468,127.928 88.586,129.916 84.652,131.092 C84.456,130.756 84.064,130.294 83.756,130 C87.228,128.992 88.096,127.48 88.264,126.122 L84.722,126.122 L84.722,124.918 L88.306,124.918 L88.306,123.672 L89.636,123.672 L89.636,124.918 L93.388,124.918 L93.388,129.146 C93.388,129.566 93.444,129.636 93.794,129.636 Z" id="案例研究" fill="#666666"></path>
            <path d="M51.248,172.824 L58.71,172.824 L58.71,169.856 L51.248,169.856 L51.248,172.824 Z M58.71,165.698 L51.248,165.698 L51.248,168.568 L58.71,168.568 L58.71,165.698 Z M54.86,164.396 L60.082,164.396 L60.082,175.05 L58.71,175.05 L58.71,174.126 L51.248,174.126 L51.248,175.106 L49.946,175.106 L49.946,164.396 L53.39,164.396 C53.67,163.696 53.936,162.842 54.076,162.198 L55.742,162.464 C55.462,163.122 55.154,163.808 54.86,164.396 Z M72.332,168.89 L67.698,168.89 C68.258,169.996 69.028,170.948 69.994,171.732 C70.988,170.976 71.772,170.038 72.332,168.89 Z M65.332,167.672 L68.72,167.672 L68.72,165.334 L65.332,165.334 L65.332,167.672 Z M73.228,167.63 L74.096,168.092 C73.466,169.94 72.43,171.382 71.1,172.488 C72.318,173.174 73.746,173.65 75.412,173.93 C75.146,174.224 74.768,174.784 74.586,175.162 C72.752,174.784 71.212,174.182 69.938,173.328 C68.608,174.14 67.082,174.714 65.472,175.092 C65.346,174.742 64.982,174.154 64.716,173.888 C66.242,173.58 67.642,173.132 68.846,172.474 C67.782,171.494 66.97,170.318 66.34,168.89 L65.29,168.89 C65.178,170.92 64.772,173.356 63.484,175.05 C63.26,174.798 62.714,174.364 62.42,174.21 C63.876,172.278 64.016,169.506 64.016,167.504 L64.016,164.088 L68.72,164.088 L68.72,162.254 L70.05,162.254 L70.05,164.088 L73.788,164.088 L74.012,164.032 L75.02,164.284 C74.656,165.348 74.18,166.538 73.76,167.294 L72.556,166.958 C72.78,166.524 73.018,165.936 73.228,165.334 L70.05,165.334 L70.05,167.672 L72.99,167.672 L73.228,167.63 Z M89.328,164.48 L88.516,165.474 C87.942,164.928 86.738,164.06 85.828,163.472 L86.584,162.604 C87.48,163.136 88.712,163.962 89.328,164.48 Z M83.014,165.894 L83.014,168.386 L85.94,168.386 L85.94,165.894 L83.014,165.894 Z M87.242,168.386 L89.258,168.386 C89.258,168.386 89.23,168.75 89.202,168.946 C88.992,171.718 88.782,172.866 88.334,173.314 C88.012,173.65 87.662,173.748 87.13,173.79 C86.682,173.818 85.842,173.818 84.974,173.776 C84.946,173.412 84.792,172.88 84.54,172.53 C85.408,172.614 86.29,172.628 86.64,172.628 C86.92,172.628 87.074,172.614 87.242,172.488 C87.522,172.25 87.69,171.424 87.83,169.618 L83.014,169.618 L83.014,175.064 L81.684,175.064 L81.684,169.618 L76.896,169.618 L76.896,168.386 L81.684,168.386 L81.684,165.894 L77.736,165.894 L77.736,164.648 L81.684,164.648 L81.684,162.296 L83.014,162.296 L83.014,164.648 L87.242,164.648 L87.242,168.386 Z" id="白皮书" fill="#666666"></path>
            <path d="M52.494,210.3 L50.646,210.3 L50.646,210.972 L52.494,210.972 L52.494,210.3 Z M50.646,212.47 L52.494,212.47 L52.494,211.798 L50.646,211.798 L50.646,212.47 Z M47.594,212.47 L49.47,212.47 L49.47,211.798 L47.594,211.798 L47.594,212.47 Z M49.47,210.3 L47.594,210.3 L47.594,210.972 L49.47,210.972 L49.47,210.3 Z M49.47,209.39 L49.47,208.704 L45.816,208.704 L45.816,207.682 L49.47,207.682 L49.47,206.268 L50.646,206.268 L50.646,207.682 L52.76,207.682 C52.298,207.444 51.724,207.178 51.262,206.968 L51.78,206.226 C52.396,206.478 53.25,206.842 53.698,207.08 L53.334,207.682 L54.286,207.682 L54.286,208.704 L50.646,208.704 L50.646,209.39 L53.67,209.39 L53.67,214.094 L52.494,214.094 L52.494,213.296 L50.646,213.296 L50.646,214.052 L49.47,214.052 L49.47,213.296 L47.594,213.296 L47.594,214.22 L46.474,214.22 L46.474,209.39 L49.47,209.39 Z M45.914,211.028 L44.472,211.028 L44.472,219.092 L43.198,219.092 L43.198,211.028 L41.574,211.028 L41.574,209.838 L43.198,209.838 L43.198,206.268 L44.472,206.268 L44.472,209.838 L45.914,209.838 L45.914,211.028 Z M54.384,214.822 L54.384,215.886 L52.536,215.886 L52.536,217.832 C52.536,218.42 52.424,218.728 51.99,218.896 C51.556,219.05 50.912,219.064 49.96,219.064 C49.904,218.742 49.736,218.308 49.596,218.014 C50.268,218.028 50.898,218.028 51.08,218.014 C51.276,218.014 51.318,217.958 51.318,217.804 L51.318,215.886 L47.566,215.886 C48.238,216.334 49.106,216.964 49.582,217.356 L48.826,218.238 C48.364,217.804 47.482,217.104 46.81,216.6 L47.482,215.886 L45.48,215.886 L45.48,214.822 L51.318,214.822 L51.318,214.136 L52.536,214.136 L52.536,214.822 L54.384,214.822 Z M57.38,208.648 L57.38,210.258 L56.106,210.258 L56.106,207.472 L61.482,207.472 C61.3,207.122 61.104,206.758 60.936,206.436 L62.224,206.128 C62.462,206.52 62.77,207.038 62.98,207.472 L67.894,207.472 L67.894,210.258 L66.578,210.258 L66.578,208.648 L57.38,208.648 Z M59.312,214.808 L64.898,214.808 C63.848,214.5 62.896,214.122 62,213.66 C61.16,214.108 60.264,214.486 59.312,214.808 Z M59.452,217.566 L64.59,217.566 L64.59,215.886 L59.452,215.886 L59.452,217.566 Z M60.208,210.762 L60.124,210.832 C60.628,211.364 61.272,211.84 62.028,212.274 C62.784,211.812 63.442,211.322 63.96,210.762 L60.208,210.762 Z M65.052,209.698 L65.948,210.244 C65.29,211.266 64.366,212.148 63.288,212.89 C64.814,213.52 66.592,213.94 68.496,214.164 C68.216,214.472 67.838,215.046 67.656,215.41 C67.068,215.326 66.494,215.214 65.934,215.074 L65.934,219.064 L64.59,219.064 L64.59,218.644 L59.452,218.644 L59.452,219.092 L58.178,219.092 L58.178,215.158 C57.506,215.354 56.82,215.508 56.148,215.634 C56.036,215.298 55.756,214.78 55.532,214.486 C57.324,214.192 59.186,213.674 60.782,212.918 C60.208,212.512 59.676,212.064 59.2,211.574 C58.626,211.994 57.968,212.386 57.226,212.736 C57.058,212.442 56.652,211.98 56.372,211.77 C58.29,210.986 59.62,209.824 60.32,208.774 L61.706,209.04 C61.538,209.292 61.342,209.516 61.146,209.754 L64.842,209.754 L65.052,209.698 Z M81.656,208.606 L81.656,217.51 C81.656,218.28 81.474,218.672 80.956,218.882 C80.438,219.106 79.57,219.12 78.338,219.12 C78.282,218.756 78.072,218.154 77.89,217.804 C78.8,217.846 79.752,217.846 80.018,217.832 C80.284,217.818 80.368,217.748 80.368,217.496 L80.368,209.866 L76.672,209.866 C76.644,210.412 76.574,210.986 76.448,211.588 C77.736,212.75 79.346,214.29 80.158,215.284 L79.094,216.138 C78.45,215.284 77.204,213.968 76.042,212.848 C75.496,214.122 74.516,215.354 72.794,216.362 C72.626,216.082 72.178,215.62 71.87,215.382 C74.782,213.842 75.258,211.658 75.328,209.866 L71.688,209.866 L71.688,219.134 L70.386,219.134 L70.386,208.606 L75.342,208.606 L75.342,206.254 L76.686,206.254 L76.686,208.606 L81.656,208.606 Z M85.436,208.648 L85.436,210.188 L84.162,210.188 L84.162,207.472 L89.44,207.472 C89.3,207.122 89.132,206.758 88.964,206.436 L90.308,206.142 C90.546,206.534 90.812,207.052 90.98,207.472 L95.838,207.472 L95.838,210.188 L94.522,210.188 L94.522,208.648 L85.436,208.648 Z M91.036,209.894 L91.932,209.152 C93.15,209.88 94.732,211 95.502,211.784 L94.564,212.624 C93.836,211.854 92.296,210.678 91.036,209.894 Z M87.592,209.138 L88.81,209.558 C87.914,210.776 86.5,211.938 85.226,212.652 C85.044,212.414 84.596,211.896 84.33,211.672 C85.562,211.084 86.836,210.132 87.592,209.138 Z M87.508,214.416 L92.758,214.416 C91.778,213.786 90.896,213.058 90.042,212.148 C89.314,212.988 88.446,213.758 87.508,214.416 Z M87.34,217.524 L92.632,217.524 L92.632,215.564 L87.34,215.564 L87.34,217.524 Z M89.832,210.398 L90.966,210.888 C90.896,211.014 90.812,211.126 90.728,211.238 C92.296,212.946 94.214,214.01 96.426,214.836 C96.118,215.116 95.768,215.55 95.586,215.914 C95.026,215.676 94.48,215.396 93.962,215.13 L93.962,219.064 L92.632,219.064 L92.632,218.672 L87.34,218.672 L87.34,219.106 L86.066,219.106 L86.066,215.298 C85.52,215.592 84.946,215.872 84.372,216.096 C84.19,215.774 83.84,215.326 83.546,215.046 C86.108,214.136 88.53,212.47 89.832,210.398 Z" id="博客内容" fill="#666666"></path>
            <path d="M52.59,257.94 L52.59,261.552 L56.104,261.552 L56.104,262.77 L47.746,262.77 L47.746,261.552 L51.274,261.552 L51.274,257.94 L48.278,257.94 L48.278,256.736 L51.274,256.736 L51.274,254.216 L52.59,254.216 L52.59,256.736 L55.572,256.736 L55.572,257.94 L52.59,257.94 Z M49.118,252.298 L56.118,252.298 L56.118,253.544 L48.586,253.544 C48.11,254.538 47.564,255.49 46.92,256.358 L46.92,263.078 L45.618,263.078 L45.618,257.87 C45.17,258.304 44.68,258.724 44.162,259.088 C44.022,258.738 43.728,258.178 43.518,257.87 C45.058,256.82 46.248,255.252 47.116,253.544 L43.896,253.544 L43.896,252.298 L47.676,252.298 C47.97,251.612 48.18,250.926 48.362,250.24 L49.72,250.576 C49.538,251.15 49.342,251.724 49.118,252.298 Z M69.488,251.654 L68.718,252.452 C68.298,252.06 67.472,251.514 66.828,251.164 L67.584,250.478 C68.214,250.772 69.068,251.29 69.488,251.654 Z M59.94,257.842 L62.446,257.394 C62.418,257.73 62.404,258.234 62.432,258.5 C59.002,259.186 58.498,259.326 58.162,259.494 C58.106,259.256 57.91,258.668 57.77,258.346 C58.092,258.262 58.414,257.954 58.834,257.422 C59.086,257.184 59.562,256.568 60.108,255.784 C58.624,255.966 58.288,256.036 58.078,256.148 C58.008,255.896 57.812,255.28 57.658,254.944 C57.924,254.86 58.162,254.566 58.47,254.104 C58.778,253.67 59.758,251.92 60.29,250.296 L61.508,250.884 C60.92,252.228 60.15,253.642 59.338,254.762 L60.85,254.636 C61.158,254.16 61.438,253.642 61.704,253.138 L62.768,253.796 C61.956,255.224 60.948,256.652 59.94,257.842 Z M62.446,259.788 L62.642,260.866 C61.032,261.398 59.352,261.93 58.05,262.336 L57.784,261.104 C58.946,260.81 60.71,260.292 62.446,259.788 Z M69.208,257.114 L70.286,257.604 C69.614,258.682 68.732,259.62 67.696,260.432 C68.074,261.328 68.508,261.832 68.998,261.832 C69.334,261.832 69.474,261.496 69.53,260.306 C69.782,260.614 70.188,260.88 70.468,261.02 C70.258,262.644 69.88,263.092 68.858,263.092 C67.92,263.092 67.192,262.378 66.632,261.188 C65.568,261.888 64.364,262.448 63.118,262.882 C62.936,262.56 62.614,262.112 62.32,261.818 C63.706,261.398 65.036,260.796 66.198,260.054 C65.932,259.214 65.722,258.248 65.568,257.212 L62.978,257.688 L62.782,256.526 L65.4,256.036 C65.344,255.504 65.288,254.958 65.246,254.412 L63.286,254.706 L63.062,253.53 L65.162,253.222 C65.106,252.242 65.078,251.234 65.078,250.226 L66.38,250.226 C66.366,251.192 66.38,252.116 66.436,253.026 L69.6,252.55 L69.824,253.698 L66.506,254.216 C66.548,254.762 66.604,255.294 66.66,255.812 L69.992,255.196 L70.188,256.33 L66.814,256.96 C66.94,257.814 67.108,258.584 67.29,259.242 C68.06,258.612 68.718,257.898 69.208,257.114 Z M78.462,252.046 L78.462,258.276 L77.202,258.276 L77.202,250.912 L83.768,250.912 L83.768,258.276 L82.466,258.276 L82.466,252.046 L78.462,252.046 Z M76.782,258.024 L75.956,259.06 C75.704,258.626 75.228,257.954 74.794,257.366 L74.794,263.106 L73.548,263.106 L73.548,258.038 C73.086,258.542 72.582,258.976 72.106,259.326 C72.008,258.962 71.742,258.276 71.56,258.01 C72.918,257.1 74.276,255.49 75.074,253.796 L71.896,253.796 L71.896,252.62 L74.29,252.62 C74.038,252.116 73.534,251.374 73.086,250.87 L74.08,250.296 C74.598,250.814 75.13,251.528 75.382,252.032 L74.43,252.62 L75.69,252.62 L75.942,252.564 L76.628,253.026 C76.264,254.104 75.718,255.14 75.088,256.092 C75.62,256.666 76.53,257.73 76.782,258.024 Z M81.976,261.944 L82.9,261.944 C83.32,261.944 83.404,261.552 83.446,259.648 C83.754,259.886 84.174,260.054 84.482,260.138 C84.342,262.308 84.174,262.91 82.886,262.91 L81.752,262.91 C80.73,262.91 80.324,262.616 80.324,261.594 L80.324,259.382 C79.708,260.782 78.616,262.112 76.726,263.12 C76.572,262.854 76.138,262.35 75.886,262.154 C79.4,260.334 79.792,257.646 79.792,255.49 L79.792,252.984 L81.038,252.984 L81.038,255.518 C81.038,256.316 80.968,257.226 80.73,258.136 L81.528,258.136 L81.528,261.454 C81.528,261.832 81.64,261.944 81.976,261.944 Z M92.546,253.544 L94.296,253.544 C94.464,253.138 94.646,252.634 94.786,252.186 L92.21,252.186 L92.21,251.052 L98.272,251.052 L98.272,252.186 L96.004,252.186 C95.822,252.648 95.64,253.138 95.486,253.544 L97.922,253.544 L97.922,260.04 L96.774,260.04 L96.774,254.524 L93.638,254.524 L93.638,260.082 L92.546,260.082 L92.546,253.544 Z M90.866,256.582 L92,256.82 C91.23,260.138 89.522,262.07 86.288,263.162 C86.176,262.84 85.896,262.406 85.63,262.154 C87.282,261.678 88.5,260.922 89.368,259.844 L88.36,259.844 L88.36,255.63 L85.56,255.63 L85.56,254.482 L86.526,254.482 L86.526,251.458 L87.562,251.458 L87.562,254.482 L88.654,254.482 L88.654,250.24 L89.802,250.24 L89.802,251.878 L91.72,251.878 L91.72,252.942 L89.802,252.942 L89.802,254.482 L92.042,254.482 L92.042,255.63 L89.55,255.63 L89.55,259.606 C90.152,258.78 90.586,257.786 90.866,256.582 Z M86.764,256.414 L87.842,256.652 C87.534,257.786 87.016,258.99 86.442,259.746 C86.232,259.578 85.77,259.284 85.504,259.144 C86.064,258.444 86.498,257.422 86.764,256.414 Z M94.688,255.14 L95.766,255.14 C95.738,260.222 95.5,262.154 91.874,263.176 C91.776,262.896 91.482,262.462 91.272,262.252 C94.562,261.384 94.674,259.872 94.688,255.14 Z M95.108,260.88 L95.836,260.166 C96.732,260.81 97.936,261.734 98.524,262.336 L97.754,263.148 C97.194,262.532 96.032,261.566 95.108,260.88 Z" id="在线视频" fill="#666666"></path>
            <path d="M49.048,301.828 L48.236,302.906 C47.97,302.514 47.438,301.884 46.962,301.338 L46.962,307.092 L45.702,307.092 L45.702,301.66 C45.128,302.22 44.512,302.71 43.924,303.088 C43.826,302.738 43.546,302.052 43.378,301.8 C44.848,300.946 46.332,299.42 47.228,297.796 L43.77,297.796 L43.77,296.62 L46.416,296.62 C46.164,296.102 45.632,295.318 45.156,294.786 L46.164,294.212 C46.682,294.758 47.242,295.5 47.48,296.004 L46.472,296.62 L47.914,296.62 L48.138,296.564 L48.838,297.054 C48.432,298.09 47.844,299.084 47.172,299.994 C47.732,300.498 48.768,301.534 49.048,301.828 Z M53.276,305.328 L56.412,305.328 L56.412,306.602 L48.418,306.602 L48.418,305.328 L51.946,305.328 L51.946,299.77 L49.048,299.77 L49.048,298.524 L51.946,298.524 L51.946,294.268 L53.276,294.268 L53.276,298.524 L56.104,298.524 L56.104,299.77 L53.276,299.77 L53.276,305.328 Z M70.02,296.116 L70.02,297.376 L57.952,297.376 L57.952,296.116 L63.594,296.116 C63.384,295.64 63.062,295.024 62.768,294.534 L64,294.114 C64.378,294.688 64.826,295.472 65.022,295.962 L64.616,296.116 L70.02,296.116 Z M65.498,298.384 L66.52,297.642 C67.766,298.468 69.348,299.728 70.104,300.596 L69.012,301.45 C68.312,300.582 66.772,299.266 65.498,298.384 Z M61.354,297.684 L62.628,298.174 C61.662,299.364 60.178,300.624 58.96,301.394 C58.736,301.142 58.232,300.652 57.938,300.442 C59.17,299.77 60.542,298.72 61.354,297.684 Z M65.974,300.05 L67.29,300.442 C66.73,301.814 65.974,302.934 65.022,303.858 C66.422,304.838 68.186,305.51 70.342,305.86 C70.062,306.126 69.712,306.658 69.544,307.022 C67.276,306.602 65.47,305.832 64.028,304.698 C62.516,305.832 60.654,306.588 58.498,307.12 C58.358,306.812 57.966,306.238 57.714,305.944 C59.842,305.524 61.648,304.852 63.062,303.844 C62.18,302.906 61.466,301.8 60.906,300.484 L62.082,300.12 C62.53,301.24 63.188,302.22 64.042,303.032 C64.882,302.22 65.526,301.24 65.974,300.05 Z M83.656,296.606 L83.656,305.51 C83.656,306.28 83.474,306.672 82.956,306.882 C82.438,307.106 81.57,307.12 80.338,307.12 C80.282,306.756 80.072,306.154 79.89,305.804 C80.8,305.846 81.752,305.846 82.018,305.832 C82.284,305.818 82.368,305.748 82.368,305.496 L82.368,297.866 L78.672,297.866 C78.644,298.412 78.574,298.986 78.448,299.588 C79.736,300.75 81.346,302.29 82.158,303.284 L81.094,304.138 C80.45,303.284 79.204,301.968 78.042,300.848 C77.496,302.122 76.516,303.354 74.794,304.362 C74.626,304.082 74.178,303.62 73.87,303.382 C76.782,301.842 77.258,299.658 77.328,297.866 L73.688,297.866 L73.688,307.134 L72.386,307.134 L72.386,296.606 L77.342,296.606 L77.342,294.254 L78.686,294.254 L78.686,296.606 L83.656,296.606 Z M87.436,296.648 L87.436,298.188 L86.162,298.188 L86.162,295.472 L91.44,295.472 C91.3,295.122 91.132,294.758 90.964,294.436 L92.308,294.142 C92.546,294.534 92.812,295.052 92.98,295.472 L97.838,295.472 L97.838,298.188 L96.522,298.188 L96.522,296.648 L87.436,296.648 Z M93.036,297.894 L93.932,297.152 C95.15,297.88 96.732,299 97.502,299.784 L96.564,300.624 C95.836,299.854 94.296,298.678 93.036,297.894 Z M89.592,297.138 L90.81,297.558 C89.914,298.776 88.5,299.938 87.226,300.652 C87.044,300.414 86.596,299.896 86.33,299.672 C87.562,299.084 88.836,298.132 89.592,297.138 Z M89.508,302.416 L94.758,302.416 C93.778,301.786 92.896,301.058 92.042,300.148 C91.314,300.988 90.446,301.758 89.508,302.416 Z M89.34,305.524 L94.632,305.524 L94.632,303.564 L89.34,303.564 L89.34,305.524 Z M91.832,298.398 L92.966,298.888 C92.896,299.014 92.812,299.126 92.728,299.238 C94.296,300.946 96.214,302.01 98.426,302.836 C98.118,303.116 97.768,303.55 97.586,303.914 C97.026,303.676 96.48,303.396 95.962,303.13 L95.962,307.064 L94.632,307.064 L94.632,306.672 L89.34,306.672 L89.34,307.106 L88.066,307.106 L88.066,303.298 C87.52,303.592 86.946,303.872 86.372,304.096 C86.19,303.774 85.84,303.326 85.546,303.046 C88.108,302.136 90.53,300.47 91.832,298.398 Z" id="社交内容" fill="#666666"></path>
            <path d="M49.258,350 L49.258,339.696 L51.932,339.696 C55.096,339.696 56.902,341.446 56.902,344.806 C56.902,348.152 55.096,350 52.016,350 L49.258,350 Z M50.882,348.67 L51.82,348.67 C54.032,348.67 55.222,347.368 55.222,344.806 C55.222,342.23 54.032,341.012 51.82,341.012 L50.882,341.012 L50.882,348.67 Z M62.11,350.182 C60.024,350.182 58.358,348.698 58.358,346.164 C58.358,343.658 60.066,342.104 61.872,342.104 C63.916,342.104 65.008,343.574 65.008,345.758 C65.008,346.066 64.98,346.388 64.938,346.57 L59.94,346.57 C60.066,348.04 60.99,348.922 62.32,348.922 C63.006,348.922 63.594,348.712 64.154,348.348 L64.714,349.37 C64,349.846 63.118,350.182 62.11,350.182 Z M59.926,345.464 L63.622,345.464 C63.622,344.134 63.02,343.364 61.9,343.364 C60.934,343.364 60.08,344.106 59.926,345.464 Z M66.814,350 L66.814,342.3 L68.13,342.3 L68.256,343.378 L68.298,343.378 C68.956,342.678 69.726,342.104 70.678,342.104 C71.826,342.104 72.47,342.636 72.806,343.518 C73.562,342.706 74.346,342.104 75.312,342.104 C76.922,342.104 77.678,343.196 77.678,345.156 L77.678,350 L76.068,350 L76.068,345.352 C76.068,344.022 75.648,343.49 74.78,343.49 C74.248,343.49 73.688,343.84 73.044,344.54 L73.044,350 L71.434,350 L71.434,345.352 C71.434,344.022 71.028,343.49 70.146,343.49 C69.628,343.49 69.054,343.84 68.41,344.54 L68.41,350 L66.814,350 Z M83.082,350.182 C81.178,350.182 79.456,348.712 79.456,346.164 C79.456,343.588 81.178,342.104 83.082,342.104 C84.986,342.104 86.708,343.588 86.708,346.164 C86.708,348.712 84.986,350.182 83.082,350.182 Z M83.082,348.866 C84.3,348.866 85.056,347.788 85.056,346.164 C85.056,344.526 84.3,343.434 83.082,343.434 C81.878,343.434 81.122,344.526 81.122,346.164 C81.122,347.788 81.878,348.866 83.082,348.866 Z M90.684,350.182 C89.62,350.182 88.528,349.734 87.786,349.118 L88.542,348.082 C89.228,348.628 89.9,348.964 90.726,348.964 C91.65,348.964 92.084,348.516 92.084,347.928 C92.084,347.228 91.216,346.92 90.376,346.598 C89.354,346.206 88.178,345.66 88.178,344.358 C88.178,343.07 89.214,342.104 90.908,342.104 C91.944,342.104 92.784,342.524 93.414,343.014 L92.658,344.008 C92.126,343.616 91.58,343.336 90.936,343.336 C90.096,343.336 89.704,343.756 89.704,344.288 C89.704,344.946 90.502,345.198 91.342,345.506 C92.42,345.912 93.61,346.388 93.61,347.844 C93.61,349.132 92.588,350.182 90.684,350.182 Z" id="Demos" fill="#666666"></path>
            <rect id="Rectangle" fill="#F77A60" x="117" y="25" width="360" height="24"></rect>
            <rect id="Rectangle" fill="#FFA771" x="117" y="69" width="240" height="24"></rect>
            <rect id="Rectangle" fill="#FCAB5F" x="117" y="113" width="220" height="24"></rect>
            <rect id="Rectangle" fill-opacity="0.6" fill="#FFA771" x="117" y="157" width="211" height="24"></rect>
            <rect id="Rectangle" fill-opacity="0.6" fill="#FCAB5F" x="117" y="201" width="208" height="24"></rect>
            <rect id="Rectangle" fill-opacity="0.6" fill="#FCAB5F" x="117" y="245" width="208" height="24"></rect>
            <rect id="Rectangle" fill="#FFA771" opacity="0.3" x="117" y="289" width="200" height="24"></rect>
            <rect id="Rectangle" fill="#FCAB5F" opacity="0.3" x="117" y="333" width="180" height="24"></rect>
            <polygon id="Path-22" fill="#979797" fill-rule="nonzero" points="116.5 20 117.5 20 117.5 364 116.5 364"></polygon>
        </g>
    </g>
</svg>