<?xml version="1.0" encoding="UTF-8"?>
<svg width="32px" height="32px" viewBox="0 0 32 32" version="1.1" xmlns="http://www.w3.org/2000/svg" xmlns:xlink="http://www.w3.org/1999/xlink">
    <!-- Generator: Sketch 52.5 (67469) - http://www.bohemiancoding.com/sketch -->
    <title>购买保修-默认</title>
    <desc>Created with Sketch.</desc>
    <g id="购买保修-默认" stroke="none" stroke-width="1" fill="none" fill-rule="evenodd">
        <g id="购买记录" transform="translate(3.000000, 3.000000)" fill="#ADB6D7" fill-rule="nonzero">
            <path d="M17.5705663,26 L1.08333333,26 C0.485024854,26 -6.28830321e-13,25.5149751 -6.28830321e-13,24.9166667 C-6.28830321e-13,24.870625 0.008125,24.8272917 0.00866666667,24.7823333 L2.18020833,7.44954167 C2.24683333,6.91491667 2.6975,6.5 3.25,6.5 L7.00104167,6.5 L7.05358333,5.72595833 C7.17708333,2.54854167 9.79279167,6.21724894e-14 13,6.21724894e-14 C16.2072083,6.21724894e-14 18.8229167,2.54854167 18.9469583,5.72595833 L18.9984167,6.5 L22.75,6.5 C23.2952136,6.50095666 23.754137,6.90829468 23.8246667,7.449 L24.7160492,14.5963647 L21.621875,14 L21.41875,14 L21.378125,14 L15.325,15.1666667 C15.121875,15.2055556 15,15.3611111 15,15.5555556 L15,20.6111111 C15,22.8235919 16.0598833,24.6764716 17.5705663,26 Z M13,2.16666667 C10.9395,2.16666667 9.260875,3.81983333 9.21429167,5.86895833 L9.17258333,6.5 L16.8274167,6.5 L16.7873333,5.86895833 C16.739125,3.81983333 15.0605,2.16666667 13,2.16666667 Z M8,11 C8.55228475,11 9,10.5522847 9,10 C9,9.44771525 8.55228475,9 8,9 C7.44771525,9 7,9.44771525 7,10 C7,10.5522847 7.44771525,11 8,11 Z M18,11 C18.5522847,11 19,10.5522847 19,10 C19,9.44771525 18.5522847,9 18,9 C17.4477153,9 17,9.44771525 17,10 C17,10.5522847 17.4477153,11 18,11 Z M26.725,16 C26.896875,16.0333333 27,16.1666667 27,16.3333333 L27,20.6666667 C27,23.9666667 24.25,26.3333333 21.56875,27 L21.43125,27 C18.715625,26.3333333 16,23.9666667 16,20.6666667 L16,16.3333333 C16,16.1666667 16.103125,16.0333333 16.275,16 L21.396875,15 L21.43125,15 L21.603125,15 L26.725,16 Z M21.8534274,20.1622486 C22.0981764,19.4265368 21.917155,18.5989792 21.3694255,18.0893588 C21.0337899,17.7141857 20.5207674,17.5 19.9826517,17.5 C19.7998528,17.5 19.7113374,17.507391 19.5906439,17.5477024 L19.2076532,17.6756206 L20.2922906,18.7624214 C20.4709231,18.9197732 20.4709231,19.205356 20.2922906,19.3843448 L19.875212,19.8022552 C19.7858659,19.8917796 19.676759,19.9378109 19.5655731,19.9378109 C19.4543872,19.9378109 19.3452803,19.8917796 19.2559342,19.8022552 L18.121169,18.6652267 L18.0338463,19.1318772 C17.9138778,19.7729849 18.116045,20.4126809 18.5892198,20.8867995 C18.9315135,21.2684013 19.4445359,21.4825871 19.9826517,21.4825871 C20.2260232,21.4825871 20.4649585,21.4409502 20.6665202,21.3601647 C20.7090862,21.346404 20.737114,21.3432836 20.8168088,21.3432836 C20.9279947,21.3432836 21.0371016,21.389315 21.1264477,21.4788393 L23.1107523,23.3973935 L23.2876553,23.5684299 L24.1274924,22.7269177 L21.9637634,20.6349448 C21.8259361,20.4967861 21.7846247,20.3252977 21.8460666,20.1816475 L21.8534274,20.1622486 Z" id="Combined-Shape"></path>
        </g>
    </g>
</svg>