<?xml version="1.0" encoding="UTF-8"?>
<svg width="32px" height="32px" viewBox="0 0 32 32" version="1.1" xmlns="http://www.w3.org/2000/svg" xmlns:xlink="http://www.w3.org/1999/xlink">
    <!-- Generator: Sketch 52.5 (67469) - http://www.bohemiancoding.com/sketch -->
    <title>会议获客-默认</title>
    <desc>Created with Sketch.</desc>
    <g id="会议获客-默认" stroke="none" stroke-width="1" fill="none" fill-rule="evenodd">
        <path d="M14,5 L14,3 L18,3 L18,5 L30,5 L30,7 L2,7 L2,5 L14,5 Z M12.140874,25 L4,25 L4,8 L28,8 L28,25 L19.859126,25 L25.4856429,28.1258427 L24.5143571,29.8741573 L16,25.1439589 L7.48564293,29.8741573 L6.51435707,28.1258427 L12.140874,25 Z M10,22 L10,17 L8,17 L8,22 L10,22 Z M17,22 L17,14 L15,14 L15,22 L17,22 Z M24,22 L24,11 L22,11 L22,22 L24,22 Z" id="Combined-Shape" fill="#ADB6D7"></path>
    </g>
</svg>