<?xml version="1.0" encoding="UTF-8"?>
<svg width="32px" height="32px" viewBox="0 0 32 32" version="1.1" xmlns="http://www.w3.org/2000/svg" xmlns:xlink="http://www.w3.org/1999/xlink">
    <!-- Generator: Sketch 52.5 (67469) - http://www.bohemiancoding.com/sketch -->
    <title>智能名片-选中</title>
    <desc>Created with Sketch.</desc>
    <g id="智能名片-选中" stroke="none" stroke-width="1" fill="none" fill-rule="evenodd">
        <path d="M27.7590012,5 C28.9949838,5 30,5.98397659 30,7.2009196 L30,24.7990804 C30,26.0160234 28.9949838,27 27.7590012,27 L4.24099877,27 C3.00189499,27 2,26.0129581 2,24.7990804 L2,7.2009196 C2,5.98397659 3.00501616,5 4.24099877,5 L27.7590012,5 Z M9.14289226,16.356246 C7.30102603,17.0935025 6,18.8948158 6,21 L16,21 C16,18.8948158 14.698974,17.0935025 12.8571077,16.356246 C13.5531998,15.8068585 14,14.9556072 14,14 C14,12.3431458 12.6568542,11 11,11 C9.34314575,11 8,12.3431458 8,14 C8,14.9556072 8.44680015,15.8068585 9.14289226,16.356246 Z M18,11 L18,13 L26,13 L26,11 L18,11 Z M18,15 L18,17 L26,17 L26,15 L18,15 Z M18,19 L18,21 L22,21 L22,19 L18,19 Z" id="Combined-Shape" fill="#FF4F25" fill-rule="nonzero"></path>
    </g>
</svg>