<?xml version="1.0" encoding="UTF-8"?>
<svg width="32px" height="32px" viewBox="0 0 32 32" version="1.1" xmlns="http://www.w3.org/2000/svg" xmlns:xlink="http://www.w3.org/1999/xlink">
    <!-- Generator: Sketch 52.5 (67469) - http://www.bohemiancoding.com/sketch -->
    <title>门店管理-默认</title>
    <desc>Created with Sketch.</desc>
    <g id="门店管理-默认" stroke="none" stroke-width="1" fill="none" fill-rule="evenodd">
        <path d="M17.357302,26.7939394 C17.6149061,27.5966888 18.004084,28.3405039 18.4994507,29 L6.08648649,29 C5.32972973,29 4.57297297,28.0545455 4.57297297,27.2666667 L4.57297297,18.4424242 L6.54054054,18.4424242 L6.54054054,26.7939394 L17.357302,26.7939394 Z M6.08648649,5.52121212 C5.48108108,5.52121212 4.87567568,4.89090909 4.87567568,4.26060606 C4.87567568,3.47272727 5.32972973,3 6.08648649,3 L26.0648649,3 C26.8216216,3 27.2756757,3.47272727 27.2756757,4.26060606 C27.2756757,5.04848485 26.8216216,5.52121212 26.0648649,5.52121212 L6.08648649,5.52121212 Z M9.11351351,13.7151515 C9.11351351,15.6060606 7.6,17.3393939 5.48108108,17.3393939 C3.51351351,17.3393939 2,15.6060606 2,13.7151515 L4.42162162,7.0969697 L27.5783784,7.0969697 L30,13.7151515 C30,15.7636364 28.4864865,17.3393939 26.5189189,17.3393939 C24.5513514,17.3393939 23.0378378,15.6060606 23.0378378,13.7151515 C23.0378378,15.7636364 21.5243243,17.3393939 19.5567568,17.3393939 C17.5891892,17.3393939 16.0756757,15.6060606 16.0756757,13.7151515 C16.0756757,15.7636364 14.5621622,17.3393939 12.5945946,17.3393939 C10.627027,17.3393939 9.11351351,15.6060606 9.11351351,13.7151515 Z M24.5,19 C27.5376694,19 30,21.4623306 30,24.5 C30,27.5376694 27.5376694,30 24.5,30 C21.4623306,30 19,27.5376694 19,24.5 C19,21.4623306 21.4623306,19 24.5,19 Z M27.5853659,25.796748 C27.6479675,25.6894309 27.6092141,25.5493225 27.498916,25.4867209 L27.1173442,25.2661247 C27.0308943,25.2184282 26.9861789,25.1170732 27.0100271,25.0186992 C27.0577236,24.8189702 27.0845528,24.6132791 27.0845528,24.398645 C27.0845528,24.2764228 27.0785908,24.1542005 27.0607046,24.0379404 C27.0487805,23.9455285 27.0905149,23.8560976 27.1710027,23.8084011 L27.498916,23.6205962 C27.6092141,23.5579946 27.6449864,23.4178862 27.5823848,23.3105691 L27.1173442,22.5056911 C27.0547425,22.398374 26.9146341,22.3596206 26.8073171,22.4222222 L26.5628726,22.5623306 C26.4734417,22.6130081 26.3631436,22.601084 26.2915989,22.5295393 C26.0233062,22.2701897 25.701355,22.0704607 25.3406504,21.9452575 C25.2482385,21.9124661 25.1886179,21.8260163 25.1886179,21.7306233 L25.1886179,21.4891599 C25.1886179,21.3639566 25.0872629,21.2626016 24.9620596,21.2626016 L24.0319783,21.2626016 C23.9067751,21.2626016 23.8054201,21.3639566 23.8054201,21.4891599 L23.8054201,21.7246612 C23.8054201,21.8200542 23.7457995,21.9094851 23.6533875,21.9392954 C23.2897019,22.0644986 22.9647696,22.2672087 22.6934959,22.5265583 C22.6219512,22.598103 22.5116531,22.6100271 22.4252033,22.5593496 L22.1926829,22.4252033 C22.0853659,22.3626016 21.9452575,22.401355 21.8826558,22.5086721 L21.4176152,23.3135501 C21.3550136,23.4208672 21.3937669,23.5609756 21.501084,23.6235772 L21.8140921,23.8054201 C21.8945799,23.8531165 21.9363144,23.9425474 21.9243902,24.0349593 C21.9065041,24.1542005 21.897561,24.2764228 21.897561,24.398645 C21.897561,24.6162602 21.9243902,24.8249322 21.9750678,25.0276423 C21.998916,25.1260163 21.9542005,25.2303523 21.8647696,25.2810298 L21.501084,25.4926829 C21.3937669,25.5552846 21.3550136,25.695393 21.4176152,25.80271 L21.8826558,26.6075881 C21.9452575,26.7178862 22.0853659,26.7536585 22.1926829,26.6910569 L22.6457995,26.4287263 C22.7262873,26.3810298 22.8276423,26.3899729 22.899187,26.4466125 C23.1257453,26.6224932 23.3821138,26.7596206 23.6593496,26.8550136 C23.7487805,26.8848238 23.8113821,26.9712737 23.8113821,27.0696477 L23.8113821,27.6211382 C23.8113821,27.7463415 23.9127371,27.8476965 24.0379404,27.8476965 L24.9680217,27.8476965 C25.0932249,27.8476965 25.1945799,27.7463415 25.1945799,27.6211382 L25.1945799,27.0636856 C25.1945799,26.9682927 25.2571816,26.8818428 25.3466125,26.8490515 C25.6208672,26.7536585 25.8712737,26.6135501 26.0948509,26.4376694 C26.1663957,26.3810298 26.2677507,26.3720867 26.3482385,26.4197832 L26.8102981,26.6850949 C26.9176152,26.7476965 27.0577236,26.7089431 27.1203252,26.601626 L27.5853659,25.796748 Z M25.6834688,24.5268293 C25.6834688,25.1796748 25.1528455,25.7102981 24.5,25.7102981 C23.8471545,25.7102981 23.3165312,25.1796748 23.3165312,24.5268293 C23.3165312,23.8739837 23.8471545,23.3433604 24.5,23.3433604 C25.1528455,23.3433604 25.6834688,23.8739837 25.6834688,24.5268293 Z" id="Combined-Shape" fill="#ADB6D7" fill-rule="nonzero"></path>
    </g>
</svg>