<?xml version="1.0" encoding="UTF-8"?>
<svg width="32px" height="32px" viewBox="0 0 32 32" version="1.1" xmlns="http://www.w3.org/2000/svg" xmlns:xlink="http://www.w3.org/1999/xlink">
    <!-- Generator: Sketch 52.5 (67469) - http://www.bohemiancoding.com/sketch -->
    <title>机器人-选中</title>
    <desc>Created with Sketch.</desc>
    <g id="机器人-选中" stroke="none" stroke-width="1" fill="none" fill-rule="evenodd">
        <path d="M28,20 L28,27 L4,27 L4,20 L0,20 L0,14 L4,14 L4,7 L28,7 L28,14 L32,14 L32,20 L28,20 Z M7,10 L7,24 L25,24 L25,10 L7,10 Z M13,2 L19,2 L19,6 L13,6 L13,2 Z M12,28 L20,28 L20,30 L12,30 L12,28 Z M12,20 C10.3431458,20 9,18.6568542 9,17 C9,15.3431458 10.3431458,14 12,14 C13.6568542,14 15,15.3431458 15,17 C15,18.6568542 13.6568542,20 12,20 Z M20,20 C18.3431458,20 17,18.6568542 17,17 C17,15.3431458 18.3431458,14 20,14 C21.6568542,14 23,15.3431458 23,17 C23,18.6568542 21.6568542,20 20,20 Z" id="Combined-Shape" fill="#FF4F25"></path>
    </g>
</svg>