<?xml version="1.0" encoding="UTF-8"?>
<svg width="32px" height="32px" viewBox="0 0 32 32" version="1.1" xmlns="http://www.w3.org/2000/svg" xmlns:xlink="http://www.w3.org/1999/xlink">
    <!-- Generator: Sketch 52.5 (67469) - http://www.bohemiancoding.com/sketch -->
    <title>购买保修-选中</title>
    <desc>Created with Sketch.</desc>
    <g id="购买保修-选中" stroke="none" stroke-width="1" fill="none" fill-rule="evenodd">
        <path d="M20.5705663,29 L4.08333333,29 C3.48502485,29 3,28.5149751 3,27.9166667 C3,27.870625 3.008125,27.8272917 3.00866667,27.7823333 L5.18020833,10.4495417 C5.24683333,9.91491667 5.6975,9.5 6.25,9.5 L10.0010417,9.5 L10.0535833,8.72595833 C10.1770833,5.54854167 12.7927917,3 16,3 C19.2072083,3 21.8229167,5.54854167 21.9469583,8.72595833 L21.9984167,9.5 L25.75,9.5 C26.2952136,9.50095666 26.754137,9.90829468 26.8246667,10.449 L27.7160492,17.5963647 L24.621875,17 L24.41875,17 L24.378125,17 L18.325,18.1666667 C18.121875,18.2055556 18,18.3611111 18,18.5555556 L18,23.6111111 C18,25.8235919 19.0598833,27.6764716 20.5705663,29 Z M16,5.16666667 C13.9395,5.16666667 12.260875,6.81983333 12.2142917,8.86895833 L12.1725833,9.5 L19.8274167,9.5 L19.7873333,8.86895833 C19.739125,6.81983333 18.0605,5.16666667 16,5.16666667 Z M11,14 C11.5522847,14 12,13.5522847 12,13 C12,12.4477153 11.5522847,12 11,12 C10.4477153,12 10,12.4477153 10,13 C10,13.5522847 10.4477153,14 11,14 Z M21,14 C21.5522847,14 22,13.5522847 22,13 C22,12.4477153 21.5522847,12 21,12 C20.4477153,12 20,12.4477153 20,13 C20,13.5522847 20.4477153,14 21,14 Z M29.725,19 C29.896875,19.0333333 30,19.1666667 30,19.3333333 L30,23.6666667 C30,26.9666667 27.25,29.3333333 24.56875,30 L24.43125,30 C21.715625,29.3333333 19,26.9666667 19,23.6666667 L19,19.3333333 C19,19.1666667 19.103125,19.0333333 19.275,19 L24.396875,18 L24.43125,18 L24.603125,18 L29.725,19 Z M24.8534274,23.1622486 C25.0981764,22.4265368 24.917155,21.5989792 24.3694255,21.0893588 C24.0337899,20.7141857 23.5207674,20.5 22.9826517,20.5 C22.7998528,20.5 22.7113374,20.507391 22.5906439,20.5477024 L22.2076532,20.6756206 L23.2922906,21.7624214 C23.4709231,21.9197732 23.4709231,22.205356 23.2922906,22.3843448 L22.875212,22.8022552 C22.7858659,22.8917796 22.676759,22.9378109 22.5655731,22.9378109 C22.4543872,22.9378109 22.3452803,22.8917796 22.2559342,22.8022552 L21.121169,21.6652267 L21.0338463,22.1318772 C20.9138778,22.7729849 21.116045,23.4126809 21.5892198,23.8867995 C21.9315135,24.2684013 22.4445359,24.4825871 22.9826517,24.4825871 C23.2260232,24.4825871 23.4649585,24.4409502 23.6665202,24.3601647 C23.7090862,24.346404 23.737114,24.3432836 23.8168088,24.3432836 C23.9279947,24.3432836 24.0371016,24.389315 24.1264477,24.4788393 L26.1107523,26.3973935 L26.2876553,26.5684299 L27.1274924,25.7269177 L24.9637634,23.6349448 C24.8259361,23.4967861 24.7846247,23.3252977 24.8460666,23.1816475 L24.8534274,23.1622486 Z" id="Combined-Shape" fill="#FF4F25" fill-rule="nonzero"></path>
    </g>
</svg>