<?xml version="1.0" encoding="UTF-8"?>
<svg width="32px" height="32px" viewBox="0 0 32 32" version="1.1" xmlns="http://www.w3.org/2000/svg" xmlns:xlink="http://www.w3.org/1999/xlink">
    <!-- Generator: Sketch 52.5 (67469) - http://www.bohemiancoding.com/sketch -->
    <title>品牌管理-选中</title>
    <desc>Created with Sketch.</desc>
    <g id="品牌管理-选中" stroke="none" stroke-width="1" fill="none" fill-rule="evenodd">
        <g id="品牌-标志-brand-2" transform="translate(2.000000, 2.000000)" fill="#FF4F25" fill-rule="nonzero">
            <path d="M15.8666667,7.46666667 L9.33333333,7.46666667 L9.33333333,13.0666667 C9.33333333,13.0666667 14.3173333,13.0666667 15.8666667,13.0666667 C17.416,13.0666667 18.6666667,11.816 18.6666667,10.2666667 C18.6666667,8.71733333 17.416,7.46666667 15.8666667,7.46666667 Z M14,0 C6.272,0 0,6.272 0,14 C0,21.728 6.272,28 14,28 C21.728,28 28,21.728 28,14 C28,6.272 21.728,0 14,0 Z M20.2346667,20.9253333 C20.496,21.3733333 20.272,21.9333333 19.8426667,22.1946667 C19.3946667,22.456 18.704,22.3066667 18.4426667,21.8586667 L14.7093333,15.4 C14.6471111,15.3004444 14.544,15.1448889 14.4,14.9333333 C11.0222222,14.9333333 9.33333333,14.9333333 9.33333333,14.9333333 L9.33333333,21.4666667 C9.33333333,21.9893333 8.92266667,22.4 8.4,22.4 C7.87733333,22.4 7.46666667,21.9893333 7.46666667,21.4666667 L7.46666667,6.53333333 C7.46666667,6.01066667 7.87733333,5.6 8.4,5.6 C8.4,5.6 13.9813333,5.6 15.8666667,5.6 C18.4426667,5.6 20.5333333,7.69066667 20.5333333,10.2666667 C20.5333333,12.544 18.8906667,14.448 16.7253333,14.84 L20.2346667,20.9253333 Z" id="Shape"></path>
        </g>
    </g>
</svg>