<?xml version="1.0" encoding="UTF-8"?>
<svg width="32px" height="32px" viewBox="0 0 32 32" version="1.1" xmlns="http://www.w3.org/2000/svg" xmlns:xlink="http://www.w3.org/1999/xlink">
    <!-- Generator: Sketch 52.5 (67469) - http://www.bohemiancoding.com/sketch -->
    <title>官网获客-默认</title>
    <desc>Created with Sketch.</desc>
    <g id="官网获客-默认" stroke="none" stroke-width="1" fill="none" fill-rule="evenodd">
        <path d="M2.5,10.5 L2.5,27.5 L17.3650647,27.5 C16.8015365,26.4340148 16.5,25.2391828 16.5,24 C16.5,19.8578644 19.8578644,16.5 24,16.5 C25.2391828,16.5 26.4340148,16.8015365 27.5,17.3650647 L27.5,10.5 L2.5,10.5 Z M2.5,8.5 L27.5,8.5 L27.5,4.5 L2.5,4.5 L2.5,8.5 Z M25.5,15.5 L4.5,15.5 L4.5,12.5 L25.5,12.5 L25.5,15.5 Z M16.5,19.5 L4.5,19.5 L4.5,16.5 L16.5,16.5 L16.5,19.5 Z M13.5,23.5 L4.5,23.5 L4.5,20.5 L13.5,20.5 L13.5,23.5 Z M5.5,7.5 L3.5,7.5 L3.5,5.5 L5.5,5.5 L5.5,7.5 Z M7.5,7.5 L5.5,7.5 L5.5,5.5 L7.5,5.5 L7.5,7.5 Z M9.5,7.5 L7.5,7.5 L7.5,5.5 L9.5,5.5 L9.5,7.5 Z M24,29.5 C27.0375661,29.5 29.5,27.0375661 29.5,24 C29.5,20.9624339 27.0375661,18.5 24,18.5 C20.9624339,18.5 18.5,20.9624339 18.5,24 C18.5,27.0375661 20.9624339,29.5 24,29.5 Z M25.9700231,22.6288889 C25.9709773,22.6307323 25.971912,22.6325711 25.9728273,22.6344052 C26.0167525,22.709751 26.0469232,22.7916447 26.067659,22.8810741 C26.0926188,22.9887208 26.0947297,23.1004474 26.0812919,23.2040428 C26.0673095,23.3479479 26.0341218,23.4761542 25.9734007,23.5906115 C25.9193495,23.6924961 25.852408,23.7807366 25.771582,23.8500378 C25.763032,23.8574872 25.7543664,23.8647532 25.745587,23.8718318 C25.7410535,23.8852045 25.7363398,23.8989553 25.7314119,23.9131775 C25.7040935,23.9827978 25.6727373,24.0509486 25.6374003,24.1175576 C25.5833491,24.2194422 25.5164077,24.3076827 25.4131221,24.3954319 C25.3734822,24.4261063 25.3382894,24.4539108 25.3076783,24.4787079 C25.3063038,24.4895878 25.3059194,24.5006903 25.3065404,24.5123732 C25.3062662,24.5089897 25.3064542,24.5089656 25.3080534,24.512205 C25.3083075,24.51272 25.3148293,24.520919 25.3316528,24.5358133 C25.345254,24.5478548 25.3832298,24.5692474 25.4484723,24.5943803 C25.5320193,24.6271368 25.6250034,24.6572385 25.7273539,24.6844445 C25.8623063,24.7203165 25.9940984,24.7618788 26.1226815,24.8091418 C26.2766929,24.8657515 26.416527,24.9377441 26.5411303,25.0257941 C26.7162888,25.1495685 26.8421928,25.3215317 26.9152842,25.5367456 C26.9467998,25.6355967 26.9682623,25.7463925 26.9818081,25.8711995 C26.9939421,25.9829983 27,26.0958177 27,26.2095809 C27,26.332689 26.9906549,26.450459 26.9715431,26.5628571 C26.9468311,26.7081908 26.9048807,26.8335059 26.8185608,26.965129 C26.7104749,27.1134504 26.580368,27.1760959 26.3804971,27.234452 C26.266886,27.2676229 26.1328158,27.2982105 25.9768364,27.3270155 C25.8246136,27.3551267 25.6567377,27.3797022 25.4729135,27.4009 C25.293983,27.4215335 25.1140351,27.4390685 24.9330723,27.4535061 C24.7530599,27.4678679 24.5800753,27.4791716 24.4140913,27.4874093 C24.2454833,27.4957772 24.0979295,27.5 23.970834,27.5 C23.8435713,27.5 23.6978121,27.4957668 23.5330436,27.487377 C23.3707251,27.479112 23.2034176,27.4677667 23.0311055,27.4533486 C22.8599811,27.43903 22.6898694,27.4226628 22.520771,27.4042465 C22.349657,27.3856106 22.1936071,27.3658406 22.0524362,27.344875 C21.908436,27.3234892 21.784451,27.3017878 21.6795752,27.2794405 C21.5078877,27.2428568 21.3979521,27.2056993 21.2980847,27.1239978 C21.1151478,26.9805488 21.0569563,26.8002342 21.0165404,26.5049231 C20.9866305,26.2863775 20.997798,26.0285347 21.0440987,25.7341074 C21.0814988,25.4628313 21.2046189,25.2316984 21.4120806,25.0698483 C21.5563252,24.9573167 21.7210471,24.8695065 21.9040084,24.8060494 C22.0502342,24.7553334 22.2015784,24.7102805 22.3580129,24.6708518 C22.4525152,24.6470328 22.5314216,24.6145988 22.599603,24.5725373 C22.6404577,24.5477475 22.6682836,24.5275775 22.6822585,24.5154128 C22.6819792,24.5031647 22.6815907,24.4907143 22.6811116,24.4783414 C22.6472249,24.448297 22.6091787,24.4161697 22.5640153,24.3795315 C22.4760259,24.3040666 22.4075971,24.210644 22.3549491,24.1031344 C22.3245367,24.041031 22.2966657,23.9777015 22.2634206,23.8915213 C22.260894,23.8840916 22.2583696,23.8766129 22.2558473,23.8690851 C22.2076004,23.8273489 22.1628898,23.7791686 22.1190874,23.7239672 C22.0460727,23.6319517 21.9956725,23.5249155 21.9670186,23.426877 C21.9182338,23.2913927 21.8979532,23.1544507 21.9129204,23.0175253 C21.9237961,22.9180309 21.9454482,22.8254213 21.9747799,22.7542317 C21.9883536,22.7176438 22.0044351,22.6822428 22.0228754,22.6480589 C22.0257414,22.525802 22.0353107,22.4040869 22.0514313,22.284054 C22.0711484,22.1294439 22.1060584,21.9666127 22.1557204,21.7950814 C22.2146876,21.5914102 22.3049391,21.4060594 22.4173337,21.2543216 C22.5255124,21.0980599 22.6507239,20.9666666 22.7932842,20.8626087 C22.9218975,20.7687309 23.0560698,20.6933848 23.1955812,20.6375699 C23.3321813,20.5829198 23.4709615,20.5454422 23.6113154,20.525789 C23.7336654,20.5086568 23.853526,20.5 23.970834,20.5 C24.1257008,20.5 24.279371,20.5170271 24.4311897,20.5509662 C24.5772223,20.5836119 24.7159354,20.6280861 24.8469534,20.6845915 C24.9793536,20.741693 25.100027,20.8081435 25.2085497,20.8845131 C25.3240245,20.9657751 25.420473,21.0525631 25.4920693,21.1419875 C25.6386618,21.3188335 25.7472767,21.516349 25.8157609,21.7317145 C25.872623,21.9105316 25.9134724,22.0836451 25.9391094,22.2601019 C25.9546684,22.3821071 25.9649703,22.5050489 25.9700231,22.6288889 Z" id="Combined-Shape" stroke="#ADB6D7" fill="#ADB6D7"></path>
    </g>
</svg>