<?xml version="1.0" encoding="UTF-8"?>
<svg width="32px" height="32px" viewBox="0 0 32 32" version="1.1" xmlns="http://www.w3.org/2000/svg" xmlns:xlink="http://www.w3.org/1999/xlink">
    <!-- Generator: Sketch 52.5 (67469) - http://www.bohemiancoding.com/sketch -->
    <title>经销商管理-默认</title>
    <desc>Created with Sketch.</desc>
    <g id="经销商管理-默认" stroke="none" stroke-width="1" fill="none" fill-rule="evenodd">
        <g id="Group" transform="translate(2.000000, 2.000000)" fill="#ADB6D7" fill-rule="nonzero">
            <path d="M16.5048559,17.9188614 C15.5835671,19.1358432 15.037037,20.6522453 15.037037,22.2962963 C15.037037,23.2425729 15.2180959,24.146561 15.5474599,24.975507 L14.5142487,24.975507 C14.5948834,24.1970867 14.8045336,23.3855422 14.8690414,22.5739976 C14.9658031,21.1993406 15.1270725,21.0337192 14.707772,18.7978312 C14.6271373,18.3340915 14.4981217,17.9697246 14.3852331,17.6881683 C14.2884715,17.4397363 14.8367875,16.8600617 15.3044689,17.1084937 C15.4173575,17.2575529 15.546373,17.4562985 15.5947538,17.5059849 C15.8939143,17.7573576 16.0554831,17.8320996 16.5048559,17.9188614 Z M8.45051811,22.9383646 C8.61178754,23.6505363 8.82143779,24.3461459 9.03108805,25.0086312 L0.370919688,25.0086312 C0.27415803,25.0086312 0.177396372,24.9589448 0.112888601,24.8926963 C0.0322538859,24.8264478 -1.17239551e-13,24.727075 -1.17239551e-13,24.61114 C0.0645077718,21.4643347 0.774093262,20.6693523 2.16101036,19.3278195 C3.0802461,18.4500264 4.17687822,18.2512808 5.46703366,18.019411 L5.49928755,18.019411 C6.03147666,17.9200382 6.67655438,17.8041033 7.35388599,17.6053577 C7.37001293,17.5887955 7.40226682,17.5887955 7.4345207,17.5887955 C7.46677459,17.5887955 8.56340671,16.9594345 8.56340671,16.9594345 C8.56340671,16.9594345 9.01496111,17.3072393 8.88594557,17.5391091 C8.66016837,17.8869139 8.56340671,18.4334643 8.45051811,19.2118846 C8.19248702,20.9674707 8.17636008,21.7293288 8.45051811,22.9383646 Z M11.6597798,26.9464008 C11.6436528,26.9464008 11.6275259,26.9464008 11.595272,26.9132766 L9.57940411,24.859572 C9.4987694,24.7767614 9.46651551,24.5945779 9.53102328,24.4455187 L11.1759715,20.5202931 L10.0793393,18.7978312 C10.0309585,18.7150206 10.0148316,18.5825235 10.0470855,18.4665886 C10.0793393,18.3837779 10.1277202,18.3175294 10.1599741,18.3175294 C10.176101,18.3175294 10.2083549,18.3009672 10.2567357,18.3009672 C10.4986399,18.2512808 11.1275906,17.9697246 11.7081606,17.9697246 C12.2887305,17.9697246 12.8854274,18.267843 13.1112046,18.3009672 C13.1434585,18.3009672 13.1757124,18.3175294 13.1918393,18.3175294 C13.2240932,18.3340915 13.272474,18.3837779 13.3047279,18.4831507 C13.3369818,18.5990856 13.3208549,18.7150206 13.2563471,18.8143934 L12.1758419,20.5368552 L13.8207901,24.4455187 C13.8852979,24.5780158 13.853044,24.7767614 13.7562823,24.8761342 L11.6920336,26.962963 C11.6920336,26.9298387 11.6759067,26.9464008 11.6597798,26.9464008 Z M18.5459844,7.68463981 C18.8040155,8.29743874 18.6104922,9.14210754 18.3202072,10.2683326 C18.2556994,10.5002025 18.2073186,10.7155102 18.1750647,10.8480073 C18.0137953,11.6926761 17.4977331,12.0901673 17.0945595,12.3717235 C15.6592616,16.2141385 13.4821243,16.7110025 11.7565414,16.7110025 C9.43426163,16.7110025 7.45064764,15.1044755 6.37014247,12.4048478 C5.93471501,12.1729779 5.40252589,11.7589246 5.22512952,11.311747 C4.90259066,10.5333267 4.5800518,8.330563 4.95097149,7.61839127 C5.12836786,7.27058647 5.45090672,7.08840301 5.77344558,6.98903021 C5.45090672,5.87936728 5.0316062,4.23971608 6.59591967,1.83820675 C7.46677459,0.529798222 9.53102328,0.331052623 9.80518132,0.347614756 C9.98257769,0.364176889 10.2567357,0.331052623 10.3696243,0.314490489 C10.7566709,-0.03331431 11.3694948,-0.0167521767 12.3048575,0.0163720899 C12.45,0.0163720899 12.5951424,0.0329342232 12.708031,0.0329342232 C13.2079663,0.0329342232 13.8369171,0.430425422 14.5626295,1.24196995 C15.3367227,1.09291075 16.4172279,1.22540782 17.255829,2.28538435 C18.1750647,3.47785795 18.0621761,5.73030808 17.9331606,6.88965741 C18.1589378,7.07184087 18.384715,7.32027287 18.5459844,7.68463981 Z M16.7075129,9.80459287 C16.8042746,9.44022594 17.0300518,8.578995 17.0139248,8.29743874 C16.965544,8.19806594 16.8526554,8.14837954 16.8204015,8.14837954 C16.384974,8.04900674 16.1591968,7.63495341 16.2237046,7.18777581 C16.2559585,6.92278167 16.2882124,6.60810114 16.3204663,6.29342061 C16.1430699,5.92905368 15.9495466,5.49843821 15.9495466,5.53156248 C15.9818005,5.79655661 15.8527849,6.06155074 15.6108808,6.21060994 C14.3852331,6.97246807 12.7725388,6.88965741 11.2082254,6.82340887 C9.75680049,6.75716034 8.38601034,6.70747394 7.56353624,7.28714861 C7.57966319,7.35339714 7.57966319,7.40308354 7.57966319,7.45276994 C7.57966319,7.58526701 7.56353624,7.75088834 7.53128236,7.88338541 C7.46677459,8.31400087 7.0958549,8.61211927 6.66042744,8.59555714 L6.40239635,8.59555714 C6.4185233,9.10898327 6.54753884,10.1358355 6.72493521,10.6161374 C6.82169687,10.7320723 7.12810878,10.9308179 7.25712433,10.9805043 C7.49902847,11.063315 7.70867873,11.2454985 7.78931345,11.4939305 C8.96658028,14.7732329 11.1114637,15.0216649 11.7565414,15.0216649 C13.0466968,15.0216649 14.5142487,14.7566707 15.6270077,11.5104926 C15.6915155,11.3448713 15.8044041,11.1958121 15.9495466,11.0798771 C15.9979274,11.0467529 16.0463082,11.0136286 16.0785621,10.9970665 C16.4333549,10.7486345 16.5139896,10.6823859 16.5462435,10.4836403 C16.5784974,10.3014569 16.6430051,10.069587 16.7075129,9.80459287 Z M22.2962963,16.5925926 C25.4464719,16.5925926 28,19.1461206 28,22.2962963 C28,25.4464719 25.4464719,28 22.2962963,28 C19.1461206,28 16.5925926,25.4464719 16.5925926,22.2962963 C16.5925926,19.1461206 19.1461206,16.5925926 22.2962963,16.5925926 Z M25.495935,23.641072 C25.5608552,23.5297802 25.5206665,23.3844826 25.4062832,23.3195624 L25.0105791,23.0907959 C24.9209274,23.0413329 24.8745559,22.936224 24.8992874,22.8342066 C24.9487504,22.6270802 24.9765733,22.413771 24.9765733,22.1911874 C24.9765733,22.0644384 24.9703904,21.9376895 24.9518418,21.8171234 C24.9394761,21.7212888 24.9827562,21.6285456 25.066225,21.5790826 L25.4062832,21.384322 C25.5206665,21.3194018 25.5577637,21.1741042 25.4928435,21.0628124 L25.0105791,20.2281241 C24.9456589,20.1168323 24.8003613,20.0766436 24.6890696,20.1415638 L24.4355716,20.2868614 C24.3428285,20.3394158 24.2284452,20.3270501 24.1542507,20.2528556 C23.8760213,19.9839004 23.5421459,19.7767741 23.1680819,19.6469337 C23.0722473,19.6129278 23.0104185,19.5232761 23.0104185,19.4243501 L23.0104185,19.1739436 C23.0104185,19.0441032 22.9053096,18.9389943 22.7754692,18.9389943 L21.8109405,18.9389943 C21.6811001,18.9389943 21.5759912,19.0441032 21.5759912,19.1739436 L21.5759912,19.4181672 C21.5759912,19.5170932 21.5141624,19.6098364 21.4183278,19.6407508 C21.0411723,19.7705912 20.7042056,19.980809 20.4228847,20.2497641 C20.3486902,20.3239586 20.2343069,20.3363244 20.1446552,20.2837699 L19.903523,20.1446552 C19.7922313,20.079735 19.6469337,20.1199237 19.5820134,20.2312155 L19.0997491,21.0659038 C19.0348289,21.1771956 19.0750176,21.3224932 19.1863093,21.3874134 L19.5109104,21.5759912 C19.5943792,21.6254542 19.6376593,21.7181973 19.6252936,21.8140319 C19.606745,21.9376895 19.5974706,22.0644384 19.5974706,22.1911874 C19.5974706,22.4168624 19.6252936,22.6332631 19.677848,22.8434809 C19.7025795,22.9454983 19.656208,23.0536987 19.5634648,23.1062531 L19.1863093,23.3257453 C19.0750176,23.3906655 19.0348289,23.5359631 19.0997491,23.6472548 L19.5820134,24.4819432 C19.6469337,24.5963264 19.7922313,24.6334237 19.903523,24.5685035 L20.3734217,24.2964569 C20.4568905,24.2469939 20.5619994,24.2562682 20.6361939,24.3150055 C20.8711432,24.4974004 21.1370069,24.6396065 21.4245107,24.7385326 C21.5172538,24.769447 21.582174,24.8590987 21.582174,24.9611161 L21.582174,25.5330322 C21.582174,25.6628726 21.6872829,25.7679815 21.8171234,25.7679815 L22.7816521,25.7679815 C22.9114925,25.7679815 23.0166014,25.6628726 23.0166014,25.5330322 L23.0166014,24.9549333 C23.0166014,24.8560072 23.0815216,24.7663555 23.1742648,24.7323497 C23.4586771,24.6334237 23.7183579,24.4881261 23.9502158,24.3057312 C24.0244103,24.2469939 24.1295192,24.2377196 24.2129881,24.2871826 L24.692161,24.5623206 C24.8034528,24.6272408 24.9487504,24.5870521 25.0136706,24.4757603 L25.495935,23.641072 Z M23.5235973,22.3241192 C23.5235973,23.0011442 22.9733213,23.5514203 22.2962963,23.5514203 C21.6192713,23.5514203 21.0689953,23.0011442 21.0689953,22.3241192 C21.0689953,21.6470942 21.6192713,21.0968182 22.2962963,21.0968182 C22.9733213,21.0968182 23.5235973,21.6470942 23.5235973,22.3241192 Z" id="Combined-Shape"></path>
        </g>
    </g>
</svg>