<?xml version="1.0" encoding="UTF-8"?>
<svg width="32px" height="32px" viewBox="0 0 32 32" version="1.1" xmlns="http://www.w3.org/2000/svg" xmlns:xlink="http://www.w3.org/1999/xlink">
    <!-- Generator: Sketch 52.5 (67469) - http://www.bohemiancoding.com/sketch -->
    <title>官网获客-选中</title>
    <desc>Created with Sketch.</desc>
    <g id="官网获客-选中" stroke="none" stroke-width="1" fill="none" fill-rule="evenodd">
        <path d="M2,10 L28,10 L28,18.2546893 C26.8661665,17.4638148 25.4872481,17 24,17 C20.1340068,17 17,20.1340068 17,24 C17,25.4872481 17.4638148,26.8661665 18.2546893,28 L2,28 L2,10 Z M2,9 L2,4 L28,4 L28,9 L2,9 Z M24,30 C20.6862915,30 18,27.3137085 18,24 C18,20.6862915 20.6862915,18 24,18 C27.3137085,18 30,20.6862915 30,24 C30,27.3137085 27.3137085,30 24,30 Z M23.970834,21 C23.8771612,21 23.7804338,21.006986 23.6806519,21.0209581 C23.58087,21.0349301 23.4810881,21.0618763 23.3813062,21.1017964 C23.2815242,21.1417166 23.1837787,21.1966068 23.0880695,21.2664671 C22.9923603,21.3363273 22.9058148,21.4271457 22.8284329,21.5389222 C22.7429056,21.6546906 22.67876,21.7864271 22.6359964,21.9341317 C22.5932327,22.0818363 22.5637054,22.2195609 22.5474145,22.3473054 C22.5270508,22.499002 22.5189054,22.6506986 22.5229781,22.8023952 C22.4863235,22.8423154 22.4598507,22.8842315 22.4435598,22.9281437 C22.4272689,22.9680639 22.4160689,23.0159681 22.4099598,23.0718563 C22.4038507,23.1277445 22.4130143,23.1896208 22.4374507,23.257485 C22.4578144,23.3253493 22.4822508,23.3772455 22.5107599,23.4131737 C22.539269,23.4491018 22.5657418,23.4770459 22.5901781,23.497006 C22.6186873,23.5169661 22.6471964,23.5309381 22.6757055,23.5389222 C22.6960692,23.6067864 22.7164328,23.6706587 22.7367965,23.7305389 C22.7571601,23.7824351 22.7795601,23.8333333 22.8039965,23.8832335 C22.8284329,23.9331337 22.856942,23.9720559 22.8895239,24 C22.9587603,24.0558882 23.0218876,24.1107784 23.0789059,24.1646707 C23.1359241,24.2185629 23.168506,24.2914172 23.1766514,24.3832335 C23.1807242,24.4471058 23.1827605,24.50499 23.1827605,24.5568862 C23.1827605,24.6087824 23.1725787,24.6586826 23.152215,24.7065868 C23.1318514,24.754491 23.0992695,24.8023952 23.0544695,24.8502994 C23.0096694,24.8982036 22.9445058,24.9481038 22.8589784,25 C22.7490147,25.0678643 22.62276,25.1197605 22.4802144,25.1556886 C22.3376688,25.1916168 22.2002141,25.2325349 22.0678504,25.2784431 C21.9354866,25.3243513 21.8194138,25.3862275 21.7196319,25.4640719 C21.61985,25.5419162 21.5597772,25.6546906 21.5394135,25.8023952 C21.4986862,26.0618763 21.4895226,26.2734531 21.5119226,26.4371257 C21.5343226,26.6007984 21.5658863,26.6986028 21.6066136,26.7305389 C21.63105,26.750499 21.6901046,26.7704591 21.7837774,26.7904192 C21.8774502,26.8103792 21.9914867,26.8303393 22.1258868,26.8502994 C22.2602869,26.8702595 22.4099598,26.8892216 22.5749054,26.9071856 C22.739851,26.9251497 22.9058148,26.9411178 23.0727968,26.9550898 C23.2397788,26.9690619 23.4016698,26.9800399 23.55847,26.988024 C23.7152701,26.996008 23.8527248,27 23.970834,27 C24.0889432,27 24.2284342,26.996008 24.3893071,26.988024 C24.55018,26.9800399 24.7181801,26.9690619 24.8933076,26.9550898 C25.068435,26.9411178 25.2425443,26.9241517 25.4156353,26.9041916 C25.5887264,26.8842315 25.7455266,26.8612774 25.8860358,26.8353293 C26.026545,26.8093812 26.1446542,26.7824351 26.2403634,26.754491 C26.3360726,26.7265469 26.394109,26.6986028 26.4144726,26.6706587 C26.4429818,26.6267465 26.4643636,26.5628743 26.4786182,26.4790419 C26.4928727,26.3952096 26.5,26.3053892 26.5,26.2095808 C26.5,26.1137725 26.4949091,26.0189621 26.4847273,25.9251497 C26.4745454,25.8313373 26.4592727,25.752495 26.438909,25.6886228 C26.4022545,25.5808383 26.3401453,25.496008 26.2525816,25.4341317 C26.1650179,25.3722555 26.0642178,25.3203593 25.9501813,25.2784431 C25.8361448,25.236527 25.7190538,25.1996008 25.5989082,25.1676647 C25.4787627,25.1357285 25.3677808,25.0998004 25.2659625,25.0598802 C25.151926,25.0159681 25.0633441,24.9660679 25.0002168,24.9101796 C24.9370894,24.8542914 24.890253,24.7954092 24.8597075,24.7335329 C24.8291621,24.6716567 24.811853,24.6097804 24.8077802,24.5479042 C24.8037075,24.4860279 24.8077802,24.4251497 24.8199984,24.3652695 C24.8362893,24.2654691 24.8688712,24.1946108 24.917744,24.1526946 C24.9666167,24.1107784 25.0297441,24.0598802 25.107126,24 C25.1397078,23.9720559 25.1692351,23.9331337 25.1957079,23.8832335 C25.2221806,23.8333333 25.2455988,23.7824351 25.2659625,23.7305389 C25.2863261,23.6706587 25.3066898,23.6067864 25.3270534,23.5389222 C25.3677807,23.5269461 25.4064717,23.50499 25.4431263,23.4730539 C25.4757081,23.4451098 25.5052354,23.4061876 25.5317082,23.3562874 C25.5581809,23.3063872 25.57549,23.239521 25.5836355,23.1556886 C25.591781,23.0918164 25.5907628,23.0379242 25.580581,22.994012 C25.5703991,22.9500998 25.5571627,22.9141717 25.5408718,22.8862275 C25.5245809,22.8542914 25.5021809,22.8283433 25.4736718,22.8083832 C25.4736718,22.6447106 25.4634899,22.4830339 25.4431263,22.3233533 C25.4227626,22.1836327 25.3881444,22.0369261 25.3392716,21.8832335 C25.2903989,21.7295409 25.213017,21.5888224 25.107126,21.4610778 C25.0623259,21.4051896 25.0002168,21.3493014 24.9207985,21.2934132 C24.8413803,21.237525 24.750762,21.1876248 24.6489437,21.1437126 C24.5471254,21.0998004 24.4381799,21.0648703 24.322107,21.0389222 C24.2060342,21.0129741 24.0889432,21 23.970834,21 Z M5,15 L25,15 L25,13 L5,13 L5,15 Z M5,19 L16,19 L16,17 L5,17 L5,19 Z M5,23 L13,23 L13,21 L5,21 L5,23 Z M4,7 L5,7 L5,6 L4,6 L4,7 Z M6,7 L7,7 L7,6 L6,6 L6,7 Z M8,7 L9,7 L9,6 L8,6 L8,7 Z" id="Combined-Shape" fill="#FF4F25"></path>
    </g>
</svg>