<?xml version="1.0" encoding="UTF-8"?>
<svg width="104px" height="70px" viewBox="0 0 104 70" version="1.1" xmlns="http://www.w3.org/2000/svg" xmlns:xlink="http://www.w3.org/1999/xlink">
    <title>培训杰出贡献人物奖</title>
    <defs>
        <linearGradient x1="50%" y1="0%" x2="50%" y2="100%" id="linearGradient-1">
            <stop stop-color="#B67BFF" offset="0%"></stop>
            <stop stop-color="#5C50E6" offset="99.9811346%"></stop>
        </linearGradient>
        <linearGradient x1="50%" y1="0%" x2="50%" y2="100%" id="linearGradient-2">
            <stop stop-color="#D2AEFF" offset="0%"></stop>
            <stop stop-color="#8975FF" offset="100%"></stop>
        </linearGradient>
    </defs>
    <g id="培训杰出贡献人物奖" stroke="none" stroke-width="1" fill="none" fill-rule="evenodd">
        <g id="编组-46" transform="translate(0.000000, 0.000000)" fill-rule="nonzero">
            <path d="M96.384,24.936 L96.6468293,25.6163118 C98.1568105,29.5988209 99.302075,33.7596865 99.6882593,38.047997 L99.7484495,38.8060703 L99.7888068,39.5267005 C99.8251599,40.2963246 99.8386669,41.0687604 99.8156649,41.8417586 L99.7913546,42.4215775 L99.7584699,43.0243712 C99.7065662,43.8281775 99.6216119,44.6318989 99.4937525,45.4306202 L99.3896592,46.0286469 L99.275071,46.6247131 C99.1134544,47.4182621 98.9160248,48.206419 98.6769806,48.9823616 L98.4898041,49.5619217 L98.2858842,50.1368981 C98.0042469,50.9004489 97.6836932,51.6511815 97.3249483,52.3833329 L97.0487401,52.9288726 L96.782205,53.4263169 C95.7823104,55.2382682 94.5358548,56.9168004 93.109914,58.4191128 L92.7166214,58.8244332 L92.2401883,59.2920424 C90.7940033,60.6766373 89.1979806,61.8974193 87.5096861,62.9620649 L86.9435828,63.3111744 L86.2420897,63.7217537 C84.5948183,64.6607635 82.8754886,65.4669745 81.1076748,66.1458369 L80.3471406,66.428997 L79.9253065,66.5780342 L79.5014208,66.7228883 L78.9155737,66.9156749 L78.3259513,67.0989591 L78.3259513,67.0989591 L77.7325215,67.2747748 L77.2951379,67.3958709 L76.8557027,67.5124621 L76.2640646,67.6603851 L75.6679792,67.7983924 L75.6679792,67.7983924 L75.0669346,67.9256262 L74.6135696,68.0146338 L74.1585848,68.0953824 L73.6938276,68.168605 L73.4633208,68.202356 L73.2581538,68.2283843 L72.9299406,68.2667833 L72.6059388,68.3159082 L72.4454406,68.3572389 L72.2868861,68.4007148 L72.1342707,68.457759 L71.9794956,68.5168412 L71.7421216,68.6292973 C71.5084057,68.7486284 71.2854502,68.8876986 71.0713267,69.0385382 L70.8600758,69.1930058 L70.603941,69.39637 L70.355869,69.6170388 L70.0962968,69.8594813 L69.8407199,70.1120062 L69.6561236,70.3028926 L69.4757387,70.5 L67.9609585,70.5 L68.2697595,70.1427877 C68.6872869,69.6715367 69.1286612,69.2216739 69.6019877,68.8083271 L69.9631002,68.5054002 L70.2377654,68.2936439 C70.5172002,68.087551 70.810868,67.8994262 71.1180846,67.7380734 L71.4297921,67.5859707 L71.6974983,67.4778583 C71.8177634,67.4334361 71.9397159,67.3940234 72.0632548,67.3603108 L72.2497401,67.3141034 L72.5356141,67.2665648 L72.8226399,67.2349802 L72.8226399,67.2349802 L73.1101456,67.209561 L73.685098,67.1389847 C74.2590162,67.0607212 74.8299384,66.9601443 75.3988288,66.8439882 L75.9670777,66.7228883 L76.2929333,66.6492904 L76.6190048,66.5730109 L77.1770049,66.4342527 L77.7325215,66.284554 L78.5082206,66.0659881 C78.8519733,65.9648056 79.1943609,65.8583782 79.5352695,65.7472833 L80.0455092,65.5772126 L80.7930173,65.3139425 C82.5311642,64.6817399 84.2258496,63.9239479 85.8520767,63.035318 L86.544767,62.6464509 L87.1039942,62.3151543 C88.7721159,61.3043674 90.35204,60.1410994 91.7855698,58.8143841 L92.2579113,58.3660771 L92.6487432,57.9777939 C94.0545599,56.5499797 95.2906077,54.950055 96.2955438,53.2131761 L96.5900299,52.688039 L96.8694909,52.1583579 C97.2328964,51.447563 97.5594758,50.7188226 97.8493572,49.9753572 L98.0598893,49.4150475 L98.25409,48.8493073 C98.502594,48.0915248 98.7100166,47.3204367 98.8840366,46.5425688 L99.0084086,45.9579986 L99.1212051,45.3698007 C99.2609533,44.5840803 99.3589588,43.7927348 99.4253748,42.9981794 L99.4694224,42.4016987 L99.5095159,41.686487 C99.5486039,40.7321499 99.5325706,39.7752682 99.4897231,38.8199426 C99.2601634,34.2932254 98.1565584,29.8657267 96.6341846,25.6211069 L96.384,24.936 Z M7.615,24.936 L7.36581537,25.6211069 C5.84344164,29.8657267 4.73983656,34.2932254 4.51027688,38.8199426 C4.46742937,39.7752682 4.45139612,40.7321499 4.4904841,41.686487 L4.4904841,41.686487 L4.53057761,42.4016987 L4.57462519,42.9981794 C4.64104116,43.7927348 4.73904672,44.5840803 4.87879489,45.3698007 L4.87879489,45.3698007 L4.9915914,45.9579986 L5.11596338,46.5425688 C5.28998336,47.3204367 5.49740597,48.0915248 5.74590997,48.8493073 L5.74590997,48.8493073 L5.94011071,49.4150475 L6.15064282,49.9753572 C6.44052415,50.7188226 6.76710358,51.447563 7.13050908,52.1583579 L7.13050908,52.1583579 L7.4099701,52.688039 L7.70445623,53.2131761 C8.70939231,54.950055 9.94544009,56.5499797 11.3512568,57.9777939 L11.3512568,57.9777939 L11.7420887,58.3660771 L12.2144302,58.8143841 C13.64796,60.1410994 15.2278841,61.3043674 16.8960058,62.3151543 L16.8960058,62.3151543 L17.455233,62.6464509 L18.1479233,63.035318 C19.7741504,63.9239479 21.4688358,64.6817399 23.2069827,65.3139425 L23.2069827,65.3139425 L23.9544908,65.5772126 L24.4647305,65.7472833 C24.8056391,65.8583782 25.1480267,65.9648056 25.4917794,66.0659881 L25.4917794,66.0659881 L26.2674785,66.284554 L26.8229951,66.4342527 L27.3809952,66.5730109 L27.7070667,66.6492904 L28.0329223,66.7228883 L28.6011712,66.8439882 C29.1700616,66.9601443 29.7409838,67.0607212 30.314902,67.1389847 L30.314902,67.1389847 L30.8898544,67.209561 L31.1773601,67.2349802 L31.1773601,67.2349802 L31.4643859,67.2665648 L31.7502599,67.3141034 L31.9367452,67.3603108 C32.0602841,67.3940234 32.1822366,67.4334361 32.3025017,67.4778583 L32.3025017,67.4778583 L32.5702079,67.5859707 L32.8819154,67.7380734 C33.189132,67.8994262 33.4827998,68.087551 33.7622346,68.2936439 L33.7622346,68.2936439 L34.0368998,68.5054002 L34.3980123,68.8083271 C34.8713388,69.2216739 35.3127131,69.6715367 35.7302405,70.1427877 L35.7302405,70.1427877 L36.0390415,70.5 L34.5242613,70.5 L34.3438764,70.3028926 L34.1592801,70.1120062 L33.9037032,69.8594813 L33.644131,69.6170388 L33.396059,69.39637 L33.1399242,69.1930058 L32.9286733,69.0385382 C32.7145498,68.8876986 32.4915943,68.7486284 32.2578784,68.6292973 L32.2578784,68.6292973 L32.0205044,68.5168412 L31.8657293,68.457759 L31.7131139,68.4007148 L31.5545594,68.3572389 L31.3940612,68.3159082 L31.0700594,68.2667833 L30.7418462,68.2283843 L30.5366792,68.202356 L30.3061724,68.168605 L29.8414152,68.0953824 L29.3864304,68.0146338 L28.9330654,67.9256262 L28.3320208,67.7983924 L28.3320208,67.7983924 L27.7359354,67.6603851 L27.1442973,67.5124621 L26.7048621,67.3958709 L26.2674785,67.2747748 L25.6740487,67.0989591 L25.6740487,67.0989591 L25.0844263,66.9156749 L24.4985792,66.7228883 L24.0746935,66.5780342 L23.6528594,66.428997 L22.8923252,66.1458369 C21.1245114,65.4669745 19.4051817,64.6607635 17.7579103,63.7217537 L17.7579103,63.7217537 L17.0564172,63.3111744 L16.4903139,62.9620649 C14.8020194,61.8974193 13.2059967,60.6766373 11.7598117,59.2920424 L11.7598117,59.2920424 L11.2833786,58.8244332 L10.890086,58.4191128 C9.46414523,56.9168004 8.21768958,55.2382682 7.21779498,53.4263169 L7.21779498,53.4263169 L6.95125994,52.9288726 L6.67505173,52.3833329 C6.31630682,51.6511815 5.99575308,50.9004489 5.71411575,50.1368981 L5.71411575,50.1368981 L5.51019591,49.5619217 L5.32301938,48.9823616 C5.08397519,48.206419 4.88654564,47.4182621 4.72492899,46.6247131 L4.72492899,46.6247131 L4.61034077,46.0286469 L4.50624753,45.4306202 C4.37838811,44.6318989 4.29343378,43.8281775 4.24153014,43.0243712 L4.24153014,43.0243712 L4.20864543,42.4215775 L4.18433507,41.8417586 C4.16133313,41.0687604 4.17484014,40.2963246 4.21119325,39.5267005 L4.21119325,39.5267005 L4.25155053,38.8060703 L4.31174071,38.047997 C4.69792505,33.7596865 5.84318947,29.5988209 7.35317075,25.6163118 L7.35317075,25.6163118 L7.615,24.936 Z M16.5595532,64.2663571 C16.7851649,64.2663571 16.9874524,64.2830896 17.1701589,64.3139804 C18.213406,64.4782216 18.6295103,65.1201034 18.7935901,65.4701374 L18.7935901,65.4701374 L18.8231568,65.5360249 C18.7602136,65.5478089 18.4691599,65.6015293 18.0375475,65.6677128 L18.0375475,65.6677128 L17.8886033,65.6901928 L17.6671444,65.7239795 C17.5139801,65.7465219 17.3502155,65.7689928 17.1785501,65.7907486 L17.1785501,65.7907486 L16.9154639,65.8227656 L16.5481097,65.8665435 L16.5481097,65.8665435 L16.1683415,65.9063169 L15.7815025,65.9407512 L15.391352,65.9734747 L15.391352,65.9734747 L15.0050088,65.999842 L14.6281041,66.0194083 L14.3538508,66.0331219 C14.1742847,66.0412959 14.0018635,66.0474768 13.8402225,66.0513247 L13.8402225,66.0513247 L13.6063006,66.0553045 L13.4307814,66.0569257 C13.2617065,66.0585286 13.1125868,66.0600491 12.9890202,66.0612401 L12.9890202,66.0612401 L12.8741785,66.0623121 L12.7918197,66.0612316 C12.7160519,66.0602186 12.6604049,66.0594201 12.6280101,66.0589434 L12.6280101,66.0589434 L12.5951514,66.0584508 C12.6251939,66.0609191 12.6896929,66.0661841 12.7895035,66.0740762 L12.7895035,66.0740762 L12.870867,66.0804747 L12.9844164,66.0871071 C13.1066112,66.0941845 13.254131,66.1025697 13.4214713,66.1120154 L13.4214713,66.1120154 L13.5952144,66.1218055 L13.8619598,66.1341392 C14.3240541,66.1531811 14.8687986,66.1641135 15.4220536,66.1588579 L15.4220536,66.1588579 L15.7544348,66.1536973 L15.9661099,66.1497744 C17.3726161,66.1178626 18.6682083,65.9747783 18.791194,65.960916 L18.791194,65.960916 L18.715239,66.1466187 C18.2016824,67.2906184 17.0766185,67.8254516 15.6910158,67.811692 L15.6910158,67.811692 L15.4807349,67.8054954 L15.1872245,67.7857862 C13.804761,67.6562897 12.2549442,67.0070791 11.00509,66.0719244 L11.00509,66.0719244 L10.7420257,65.8672426 L11.1112674,65.7262664 C12.5619273,65.1756975 13.6994742,64.7851661 14.6164795,64.5548525 L14.6164795,64.5548525 L14.8411898,64.5006121 L15.1298004,64.4361663 C15.5979392,64.3380003 16.0024322,64.2855212 16.354508,64.270755 L16.354508,64.270755 Z M87.4404468,64.2663571 L87.645492,64.270755 C87.9975678,64.2855212 88.4020608,64.3380003 88.8701996,64.4361663 L89.1588102,64.5006121 L89.3835205,64.5548525 C90.3005258,64.7851661 91.4380727,65.1756975 92.8887326,65.7262664 L93.2579743,65.8672426 L92.99491,66.0719244 C91.7450558,67.0070791 90.195239,67.6562897 88.8127755,67.7857862 L88.5192651,67.8054954 L88.3089842,67.811692 C86.9233815,67.8254516 85.7983176,67.2906184 85.284761,66.1466187 L85.208806,65.960916 C85.3317917,65.9747783 86.6273839,66.1178626 88.0338901,66.1497744 L88.2455652,66.1536973 L88.5779464,66.1588579 C89.1312014,66.1641135 89.6759459,66.1531811 90.1380402,66.1341392 L90.4047856,66.1218055 L90.5785287,66.1120154 C90.745869,66.1025697 90.8933888,66.0941845 91.0155836,66.0871071 L91.129133,66.0804747 L91.2104965,66.0740762 C91.3103071,66.0661841 91.3748061,66.0609191 91.3966133,66.0591288 L91.4048486,66.0584508 L91.3719899,66.0589434 C91.3395951,66.0594201 91.2839481,66.0602186 91.2081803,66.0612316 L91.1258215,66.0623121 L91.0109798,66.0612401 C90.8874132,66.0600491 90.7382935,66.0585286 90.5692186,66.0569257 L90.3936994,66.0553045 L90.1597775,66.0513247 C89.9981365,66.0474768 89.8257153,66.0412959 89.6461492,66.0331219 L89.3718959,66.0194083 L88.9949912,65.999842 L88.608648,65.9734747 L88.608648,65.9734747 L88.2184975,65.9407512 L87.8316585,65.9063169 L87.4518903,65.8665435 L87.4518903,65.8665435 L87.0845361,65.8227656 L86.8214499,65.7907486 C86.6497845,65.7689928 86.4860199,65.7465219 86.3328556,65.7239795 L86.1113967,65.6901928 L85.9624525,65.6677128 C85.5308401,65.6015293 85.2397864,65.5478089 85.1858918,65.5377267 L85.1768432,65.5360249 L85.2064099,65.4701374 C85.3704897,65.1201034 85.786594,64.4782216 86.8298411,64.3139804 C87.0125476,64.2830896 87.2148351,64.2663571 87.4404468,64.2663571 Z M11.4267795,61.1941556 C11.6639093,61.1941556 11.8807384,61.2033085 12.0811541,61.2194689 C12.3735999,61.2449824 12.6240274,61.2938356 12.8446736,61.3540932 L12.8446736,61.3540932 L13.0047655,61.4012382 L13.1871391,61.4694609 C13.5346812,61.6136245 13.7808275,61.802073 13.9586209,61.9983648 L13.9586209,61.9983648 L14.0419745,62.0969956 L14.1351035,62.2298823 C14.2478694,62.4054544 14.3163543,62.5721914 14.3566838,62.7013638 L14.3566838,62.7013638 L14.3819038,62.7907508 L14.3717931,62.7910565 C14.3249838,62.7924252 14.1182663,62.7979763 13.8065826,62.7991967 L13.8065826,62.7991967 L13.5496984,62.7991492 C13.0448073,62.7970144 12.3623395,62.7822116 11.6520324,62.7315396 L11.6520324,62.7315396 L11.4577345,62.7168132 L11.2543276,62.7015349 C9.8983592,62.5920709 8.56371614,62.3367079 8.4368128,62.3120869 L8.4368128,62.3120869 C8.56163033,62.3447467 9.8728227,62.6843815 11.209565,62.8856872 L11.209565,62.8856872 L11.4005757,62.9134558 C12.8059773,63.1245303 14.1676448,63.1801582 14.2913424,63.1848941 L14.2913424,63.1848941 L14.1941761,63.3477878 C13.5526243,64.3447404 12.4195236,64.6839076 11.113603,64.4592405 L11.113603,64.4592405 L10.9060153,64.4190948 L10.6313438,64.3543092 C9.34263085,64.0141787 7.96733731,63.1518362 6.93381199,62.0595901 L6.93381199,62.0595901 L6.71772953,61.8221249 L7.11879383,61.7454176 C8.5594533,61.4734554 9.67428971,61.3036245 10.5683438,61.2309858 L10.5683438,61.2309858 L10.7888182,61.2147495 L11.0115823,61.2031178 L11.0115823,61.2031178 L11.2240761,61.1963485 Z M92.5732205,61.1941556 L92.7759239,61.1963485 L92.9884177,61.2031178 L92.9884177,61.2031178 L93.2111818,61.2147495 L93.4316562,61.2309858 C94.3257103,61.3036245 95.4405467,61.4734554 96.8812062,61.7454176 L97.2822705,61.8221249 L97.066188,62.0595901 C96.0326627,63.1518362 94.6573691,64.0141787 93.3686562,64.3543092 L93.0939847,64.4190948 L92.886397,64.4592405 C91.5804764,64.6839076 90.4473757,64.3447404 89.8058239,63.3477878 L89.7086576,63.1848941 C89.8323552,63.1801582 91.1940227,63.1245303 92.5994243,62.9134558 L92.790435,62.8856872 C94.1271773,62.6843815 95.4383697,62.3447467 95.5548071,62.3142867 L95.5631872,62.3120869 C95.4362839,62.3367079 94.1016408,62.5920709 92.7456724,62.7015349 L92.5422655,62.7168132 L92.3479676,62.7315396 C91.6376605,62.7822116 90.9551927,62.7970144 90.4503016,62.7991492 L90.1934174,62.7991967 C89.8817337,62.7979763 89.6750162,62.7924252 89.6282069,62.7910565 L89.6180962,62.7907508 L89.6433162,62.7013638 C89.6836457,62.5721914 89.7521306,62.4054544 89.8648965,62.2298823 L89.9580255,62.0969956 L90.0413791,61.9983648 C90.2191725,61.802073 90.4653188,61.6136245 90.8128609,61.4694609 L90.9952345,61.4012382 L91.1553264,61.3540932 C91.3759726,61.2938356 91.6264001,61.2449824 91.9188459,61.2194689 C92.1192616,61.2033085 92.3360907,61.1941556 92.5732205,61.1941556 Z M85.9351691,54.9158927 L86.052427,55.2882012 C86.5714408,57.0029389 86.7004667,58.4001982 86.6356905,59.4945418 L86.618915,59.7244129 L86.5894544,59.9954251 C86.4659612,60.9632835 86.1759002,61.6488894 85.8385077,62.1225953 L85.7454076,62.246587 L85.6191978,62.392709 C84.8571348,63.2153656 83.977848,63.1324664 83.5690904,63.0183952 L83.5019608,62.9981194 C83.5599204,62.8756129 84.2233867,61.4640799 84.714376,59.9944261 L84.780187,59.7937741 L84.8774338,59.4943329 C85.066481,58.896875 85.2224652,58.3129621 85.3384622,57.8325513 L85.3930963,57.6013875 L85.4242301,57.4559343 C85.5229048,56.991226 85.5810834,56.6811635 85.5917324,56.6237981 C85.5785763,56.6707441 85.5009501,56.9626286 85.3734866,57.400515 L85.3291706,57.5517621 L85.2492308,57.803508 C85.1078375,58.2415192 84.9262525,58.766641 84.7136055,59.302937 L84.5823629,59.625448 L84.4478402,59.9496952 C84.2192193,60.4873608 83.9716883,61.0071291 83.7528372,61.4465099 L83.6253489,61.699992 L83.5545248,61.8363545 C83.3244968,62.2772983 83.1575087,62.5785811 83.1290483,62.6297156 L83.1247415,62.637441 L83.0042204,62.4198991 C82.2520784,60.9681808 82.515507,59.4914518 83.1303566,58.2159136 C83.7913542,56.870306 84.8323066,55.7117591 85.9351691,54.9158927 Z M18.0648309,54.9158927 C19.1676934,55.7117591 20.2086458,56.870306 20.8696434,58.2159136 C21.484493,59.4914518 21.7479216,60.9681808 20.9957796,62.4198991 L20.9957796,62.4198991 L20.8752585,62.637441 C20.8424913,62.5785811 20.6755032,62.2772983 20.4454752,61.8363545 L20.4454752,61.8363545 L20.3746511,61.699992 L20.2471628,61.4465099 C20.0283117,61.0071291 19.7807807,60.4873608 19.5521598,59.9496952 L19.5521598,59.9496952 L19.4176371,59.625448 L19.2863945,59.302937 C19.0737475,58.766641 18.8921625,58.2415192 18.7507692,57.803508 L18.7507692,57.803508 L18.6708294,57.5517621 L18.6265134,57.400515 C18.4990499,56.9626286 18.4214237,56.6707441 18.4064879,56.61417 L18.408,56.623 L18.4135679,56.6521446 C18.4299979,56.7394966 18.4747077,56.9731243 18.5443878,57.3068936 L18.5757699,57.4559343 L18.6069037,57.6013875 L18.6615378,57.8325513 C18.7775348,58.3129621 18.933519,58.896875 19.1225662,59.4943329 L19.1225662,59.4943329 L19.219813,59.7937741 L19.285624,59.9944261 C19.7766133,61.4640799 20.4400796,62.8756129 20.4980392,62.9981194 L20.4980392,62.9981194 L20.4309096,63.0183952 C20.022152,63.1324664 19.1428652,63.2153656 18.3808022,62.392709 L18.3808022,62.392709 L18.2545924,62.246587 L18.1614923,62.1225953 C17.8240998,61.6488894 17.5340388,60.9632835 17.4105456,59.9954251 L17.4105456,59.9954251 L17.381085,59.7244129 L17.3643095,59.4945418 C17.2995333,58.4001982 17.4285592,57.0029389 17.947573,55.2882012 L17.947573,55.2882012 Z M100.538162,57.0589399 L100.380961,57.3196554 C99.6201039,58.5264271 98.4862894,59.5859975 97.3400599,60.1375559 L97.0943807,60.2478398 L96.8479329,60.3422037 C96.6844022,60.4002535 96.5225453,60.4484801 96.3631899,60.4862578 L96.1261366,60.5350095 L95.8905635,60.5640009 C95.7348166,60.5775067 95.5819132,60.5794106 95.4332931,60.5699628 L95.2137555,60.5473086 L95.0237455,60.5119305 C94.586944,60.4126057 94.1965845,60.1953143 93.8643865,59.8488191 L93.725611,59.692378 L93.7353284,59.6899523 C93.7674446,59.6819358 93.877787,59.6543944 94.045713,59.6124945 L94.405711,59.5226834 L94.5487265,59.4870116 L94.7436284,59.4361884 C94.8775853,59.3996844 95.019434,59.3582464 95.1682565,59.3137337 L95.396606,59.2448909 L95.7150454,59.1476316 L96.0427633,59.042586 L96.0427633,59.042586 L96.3726249,58.9279745 L96.7052454,58.8109582 C97.1459504,58.6511493 97.5718419,58.4787553 97.9390227,58.3245398 L98.2027143,58.2127673 L98.3340244,58.1544421 C98.7147593,57.9841096 98.9734493,57.857746 99.0213799,57.8341766 L99.0294292,57.830208 L99.0210593,57.8336563 L98.9017258,57.8818946 C98.781598,57.9298858 98.5826889,58.0079273 98.3307002,58.1016015 L98.173343,58.1595666 L97.9004876,58.2542497 C97.5209674,58.3847594 97.0822673,58.5298989 96.6284551,58.6604723 L96.2859509,58.755215 L95.9473174,58.8479985 L95.6119474,58.932392 L95.6119474,58.932392 L95.284736,59.0079186 L95.0500133,59.0601764 C94.8973529,59.0942045 94.7524492,59.1262483 94.6159862,59.1541269 L94.4177076,59.1925482 L94.271201,59.2181027 C93.8949135,59.283725 93.6373919,59.3285429 93.5848105,59.3376923 L93.5748673,59.3394223 L93.5808363,59.2742167 C93.616121,58.9496578 93.7657509,58.3514388 94.4638621,57.902166 L94.6220107,57.8083271 L94.7608072,57.7343421 C95.1958174,57.5177708 95.8010945,57.3499567 96.6490604,57.239136 C97.5939803,57.1154299 98.8419714,57.0670916 100.538162,57.0589399 Z M3.46183765,57.0589399 C5.1580286,57.0670916 6.40601971,57.1154299 7.3509396,57.239136 C8.1989055,57.3499567 8.80418262,57.5177708 9.23919275,57.7343421 L9.23919275,57.7343421 L9.37798929,57.8083271 L9.53613788,57.902166 C10.2342491,58.3514388 10.383879,58.9496578 10.4191637,59.2742167 L10.4191637,59.2742167 L10.4251327,59.3394223 L10.4151895,59.3376923 C10.3626081,59.3285429 10.1050865,59.283725 9.72879904,59.2181027 L9.72879904,59.2181027 L9.5822924,59.1925482 L9.38401382,59.1541269 C9.24755079,59.1262483 9.10264712,59.0942045 8.94998669,59.0601764 L8.94998669,59.0601764 L8.71526397,59.0079186 L8.38805265,58.932392 L8.38805265,58.932392 L8.05268263,58.8479985 L7.71404915,58.755215 L7.37154495,58.6604723 C6.91773267,58.5298989 6.47903262,58.3847594 6.09951238,58.2542497 L6.09951238,58.2542497 L5.82665697,58.1595666 L5.66929978,58.1016015 C5.41731105,58.0079273 5.21840202,57.9298858 5.09827422,57.8818946 L5.09827422,57.8818946 L4.97894069,57.8336563 L4.97057078,57.830208 C5.02655072,57.857746 5.28524073,57.9841096 5.66597559,58.1544421 L5.66597559,58.1544421 L5.7972857,58.2127673 L6.06097725,58.3245398 C6.42815814,58.4787553 6.85404959,58.6511493 7.29475464,58.8109582 L7.29475464,58.8109582 L7.6273751,58.9279745 L7.95723667,59.042586 L7.95723667,59.042586 L8.28495458,59.1476316 L8.60339398,59.2448909 L8.83174347,59.3137337 C8.98056602,59.3582464 9.12241468,59.3996844 9.25637162,59.4361884 L9.25637162,59.4361884 L9.45127349,59.4870116 L9.59428898,59.5226834 L9.95428705,59.6124945 C10.122213,59.6543944 10.2325554,59.6819358 10.2646716,59.6899523 L10.2646716,59.6899523 L10.274389,59.692378 L10.1356135,59.8488191 C9.80341552,60.1953143 9.41305604,60.4126057 8.97625446,60.5119305 L8.97625446,60.5119305 L8.78624455,60.5473086 L8.56670689,60.5699628 C8.41808681,60.5794106 8.26518343,60.5775067 8.1094365,60.5640009 L8.1094365,60.5640009 L7.87386342,60.5350095 L7.63681008,60.4862578 C7.47745473,60.4484801 7.31559779,60.4002535 7.15206711,60.3422037 L7.15206711,60.3422037 L6.90561928,60.2478398 L6.65994006,60.1375559 C5.51371062,59.5859975 4.37989609,58.5264271 3.61903862,57.3196554 L3.61903862,57.3196554 Z M14.4197697,51.8587076 C15.2055952,52.7911512 15.8377974,54.0161991 16.132374,55.3404978 C16.3908503,56.5900836 16.3315741,57.9616067 15.3780738,59.1257757 L15.3780738,59.1257757 L15.2107784,59.3178274 C15.1723325,59.1917821 14.7731274,57.8676425 14.5619143,56.5156307 L14.5619143,56.5156307 L14.5330794,56.3224238 L14.4875576,56.0066232 C14.4167214,55.4834339 14.3708923,54.9801851 14.3476566,54.5600964 L14.3476566,54.5600964 L14.3364071,54.3185282 L14.3317307,54.1643809 C14.3272214,54.0158753 14.3232303,53.8848538 14.3199131,53.7763517 L14.3199131,53.7763517 L14.3168263,53.6755425 L14.3178848,53.5904739 C14.3184929,53.5393463 14.3189122,53.4996184 14.3191794,53.4726725 L14.3191794,53.4726725 L14.3190008,53.4385191 C14.3175088,53.456943 14.3130564,53.5114558 14.3058322,53.5959839 L14.3058322,53.5959839 L14.2982532,53.6838373 L14.2936333,53.7884105 C14.2886367,53.9008426 14.2825413,54.036309 14.275627,54.1899288 L14.275627,54.1899288 L14.26845,54.3494189 L14.2611837,54.5685459 C14.2579712,54.7197194 14.2578722,54.8808144 14.2599869,55.0502935 L14.2599869,55.0502935 L14.2647066,55.3106081 L14.2737772,55.6750207 L14.2737772,55.6750207 L14.2932141,56.0503022 L14.3204257,56.4334018 L14.343584,56.7227759 C14.4213315,57.5903768 14.5693706,58.4424089 14.6753623,58.9852184 L14.6753623,58.9852184 L14.7193359,59.2051519 C14.7598104,59.4028154 14.7886917,59.5308045 14.7979968,59.5715322 L14.7979968,59.5715322 L14.7076272,59.5771839 C14.5436007,59.5840635 14.315687,59.5746301 14.0713714,59.4946805 L14.0713714,59.4946805 L13.9231936,59.4378152 L13.790357,59.3744694 C13.7011814,59.3276685 13.6111419,59.2713929 13.5224701,59.2036406 L13.5224701,59.2036406 L13.3907673,59.0931543 L13.2905445,58.9888476 C13.1916566,58.878571 13.0971951,58.7501306 13.0109542,58.6012405 L13.0109542,58.6012405 L12.9275939,58.4454492 L12.8532823,58.2731599 C12.7831817,58.0930187 12.7259664,57.8894108 12.6839068,57.6631393 L12.6839068,57.6631393 L12.6469831,57.4293431 L12.6294832,57.2189216 C12.6115714,56.9311559 12.6163333,56.6142475 12.6556283,56.2642554 L12.6556283,56.2642554 L12.6917599,55.9954965 L12.7282035,55.7859572 C12.9160801,54.7917524 13.3574014,53.5696149 14.226844,52.1629454 L14.226844,52.1629454 Z M89.5802303,51.8587076 L89.773156,52.1629454 C90.6425986,53.5696149 91.0839199,54.7917524 91.2717965,55.7859572 L91.3082401,55.9954965 L91.3443717,56.2642554 C91.3836667,56.6142475 91.3884286,56.9311559 91.3705168,57.2189216 L91.3530169,57.4293431 L91.3160932,57.6631393 C91.2740336,57.8894108 91.2168183,58.0930187 91.1467177,58.2731599 L91.0724061,58.4454492 L90.9890458,58.6012405 C90.9028049,58.7501306 90.8083434,58.878571 90.7094555,58.9888476 L90.6092327,59.0931543 L90.4775299,59.2036406 C90.3888581,59.2713929 90.2988186,59.3276685 90.209643,59.3744694 L90.0768064,59.4378152 L89.9286286,59.4946805 C89.684313,59.5746301 89.4563993,59.5840635 89.2923728,59.5771839 L89.2020032,59.5715322 C89.2113083,59.5308045 89.2401896,59.4028154 89.2806641,59.2051519 L89.3246377,58.9852184 C89.4306294,58.4424089 89.5786685,57.5903768 89.656416,56.7227759 L89.6795743,56.4334018 L89.7067859,56.0503022 L89.7262228,55.6750207 L89.7262228,55.6750207 L89.7352934,55.3106081 L89.7400131,55.0502935 C89.7421278,54.8808144 89.7420288,54.7197194 89.7388163,54.5685459 L89.73155,54.3494189 L89.724373,54.1899288 C89.7174587,54.036309 89.7113633,53.9008426 89.7063667,53.7884105 L89.7017468,53.6838373 L89.6941678,53.5959839 C89.6869436,53.5114558 89.6824912,53.456943 89.6809992,53.4385191 L89.6808206,53.4726725 C89.6810878,53.4996184 89.6815071,53.5393463 89.6821152,53.5904739 L89.6831737,53.6755425 L89.6800869,53.7763517 C89.6767697,53.8848538 89.6727786,54.0158753 89.6682693,54.1643809 L89.6635929,54.3185282 L89.6523434,54.5600964 C89.6291077,54.9801851 89.5832786,55.4834339 89.5124424,56.0066232 L89.4669206,56.3224238 L89.4380857,56.5156307 C89.2268726,57.8676425 88.8276675,59.1917821 88.7918125,59.309365 L88.7892216,59.3178274 L88.6219262,59.1257757 C87.6684259,57.9616067 87.6091497,56.5900836 87.867626,55.3404978 C88.1622026,54.0161991 88.7944048,52.7911512 89.5802303,51.8587076 Z M1.22962098,51.7706117 C1.61893431,51.8494118 1.97959626,51.9264957 2.31520623,52.0022925 C2.54220969,52.0519656 2.75903878,52.1005582 2.96505362,52.1489601 L2.96505362,52.1489601 L3.26588519,52.2215312 L3.53951639,52.2914411 C3.89491897,52.3846707 4.21335497,52.4778815 4.50429781,52.5700614 L4.50429781,52.5700614 L4.76929118,52.6561471 L5.01285577,52.7442274 C5.64002226,52.9798107 6.09038983,53.2211695 6.40988361,53.472038 L6.40988361,53.472038 L6.52364877,53.5665667 L6.65044933,53.6845856 C6.88796891,53.920783 7.03064263,54.1572117 7.10805098,54.3807792 L7.10805098,54.3807792 L7.14145332,54.4914307 L7.17499859,54.6318891 C7.21077949,54.8140557 7.21262453,54.9742936 7.20271679,55.0948057 L7.20271679,55.0948057 L7.19342895,55.1774632 C7.1374129,55.1571316 6.90687375,55.0725298 6.5727358,54.935519 L6.5727358,54.935519 L6.4427338,54.8817127 L6.24418052,54.7955022 C5.89787009,54.644828 5.47934038,54.4597869 5.05942547,54.2491348 L5.05942547,54.2491348 L4.80787697,54.1197403 L4.51041552,53.9671284 C4.11765741,53.7604378 3.74311504,53.5438105 3.42023368,53.3519932 L3.42023368,53.3519932 L3.18828169,53.2133251 L3.05984399,53.1362389 C2.93700642,53.0612532 2.83112817,52.993043 2.74363979,52.935871 L2.74363979,52.935871 L2.66233435,52.8825364 L2.59353992,52.8372894 C2.5315078,52.7964862 2.4901876,52.7692954 2.47340451,52.7582503 L2.47340451,52.7582503 L2.467,52.754 C2.55904067,52.824791 3.40903395,53.4722997 4.37085565,54.0664175 L4.53208303,54.164834 L4.69471119,54.2616091 L4.98313492,54.4356473 C5.36899923,54.6615713 5.75450183,54.8622994 6.07293457,55.0295779 L6.07293457,55.0295779 L6.26261879,55.1296969 L6.38866525,55.1894762 C6.71247896,55.3430376 6.9349656,55.448454 6.98783005,55.4734997 L6.98783005,55.4734997 L6.83936782,55.5858945 C5.98679768,56.1814709 4.94687344,56.0780107 3.94792154,55.45519 L3.94792154,55.45519 L3.7721077,55.3399257 L3.56760546,55.1907281 C2.62095399,54.4611282 1.7880553,53.2743764 1.32344948,52.0365045 L1.32344948,52.0365045 Z M102.770379,51.7706117 L102.676551,52.0365045 C102.211945,53.2743764 101.379046,54.4611282 100.432395,55.1907281 L100.227892,55.3399257 L100.052078,55.45519 C99.0531266,56.0780107 98.0132023,56.1814709 97.1606322,55.5858945 L97.0121699,55.4734997 C97.0650344,55.448454 97.287521,55.3430376 97.6113347,55.1894762 L97.7373812,55.1296969 L97.9270654,55.0295779 C98.2454982,54.8622994 98.6310008,54.6615713 99.0168651,54.4356473 L99.3052888,54.2616091 L99.467917,54.164834 C100.494167,53.5460383 101.436137,52.8284861 101.527768,52.7582779 L101.532,52.754 L101.526595,52.7582503 C101.509812,52.7692954 101.468492,52.7964862 101.40646,52.8372894 L101.337666,52.8825364 L101.25636,52.935871 C101.168872,52.993043 101.062994,53.0612532 100.940156,53.1362389 L100.811718,53.2133251 L100.579766,53.3519932 C100.256885,53.5438105 99.8823426,53.7604378 99.4895845,53.9671284 L99.192123,54.1197403 L98.9405745,54.2491348 C98.5206596,54.4597869 98.1021299,54.644828 97.7558195,54.7955022 L97.5572662,54.8817127 L97.4272642,54.935519 C97.0931262,55.0725298 96.8625871,55.1571316 96.8154813,55.1742405 L96.806571,55.1774632 L96.7972832,55.0948057 C96.7873755,54.9742936 96.7892205,54.8140557 96.8250014,54.6318891 L96.8585467,54.4914307 L96.891949,54.3807792 C96.9693574,54.1572117 97.1120311,53.920783 97.3495507,53.6845856 L97.4763512,53.5665667 L97.5901164,53.472038 C97.9096102,53.2211695 98.3599777,52.9798107 98.9871442,52.7442274 L99.2307088,52.6561471 L99.4957022,52.5700614 C99.786645,52.4778815 100.105081,52.3846707 100.460484,52.2914411 L100.734115,52.2215312 L101.034946,52.1489601 C101.240961,52.1005582 101.45779,52.0519656 101.684794,52.0022925 C102.020404,51.9264957 102.381066,51.8494118 102.770379,51.7706117 Z M11.8880812,47.8236008 C12.3443438,48.8650202 12.5757145,50.089639 12.4759386,51.3138288 C12.4365712,51.8335782 12.3178697,52.3604725 12.1080472,52.8538042 L12.1080472,52.8538042 L11.9954879,53.0974847 L11.8935715,53.2840937 C11.6430402,53.7151816 11.3018214,54.1140094 10.8362474,54.4400695 L10.8362474,54.4400695 L10.6290039,54.5752362 L10.6286863,54.4409726 C10.6298448,54.0737509 10.6465873,53.0102807 10.7904515,51.9653915 L10.7904515,51.9653915 L10.8171816,51.7813377 L10.8484461,51.5671459 C11.034066,50.3613104 11.3551277,49.305657 11.3893455,49.1948078 C11.3893455,49.1948078 11.3670464,49.245789 11.3334318,49.3358161 L11.3334318,49.3358161 L11.3062709,49.4104711 L11.2747215,49.5011721 C11.2407856,49.5986737 11.1998421,49.7161204 11.1532592,49.8494038 L11.1532592,49.8494038 L11.1048473,49.9878139 L11.0402872,50.178812 C10.9970492,50.3109648 10.9535772,50.4524313 10.910843,50.601245 L10.910843,50.601245 L10.8474167,50.8297304 L10.7893998,51.0419104 C10.7504806,51.1860077 10.7115488,51.3349011 10.6754231,51.4856401 L10.6754231,51.4856401 L10.6000646,51.8266727 L10.526903,52.1733166 C10.4352484,52.6354255 10.3666728,53.0927778 10.3152038,53.4922789 L10.3152038,53.4922789 L10.2797161,53.7802279 L10.2644215,53.9392368 C10.2258911,54.3485936 10.205354,54.6359695 10.2015944,54.6899044 L10.2015944,54.6899044 L10.2009608,54.6990853 L10.1200748,54.6821964 C9.97496463,54.6478942 9.78128852,54.5809346 9.58306854,54.4530173 L9.58306854,54.4530173 L9.46394346,54.3687257 L9.37507124,54.2905799 C9.16917787,54.0963259 8.97751035,53.8172498 8.88196899,53.4234082 L8.88196899,53.4234082 L8.84714674,53.2475051 L8.82720732,53.0926976 C8.78139092,52.6134155 8.86531316,52.0007446 9.17946467,51.2640001 L9.17946467,51.2640001 L9.28181277,51.0369559 L9.37562679,50.8499524 C9.80266525,50.0295564 10.5002765,49.0800505 11.6216985,48.0601783 L11.6216985,48.0601783 Z M92.1119188,47.8236008 L92.3783015,48.0601783 C93.4997235,49.0800505 94.1973348,50.0295564 94.6243732,50.8499524 L94.7181872,51.0369559 L94.8205353,51.2640001 C95.1346868,52.0007446 95.2186091,52.6134155 95.1727927,53.0926976 L95.1528533,53.2475051 L95.118031,53.4234082 C95.0224896,53.8172498 94.8308221,54.0963259 94.6249288,54.2905799 L94.5360565,54.3687257 L94.4169315,54.4530173 C94.2187115,54.5809346 94.0250354,54.6478942 93.8799252,54.6821964 L93.7990392,54.6990853 L93.7984056,54.6899044 C93.794646,54.6359695 93.7741089,54.3485936 93.7355785,53.9392368 L93.7202839,53.7802279 L93.6847962,53.4922789 C93.6333272,53.0927778 93.5647516,52.6354255 93.473097,52.1733166 L93.3999354,51.8266727 L93.3245769,51.4856401 C93.2884512,51.3349011 93.2495194,51.1860077 93.2106002,51.0419104 L93.1525833,50.8297304 L93.089157,50.601245 C93.0464228,50.4524313 93.0029508,50.3109648 92.9597128,50.178812 L92.8951527,49.9878139 L92.8467408,49.8494038 C92.8001579,49.7161204 92.7592144,49.5986737 92.7252785,49.5011721 L92.6937291,49.4104711 L92.6665682,49.3358161 C92.6329536,49.245789 92.6106545,49.1948078 92.6106545,49.1948078 C92.6448723,49.305657 92.965934,50.3613104 93.1515539,51.5671459 L93.1828184,51.7813377 L93.2095485,51.9653915 C93.3534127,53.0102807 93.3701552,54.0737509 93.3713137,54.4409726 L93.3709961,54.5752362 L93.1637526,54.4400695 C92.6981786,54.1140094 92.3569598,53.7151816 92.1064285,53.2840937 L92.0045121,53.0974847 L91.8919528,52.8538042 C91.6821303,52.3604725 91.5634288,51.8335782 91.5240614,51.3138288 C91.4242855,50.089639 91.6556562,48.8650202 92.1119188,47.8236008 Z M0.112360837,46.2794914 C2.84072164,47.3480832 4.09706339,48.1177782 4.62286675,48.8422812 C4.86512576,49.150742 4.96573631,49.4419026 4.99549508,49.6975599 L4.99549508,49.6975599 L5.00411738,49.8049005 L5.00853467,49.9388154 C5.00631903,50.1112545 4.97406022,50.2581313 4.94029765,50.3661828 L4.94029765,50.3661828 L4.9151397,50.4397344 C4.89791072,50.428361 4.8785444,50.4155765 4.85062873,50.3971476 L4.85062873,50.3971476 L4.74224154,50.3255923 C4.6542285,50.2674862 4.53604945,50.1894612 4.39576707,50.0968353 L4.39576707,50.0968353 L4.28653689,50.0247112 L4.09490974,49.8871587 C3.82566508,49.6938133 3.50558061,49.4623629 3.18418435,49.2127658 L3.18418435,49.2127658 L2.94366506,49.0224773 L2.70598333,48.8281759 C2.38945828,48.5680408 2.07856432,48.306338 1.82244555,48.0754411 L1.82244555,48.0754411 L1.6413947,47.9085505 L1.54071948,47.8145882 C1.31446393,47.6033983 1.15067216,47.4503717 1.08904893,47.392789 L1.08904893,47.392789 L1.06217594,47.367676 C1.06217594,47.367676 1.23594157,47.5535998 1.50527829,47.8413125 L1.50527829,47.8413125 L1.59848961,47.9408713 L1.76626926,48.1181708 C2.00419363,48.3636417 2.29495216,48.6425989 2.59008332,48.9214394 L2.59008332,48.9214394 L2.81149434,49.130023 L3.03830783,49.3345167 C3.3403792,49.603402 3.63787531,49.855147 3.89253032,50.0651745 L3.89253032,50.0651745 L4.07489096,50.2144892 L4.18882778,50.3019469 C4.44367111,50.4975618 4.61880123,50.6319729 4.65860184,50.6625191 L4.65860184,50.6625191 L4.66721161,50.669127 L4.50031342,50.7458652 C3.60771834,51.1135235 2.67947231,50.8197869 1.90234309,50.075886 L1.90234309,50.075886 L1.75844786,49.9311808 L1.59188996,49.7466262 C0.883051878,48.917867 0.346420055,47.7218367 0.151259279,46.5494456 L0.151259279,46.5494456 Z M103.887639,46.2794914 L103.848741,46.5494456 C103.65358,47.7218367 103.116948,48.917867 102.40811,49.7466262 L102.241552,49.9311808 L102.097657,50.075886 C101.320528,50.8197869 100.392282,51.1135235 99.4996866,50.7458652 L99.3327884,50.669127 L99.3413982,50.6625191 C99.3811988,50.6319729 99.5563289,50.4975618 99.8111722,50.3019469 L99.925109,50.2144892 L100.10747,50.0651745 C100.362125,49.855147 100.659621,49.603402 100.961692,49.3345167 L101.188506,49.130023 L101.409917,48.9214394 C101.705048,48.6425989 101.995806,48.3636417 102.233731,48.1181708 L102.40151,47.9408713 L102.494722,47.8413125 C102.764058,47.5535998 102.937824,47.367676 102.937824,47.367676 L102.910951,47.392789 C102.849328,47.4503717 102.685536,47.6033983 102.459281,47.8145882 L102.358605,47.9085505 L102.177554,48.0754411 C101.921436,48.306338 101.610542,48.5680408 101.294017,48.8281759 L101.056335,49.0224773 L100.815816,49.2127658 C100.494419,49.4623629 100.174335,49.6938133 99.9050903,49.8871587 L99.7134631,50.0247112 L99.6042329,50.0968353 C99.4639506,50.1894612 99.3457715,50.2674862 99.2577585,50.3255923 L99.1493713,50.3971476 C99.1214556,50.4155765 99.1020893,50.428361 99.0922801,50.4348364 L99.0848603,50.4397344 L99.0597023,50.3661828 C99.0259398,50.2581313 98.993681,50.1112545 98.9914653,49.9388154 L98.9958826,49.8049005 L99.0045049,49.6975599 C99.0342637,49.4419026 99.1348742,49.150742 99.3771332,48.8422812 C99.9029366,48.1177782 101.159278,47.3480832 103.887639,46.2794914 Z M10.2398346,44.1370163 C10.4596872,45.2333526 10.4318996,46.4439561 10.0846275,47.5420086 C9.92715803,48.0140735 9.72092445,48.4603961 9.42358503,48.8585513 L9.42358503,48.8585513 L9.26712714,49.0535111 L9.13426695,49.1984983 C8.81502016,49.5291572 8.42941508,49.8046396 7.94215801,49.9899551 L7.94215801,49.9899551 L7.72700706,50.0637537 C7.73374402,50.0356099 7.74476343,49.9895518 7.76126663,49.9204388 L7.76126663,49.9204388 L7.7795586,49.8438 L7.8044712,49.7532099 C7.8313511,49.6557667 7.86397394,49.5382445 7.90090918,49.404968 L7.90090918,49.404968 L7.9392289,49.2666002 L8.00861573,49.02045 C8.1100794,48.6775476 8.24516965,48.2804699 8.38790667,47.8848116 L8.38790667,47.8848116 L8.49598727,47.5892028 L8.6154847,47.2939495 C8.77462975,46.905434 8.9323137,46.5402561 9.07987661,46.2310014 L9.07987661,46.2310014 L9.18851579,46.0100552 L9.26186074,45.8628124 C9.30845074,45.7692775 9.35024451,45.6853513 9.38614423,45.6131611 L9.38614423,45.6131611 L9.43543604,45.5139438 L9.49874769,45.3961934 C9.51543389,45.3650974 9.52769351,45.3421939 9.53549994,45.327598 L9.53549994,45.327598 C9.52048027,45.351218 9.49587751,45.389883 9.45883516,45.4479576 L9.45883516,45.4479576 L9.4177269,45.5123706 L9.35957151,45.6106986 C9.31719283,45.6822721 9.26780428,45.7655279 9.21264766,45.858303 L9.21264766,45.858303 L9.1257419,46.0043347 L8.99727324,46.2239786 C8.82164818,46.5318375 8.63000437,46.8969016 8.43812592,47.2856104 L8.43812592,47.2856104 L8.29441972,47.5810511 L8.19849404,47.7866163 C7.78956162,48.6810291 7.47128624,49.6067551 7.35931081,49.9445003 L7.35931081,49.9445003 L7.32691983,50.0432995 C7.3232555,50.0546271 7.32047786,50.0632802 7.31580925,50.077912 L7.31580925,50.077912 L7.25794558,50.0495684 C6.96913461,49.8995897 6.43568382,49.4972953 6.42565022,48.6581602 L6.42565022,48.6581602 L6.43179156,48.4715919 L6.44707038,48.3154288 C6.4701873,48.1547487 6.5165248,47.9808474 6.58343947,47.7966904 L6.58343947,47.7966904 L6.65711529,47.6092246 L6.72955629,47.4478313 C6.83360621,47.2294057 6.96844584,46.9980878 7.14538002,46.7544284 L7.14538002,46.7544284 L7.28615003,46.5693784 L7.41552443,46.4086206 C7.95536952,45.7596461 8.76593301,45.0411524 9.93897053,44.317893 L9.93897053,44.317893 Z M93.7601654,44.1370163 L94.0610295,44.317893 C95.234067,45.0411524 96.0446305,45.7596461 96.5844756,46.4086206 L96.71385,46.5693784 L96.85462,46.7544284 C97.0315542,46.9980878 97.1663938,47.2294057 97.2704437,47.4478313 L97.3428847,47.6092246 L97.4165605,47.7966904 C97.4834752,47.9808474 97.5298127,48.1547487 97.5529296,48.3154288 L97.5682084,48.4715919 L97.5743498,48.6581602 C97.5643162,49.4972953 97.0308654,49.8995897 96.7420544,50.0495684 L96.6841907,50.077912 C96.6795221,50.0632802 96.6767445,50.0546271 96.6730802,50.0432995 L96.6406892,49.9445003 C96.5287138,49.6067551 96.2104384,48.6810291 95.801506,47.7866163 L95.7055803,47.5810511 L95.5618741,47.2856104 C95.3699956,46.8969016 95.1783518,46.5318375 95.0027268,46.2239786 L94.8742581,46.0043347 L94.7873523,45.858303 C94.7321957,45.7655279 94.6828072,45.6822721 94.6404285,45.6106986 L94.5822731,45.5123706 L94.5411648,45.4479576 C94.5041225,45.389883 94.4795197,45.351218 94.4695335,45.3355152 L94.4645001,45.327598 C94.4723065,45.3421939 94.4845661,45.3650974 94.5012523,45.3961934 L94.564564,45.5139438 L94.6138558,45.6131611 C94.6497555,45.6853513 94.6915493,45.7692775 94.7381393,45.8628124 L94.8114842,46.0100552 L94.9201234,46.2310014 C95.0676863,46.5402561 95.2253702,46.905434 95.3845153,47.2939495 L95.5040127,47.5892028 L95.6120933,47.8848116 C95.7548304,48.2804699 95.8899206,48.6775476 95.9913843,49.02045 L96.0607711,49.2666002 L96.0990908,49.404968 C96.1360261,49.5382445 96.1686489,49.6557667 96.1955288,49.7532099 L96.2204414,49.8438 L96.2387334,49.9204388 C96.2552366,49.9895518 96.266256,50.0356099 96.2707342,50.0543194 L96.2729929,50.0637537 L96.057842,49.9899551 C95.5705849,49.8046396 95.1849798,49.5291572 94.8657331,49.1984983 L94.7328729,49.0535111 L94.576415,48.8585513 C94.2790755,48.4603961 94.072842,48.0140735 93.9153725,47.5420086 C93.5681004,46.4439561 93.5403128,45.2333526 93.7601654,44.1370163 Z M0.00596196425,40.8708895 C0.597418754,41.2095438 1.09802617,41.5175934 1.52362166,41.80319 C1.87262148,42.032697 2.17158647,42.2469188 2.42722481,42.4490771 L2.42722481,42.4490771 L2.61093463,42.5984844 L2.79532805,42.7592078 C3.20689913,43.128338 3.48852136,43.4566337 3.65726575,43.7525731 L3.65726575,43.7525731 L3.72272365,43.877448 L3.79158199,44.0312309 C4.03151433,44.634419 3.85794943,45.0920241 3.72141469,45.3226317 L3.72141469,45.3226317 L3.68831319,45.3755073 L3.58174585,45.2683038 C3.54763066,45.2339964 3.50604209,45.1921826 3.4580356,45.1439325 L3.29581776,44.9809442 L3.20224744,44.8869755 L3.10132818,44.7822843 C3.03180613,44.7102223 2.95797387,44.6338005 2.8808805,44.5540735 L2.8808805,44.5540735 L2.70235991,44.3695551 L2.52261818,44.171975 L2.52261818,44.171975 L2.33926103,43.9662908 L2.15308833,43.7551721 L1.96697429,43.5391327 L1.96697429,43.5391327 L1.78354782,43.3262713 L1.60540049,43.1194801 L1.49595638,42.9825126 C1.42427291,42.8927924 1.35530386,42.8064621 1.2899846,42.7247647 L1.2899846,42.7247647 L1.14956987,42.5492879 L1.06422894,42.4393244 C0.873312119,42.1933722 0.74188261,42.0243789 0.712008308,41.9859736 L0.712008308,41.9859736 L0.705545348,41.9776657 L0.711359721,41.9862953 C0.738236777,42.0261865 0.856488358,42.2017026 1.02838207,42.456927 L1.02838207,42.456927 L1.10522501,42.5710259 L1.18830576,42.6911025 C1.24551413,42.7738075 1.30622376,42.8616068 1.36958779,42.9532197 L1.36958779,42.9532197 L1.51627884,43.1652442 L1.67829543,43.3815272 L1.67829543,43.3815272 L1.84488727,43.6041028 L2.01371876,43.8298248 L2.18117914,44.051196 C2.40605227,44.3432573 2.63437019,44.6204983 2.83102386,44.8538926 L2.83102386,44.8538926 L2.9720285,45.0202635 L3.05770846,45.1208773 C3.24955516,45.345442 3.38302367,45.4968105 3.41893256,45.5373979 L3.41893256,45.5373979 L3.24097237,45.5779801 C2.35899198,45.7411152 1.5957507,45.3128596 1.01563591,44.5295862 L1.01563591,44.5295862 L0.902073712,44.368268 L0.766250027,44.1459203 C0.286001866,43.3052859 0.00369083964,42.1958677 -7.10542736e-15,41.1533127 L-7.10542736e-15,41.1533127 Z M103.994038,40.8708895 L104,41.1533127 C103.996309,42.1958677 103.713998,43.3052859 103.23375,44.1459203 L103.097926,44.368268 L102.984364,44.5295862 C102.404249,45.3128596 101.641008,45.7411152 100.759028,45.5779801 L100.581067,45.5373979 C100.616976,45.4968105 100.750445,45.345442 100.942292,45.1208773 L101.027972,45.0202635 L101.168976,44.8538926 C101.36563,44.6204983 101.593948,44.3432573 101.818821,44.051196 L101.986281,43.8298248 L102.155113,43.6041028 L102.321705,43.3815272 L102.321705,43.3815272 L102.483721,43.1652442 L102.630412,42.9532197 C102.693776,42.8616068 102.754486,42.7738075 102.811694,42.6911025 L102.894775,42.5710259 L102.971618,42.456927 C103.143512,42.2017026 103.261763,42.0261865 103.28864,41.9862953 L103.294455,41.9776657 L103.287992,41.9859736 C103.258117,42.0243789 103.126688,42.1933722 102.935771,42.4393244 L102.85043,42.5492879 L102.710015,42.7247647 C102.644696,42.8064621 102.575727,42.8927924 102.504044,42.9825126 L102.3946,43.1194801 L102.216452,43.3262713 L102.033026,43.5391327 L102.033026,43.5391327 L101.846912,43.7551721 L101.660739,43.9662908 L101.477382,44.171975 L101.477382,44.171975 L101.29764,44.3695551 L101.119119,44.5540735 C101.042026,44.6338005 100.968194,44.7102223 100.898672,44.7822843 L100.797753,44.8869755 L100.704182,44.9809442 L100.541964,45.1439325 C100.493958,45.1921826 100.452369,45.2339964 100.418254,45.2683038 L100.311687,45.3755073 L100.278585,45.3226317 C100.142051,45.0920241 99.9684857,44.634419 100.208418,44.0312309 L100.277276,43.877448 L100.342734,43.7525731 C100.511479,43.4566337 100.793101,43.128338 101.204672,42.7592078 L101.389065,42.5984844 L101.572775,42.4490771 C101.828414,42.2469188 102.127379,42.032697 102.476378,41.80319 C102.901974,41.5175934 103.402581,41.2095438 103.994038,40.8708895 Z M94.9835365,40.5784282 L95.2885709,40.7139334 C96.2796164,41.1673784 97.0144531,41.636962 97.5275755,42.0784892 L97.6748953,42.2100615 L97.8400828,42.3664955 C98.2570512,42.7798094 98.4888078,43.1616926 98.6083316,43.4957431 L98.6480346,43.6187378 L98.6856457,43.7663329 C98.7443309,44.0539043 98.7071883,44.2956725 98.6353225,44.4900085 L98.5967789,44.5832163 L98.5257395,44.7162468 C98.4453116,44.8476447 98.3529003,44.9457117 98.2763975,45.0130721 L98.2224391,45.0578759 C98.1932616,45.0099471 98.0847277,44.8316744 97.9275597,44.5736723 L97.8573139,44.4583661 L97.7411139,44.2748648 C97.6870498,44.1895232 97.629952,44.0994357 97.5705917,44.0058076 L97.4799506,43.8628607 L97.3300068,43.6467948 L97.1755516,43.4244046 L97.1755516,43.4244046 L97.0190808,43.1989952 L96.8633732,42.9792884 C96.6536443,42.6892134 96.4384656,42.4131324 96.2541406,42.1813431 L96.1222492,42.0162791 L96.0325719,41.9055716 C95.9755976,41.8352495 95.9244633,41.7721585 95.8804829,41.7178896 L95.8200419,41.6433017 L95.7790292,41.5946121 C95.7543527,41.5653414 95.7351266,41.5425829 95.7220697,41.5271421 L95.7021248,41.5035782 C95.7137543,41.5186079 95.7338996,41.5450354 95.7609514,41.5826115 L95.806508,41.6473061 L95.8596625,41.7239028 C95.8983922,41.7796332 95.943493,41.8444269 95.9936689,41.9166752 L96.0725772,42.0304374 L96.1892558,42.1998825 C96.3416812,42.4226795 96.5165093,42.6844514 96.688291,42.9599891 L96.8581147,43.2391818 L96.9949087,43.466016 L97.129879,43.6921829 L97.129879,43.6921829 L97.2585143,43.9140593 L97.3743996,44.12914 C97.4244822,44.222116 97.4724887,44.3112595 97.5176986,44.3951894 L97.583326,44.5170014 L97.6512606,44.6468972 C97.6943906,44.7294067 97.7330394,44.8034248 97.7662351,44.8670565 L97.8118172,44.9544776 L97.8420892,45.0129321 C97.8688758,45.0656249 97.885265,45.100679 97.8917854,45.1149128 L97.8950358,45.1220886 L97.6899367,45.0988918 C96.6864038,44.9478024 96.0106942,44.2786616 95.5899669,43.475153 C95.1368718,42.6087813 94.9363121,41.5553488 94.9835365,40.5784282 Z M9.01646349,40.5784282 C9.06368789,41.5553488 8.86312817,42.6087813 8.41003311,43.475153 C7.98930584,44.2786616 7.31359617,44.9478024 6.3100633,45.0988918 L6.3100633,45.0988918 L6.10496417,45.1220886 C6.11473501,45.100679 6.13112418,45.0656249 6.15791078,45.0129321 L6.15791078,45.0129321 L6.18818277,44.9544776 L6.23376494,44.8670565 C6.26696059,44.8034248 6.30560937,44.7294067 6.34873943,44.6468972 L6.34873943,44.6468972 L6.41667399,44.5170014 L6.48230135,44.3951894 C6.52751126,44.3112595 6.57551776,44.222116 6.62560036,44.12914 L6.62560036,44.12914 L6.74148571,43.9140593 L6.870121,43.6921829 L6.870121,43.6921829 L7.00509127,43.466016 L7.14188525,43.2391818 L7.31170896,42.9599891 C7.48349068,42.6844514 7.65831878,42.4226795 7.81074425,42.1998825 L7.81074425,42.1998825 L7.9274228,42.0304374 L8.0063311,41.9166752 C8.05650702,41.8444269 8.10160776,41.7796332 8.14033752,41.7239028 L8.14033752,41.7239028 L8.19349197,41.6473061 L8.23904858,41.5826115 C8.26610044,41.5450354 8.28624568,41.5186079 8.29787516,41.5035782 L8.29787516,41.5035782 L8.27793034,41.5271421 C8.26487337,41.5425829 8.24564728,41.5653414 8.22097081,41.5946121 L8.22097081,41.5946121 L8.17995815,41.6433017 L8.11951713,41.7178896 C8.07553671,41.7721585 8.02440244,41.8352495 7.96742811,41.9055716 L7.96742811,41.9055716 L7.87775079,42.0162791 L7.74585936,42.1813431 C7.56153436,42.4131324 7.34635567,42.6892134 7.13662676,42.9792884 L7.13662676,42.9792884 L6.98091916,43.1989952 L6.82444835,43.4244046 L6.82444835,43.4244046 L6.66999321,43.6467948 L6.52004935,43.8628607 L6.42940834,44.0058076 C6.37004802,44.0994357 6.31295025,44.1895232 6.25888606,44.2748648 L6.25888606,44.2748648 L6.1426861,44.4583661 L6.07244032,44.5736723 C5.91527226,44.8316744 5.8067384,45.0099471 5.77756087,45.0578759 L5.77756087,45.0578759 L5.72360247,45.0130721 C5.64709972,44.9457117 5.55468844,44.8476447 5.47426045,44.7162468 L5.47426045,44.7162468 L5.40322113,44.5832163 L5.36467753,44.4900085 C5.29281172,44.2956725 5.25566907,44.0539043 5.31435425,43.7663329 L5.31435425,43.7663329 L5.35196539,43.6187378 L5.39166843,43.4957431 C5.51119223,43.1616926 5.74294885,42.7798094 6.15991724,42.3664955 L6.15991724,42.3664955 L6.32510473,42.2100615 L6.47242452,42.0784892 C6.98554692,41.636962 7.72038363,41.1673784 8.71142909,40.7139334 L8.71142909,40.7139334 Z M0.692443457,35.6966855 C1.69077875,36.4410673 2.39813688,37.0563084 2.86116634,37.5748729 C3.28605795,38.0386158 3.53462238,38.4295882 3.66055411,38.7633585 L3.66055411,38.7633585 L3.70213497,38.8858715 L3.74565332,39.0465214 C3.87188292,39.6184551 3.6442093,40.0018741 3.48541164,40.1888072 L3.48541164,40.1888072 L3.4441285,40.2349114 C3.41404268,40.1928482 3.30517131,40.0406839 3.14630622,39.8193181 L3.14630622,39.8193181 L3.07525988,39.7203513 L2.95847268,39.5555595 C2.7955789,39.3246044 2.60648134,39.0512963 2.42125516,38.7665683 L2.42125516,38.7665683 L2.28353133,38.5513645 L2.11092964,38.2803875 C1.93872892,38.0096987 1.77058224,37.743323 1.63214952,37.5123002 L1.63214952,37.5123002 L1.52822892,37.3356125 L1.4656318,37.2268329 C1.32554804,36.983471 1.22861715,36.8155614 1.20255334,36.7704258 L1.206,36.778 L1.21860054,36.8034565 C1.24483631,36.8574482 1.30195601,36.9749571 1.3804056,37.1361202 L1.42995851,37.2378976 L1.48417201,37.3491987 L1.57479475,37.5304198 C1.70367534,37.7832029 1.86246045,38.0774279 2.02359184,38.3749582 L2.02359184,38.3749582 L2.14444972,38.5981297 L2.2957324,38.8747401 C2.44929127,39.1485346 2.6067378,39.4108861 2.74160359,39.6348402 L2.74160359,39.6348402 L2.84417708,39.8053009 L2.9070643,39.9078633 C3.04772306,40.1373549 3.14455073,40.2959552 3.17057254,40.3385957 L3.17057254,40.3385957 L2.99158685,40.3473068 C2.17042741,40.351907 1.54702464,39.8571247 1.13218129,39.0870535 L1.13218129,39.0870535 L1.04648247,38.9179063 L0.949314107,38.6832329 C0.827061787,38.3620526 0.734372708,38.0092611 0.67534221,37.6430795 L0.67534221,37.6430795 L0.637444311,37.3662172 L0.61565889,37.0316107 C0.601028541,36.6948773 0.608644339,36.3534897 0.645534656,36.0229859 L0.645534656,36.0229859 Z M103.307557,35.6966855 L103.354465,36.0229859 C103.391356,36.3534897 103.398971,36.6948773 103.384341,37.0316107 L103.362556,37.3662172 L103.324658,37.6430795 C103.265627,38.0092611 103.172938,38.3620526 103.050686,38.6832329 L102.953518,38.9179063 L102.867819,39.0870535 C102.452975,39.8571247 101.829573,40.351907 101.008413,40.3473068 L100.829427,40.3385957 C100.855449,40.2959552 100.952277,40.1373549 101.092936,39.9078633 L101.155823,39.8053009 L101.258396,39.6348402 C101.393262,39.4108861 101.550709,39.1485346 101.704268,38.8747401 L101.85555,38.5981297 L101.976408,38.3749582 C102.13754,38.0774279 102.296325,37.7832029 102.425205,37.5304198 L102.515828,37.3491987 L102.570041,37.2378976 C102.691281,36.9889353 102.774458,36.8177489 102.793358,36.7788424 C102.771383,36.8155614 102.674452,36.983471 102.534368,37.2268329 L102.471771,37.3356125 L102.36785,37.5123002 C102.229418,37.743323 102.061271,38.0096987 101.88907,38.2803875 L101.716469,38.5513645 L101.578745,38.7665683 C101.393519,39.0512963 101.204421,39.3246044 101.041527,39.5555595 L100.92474,39.7203513 L100.853694,39.8193181 C100.694829,40.0406839 100.585957,40.1928482 100.561222,40.2274304 L100.555871,40.2349114 L100.514588,40.1888072 C100.355791,40.0018741 100.128117,39.6184551 100.254347,39.0465214 L100.297865,38.8858715 L100.339446,38.7633585 C100.465378,38.4295882 100.713942,38.0386158 101.138834,37.5748729 C101.601863,37.0563084 102.309221,36.4410673 103.307557,35.6966855 Z M8.81950319,36.615972 C8.76795949,37.0666054 8.69208371,37.5265346 8.52651036,37.966156 C8.40165366,38.3173955 8.25164133,38.653899 8.05797062,38.9594842 L8.05797062,38.9594842 L7.90424253,39.1826231 L7.79835788,39.3229015 C7.32577974,39.9179086 6.67450679,40.3388906 5.84397668,40.321827 L5.84397668,40.321827 L5.64913355,40.3099932 C5.67889014,40.2702368 5.78655182,40.1264094 5.94340401,39.9170622 L5.94340401,39.9170622 L6.01353889,39.8234635 L6.12304317,39.6783693 C6.27583785,39.4769702 6.454741,39.2459727 6.64718434,39.01132 L6.64718434,39.01132 L6.83118327,38.791054 L6.94435574,38.653459 C7.47358151,38.0157986 8.00692541,37.4503913 8.07787858,37.3755131 L8.07,37.382 L8.04946582,37.4014743 C7.92902946,37.5118996 7.44335927,37.9609934 6.93285183,38.4859743 L6.81475646,38.6083512 L6.69670891,38.7327047 L6.44370564,38.9999063 L6.19912501,39.2588489 L6.05050894,39.4272915 L6.05050894,39.4272915 L5.91101139,39.585469 L5.78274404,39.7309342 L5.69381244,39.8340802 C5.5244296,40.03057 5.40771717,40.1661548 5.37586554,40.2031626 L5.37586554,40.2031626 L5.33759855,40.1578056 C5.18863387,39.9719208 4.95975408,39.5725554 5.15458628,39.0209182 L5.15458628,39.0209182 L5.21288377,38.8788638 L5.27278682,38.7649682 C5.42542931,38.4953097 5.67108182,38.1992165 6.07125424,37.8951255 L6.07125424,37.8951255 L6.25239644,37.7643649 L6.4180289,37.656208 C6.93243037,37.3312722 7.60763219,37.0033668 8.53175568,36.705336 L8.53175568,36.705336 Z M95.1804968,36.615972 L95.4682443,36.705336 C96.3923678,37.0033668 97.0675696,37.3312722 97.5819711,37.656208 L97.7476036,37.7643649 L97.9287458,37.8951255 C98.3289182,38.1992165 98.5745707,38.4953097 98.7272132,38.7649682 L98.7871162,38.8788638 L98.8454137,39.0209182 C99.0402459,39.5725554 98.8113661,39.9719208 98.6624014,40.1578056 L98.6241345,40.2031626 C98.5922828,40.1661548 98.4755704,40.03057 98.3061876,39.8340802 L98.217256,39.7309342 L98.0889886,39.585469 L97.9494911,39.4272915 L97.9494911,39.4272915 L97.800875,39.2588489 L97.5562944,38.9999063 L97.3032911,38.7327047 L97.1852435,38.6083512 C96.5941116,37.9909271 96.0011861,37.447624 95.9293795,37.382123 C95.9930746,37.4503913 96.5264185,38.0157986 97.0556443,38.653459 L97.1688167,38.791054 L97.3528157,39.01132 C97.545259,39.2459727 97.7241622,39.4769702 97.8769568,39.6783693 L97.9864611,39.8234635 L98.056596,39.9170622 C98.2134482,40.1264094 98.3211099,40.2702368 98.3455745,40.3029226 L98.3508665,40.3099932 L98.1560233,40.321827 C97.3254932,40.3388906 96.6742203,39.9179086 96.2016421,39.3229015 L96.0957575,39.1826231 L95.9420294,38.9594842 C95.7483587,38.653899 95.5983463,38.3173955 95.4734896,37.966156 C95.3079163,37.5265346 95.2320405,37.0666054 95.1804968,36.615972 Z M94.8908154,32.5136491 L95.1992643,32.5793532 C95.9964709,32.7593869 96.5938238,32.9768374 97.0570042,33.2037335 L97.2245358,33.2892077 L97.3956106,33.3850373 C97.7759526,33.6094448 98.0261811,33.8387163 98.1823352,34.0566353 L98.2436037,34.1492868 L98.3126275,34.2747158 C98.5309781,34.7231776 98.4042223,35.0853323 98.2930999,35.2655986 L98.260593,35.3141262 L98.2366668,35.2919546 L98.2366668,35.2919546 L98.1520374,35.2147257 C98.0980979,35.1659812 98.0273552,35.1028735 97.942663,35.0291463 L97.8534265,34.9520178 L97.6964273,34.8181726 C97.5308908,34.6770121 97.3417087,34.5155976 97.1465763,34.3491581 L96.9501159,34.1816077 L96.7547071,34.0184415 C96.5448815,33.8467529 96.334136,33.6841439 96.1563256,33.545423 L96.0296721,33.4460927 L95.858027,33.3135914 C95.7302532,33.2149796 95.6433806,33.147987 95.6179724,33.1283953 C95.6442899,33.152949 95.7543407,33.2515521 95.9127381,33.3930512 L95.9958376,33.4672586 L96.1434725,33.6006599 C96.3001113,33.74169 96.4809657,33.9041274 96.6608769,34.0746581 L96.8395417,34.2473936 L97.0195277,34.4239549 C97.1982709,34.5993733 97.3714992,34.7695712 97.5231345,34.9184235 L97.6669765,35.0595634 L97.7485214,35.1406048 C97.7999391,35.19221 97.8453098,35.2387652 97.8836977,35.2790367 L97.9359252,35.3345771 L97.9781577,35.3793423 C98.0027642,35.405393 98.020073,35.4236584 98.028878,35.4329408 L98.0355572,35.4399775 L97.8576065,35.4761719 C97.5645633,35.5222737 97.2894122,35.4984118 97.0349342,35.4217853 L96.8847505,35.3696152 L96.7123056,35.2939111 C96.4867072,35.1826524 96.2786314,35.0310535 96.090595,34.850386 L95.9533644,34.709611 L95.8240092,34.5590768 L95.7027167,34.3995486 L95.7027167,34.3995486 L95.5896789,34.2319482 L95.4788168,34.0573613 C95.4071163,33.9388832 95.3402151,33.8164006 95.2804167,33.6909307 C95.0964143,33.3145209 94.9792172,32.9105097 94.8908154,32.5136491 Z M9.10918456,32.5136491 C9.02078279,32.9105097 8.90358566,33.3145209 8.71958328,33.6909307 C8.65978491,33.8164006 8.59288368,33.9388832 8.52118322,34.0573613 L8.52118322,34.0573613 L8.41032106,34.2319482 L8.29728326,34.3995486 L8.29728326,34.3995486 L8.17599078,34.5590768 L8.04663561,34.709611 L7.90940503,34.850386 C7.72136863,35.0310535 7.5132928,35.1826524 7.28769445,35.2939111 L7.28769445,35.2939111 L7.11524954,35.3696152 L6.96506576,35.4217853 C6.71058778,35.4984118 6.43543673,35.5222737 6.14239353,35.4761719 L6.14239353,35.4761719 L5.96444279,35.4399775 C5.97992705,35.4236584 5.99723576,35.405393 6.0218423,35.3793423 L6.0218423,35.3793423 L6.06407475,35.3345771 L6.11630235,35.2790367 C6.15469017,35.2387652 6.20006086,35.19221 6.25147859,35.1406048 L6.25147859,35.1406048 L6.33302346,35.0595634 L6.47686552,34.9184235 C6.62850076,34.7695712 6.80172906,34.5993733 6.98047226,34.4239549 L6.98047226,34.4239549 L7.16045826,34.2473936 L7.33912313,34.0746581 C7.51903427,33.9041274 7.69988874,33.74169 7.85652746,33.6006599 L7.85652746,33.6006599 L8.00416245,33.4672586 L8.08726189,33.3930512 C8.24565933,33.2515521 8.35571014,33.152949 8.38973238,33.1224547 L8.382,33.128 L8.35957148,33.1457122 C8.33006861,33.1684646 8.27991912,33.2071451 8.21356464,33.2583448 L8.14197301,33.3135914 L7.97032789,33.4460927 L7.84367443,33.545423 C7.66586404,33.6841439 7.45511846,33.8467529 7.24529286,34.0184415 L7.24529286,34.0184415 L7.04988406,34.1816077 L6.85342365,34.3491581 C6.65829129,34.5155976 6.4691092,34.6770121 6.30357271,34.8181726 L6.30357271,34.8181726 L6.14657347,34.9520178 L6.05733704,35.0291463 C5.97264479,35.1028735 5.90190212,35.1659812 5.8479626,35.2147257 L5.76333325,35.2919546 L5.76333325,35.2919546 L5.73940702,35.3141262 L5.70690006,35.2655986 C5.59577774,35.0853323 5.46902194,34.7231776 5.68737247,34.2747158 L5.68737247,34.2747158 L5.75639628,34.1492868 L5.81766484,34.0566353 C5.97381886,33.8387163 6.22404742,33.6094448 6.60438936,33.3850373 L6.60438936,33.3850373 L6.77546424,33.2892077 L6.94299581,33.2037335 C7.40617616,32.9768374 8.00352909,32.7593869 8.80073567,32.5793532 L8.80073567,32.5793532 Z M102.025155,30.7987824 L102.101895,31.0837017 C102.16893,31.3737591 102.207718,31.6775424 102.226031,31.9798532 L102.237809,32.2811103 L102.236739,32.5298553 C102.226013,32.8603659 102.17846,33.1848699 102.098561,33.4864601 L102.032642,33.7080922 L101.976872,33.8676129 C101.699383,34.597774 101.180885,35.1229482 100.430058,35.2237366 L100.265614,35.2387585 L100.270009,35.2291621 C100.287403,35.1911855 100.355302,35.0429594 100.453602,34.828648 L100.505192,34.7161896 L100.590874,34.5134672 C100.681196,34.2997065 100.784362,34.0553743 100.890699,33.8033605 L100.997736,33.549634 L101.104481,33.2915794 C101.208161,33.0351792 101.302357,32.7862236 101.384424,32.5670467 L101.46235,32.3586232 L101.505949,32.2403698 C101.590779,32.0103242 101.648983,31.8527195 101.662208,31.8169128 C101.645906,31.8516118 101.575699,32.0071297 101.473987,32.2327396 L101.420596,32.3511866 L101.326707,32.5567166 C101.22811,32.7727049 101.115735,33.0176584 100.992725,33.2698918 L100.866286,33.5237487 L100.739337,33.7726734 C100.604875,34.0363918 100.474883,34.2915226 100.3631,34.5109607 L100.282891,34.6684233 L100.225096,34.7785773 C100.127861,34.9621785 100.052522,35.0958453 100.020929,35.1512036 L100.004728,35.1794082 L99.9637058,35.1425586 C99.8026598,34.9923598 99.5372848,34.6747865 99.5836438,34.1418396 L99.6043287,33.9911146 L99.6347083,33.859699 C99.7191029,33.5442755 99.900309,33.1666457 100.225589,32.7121509 C100.596905,32.1928714 101.189945,31.5606117 102.025155,30.7987824 Z M1.97484502,30.7987824 C2.81005457,31.5606117 3.40309511,32.1928714 3.77441133,32.7121509 C4.09969097,33.1666457 4.28089705,33.5442755 4.36529165,33.859699 L4.36529165,33.859699 L4.39567133,33.9911146 L4.41635621,34.1418396 C4.46271518,34.6747865 4.1973402,34.9923598 4.03629417,35.1425586 L4.03629417,35.1425586 L3.99527178,35.1794082 L3.97907087,35.1512036 C3.94747835,35.0958453 3.87213891,34.9621785 3.77490372,34.7785773 L3.77490372,34.7785773 L3.71710856,34.6684233 L3.63689984,34.5109607 C3.52511655,34.2915226 3.39512478,34.0363918 3.26066287,33.7726734 L3.26066287,33.7726734 L3.13371447,33.5237487 L3.00727518,33.2698918 C2.88426483,33.0176584 2.77189035,32.7727049 2.67329272,32.5567166 L2.67329272,32.5567166 L2.5794037,32.3511866 L2.52601269,32.2327396 C2.42430072,32.0071297 2.35409445,31.8516118 2.33493106,31.809168 L2.337,31.816 L2.34616011,31.8395717 C2.36451851,31.8892851 2.40448739,31.997543 2.45937907,32.1463579 L2.49405132,32.2403698 L2.53765042,32.3586232 L2.61557644,32.5670467 C2.69764323,32.7862236 2.79183862,33.0351792 2.89551921,33.2915794 L2.89551921,33.2915794 L3.00226363,33.549634 L3.10930061,33.8033605 C3.21563844,34.0553743 3.31880416,34.2997065 3.40912601,34.5134672 L3.40912601,34.5134672 L3.49480834,34.7161896 L3.54639844,34.828648 C3.64469806,35.0429594 3.71259719,35.1911855 3.72999083,35.2291621 L3.72999083,35.2291621 L3.73438578,35.2387585 L3.56994154,35.2237366 C2.8191152,35.1229482 2.30061712,34.597774 2.02312808,33.8676129 L2.02312808,33.8676129 L1.96735823,33.7080922 L1.90143884,33.4864601 C1.8215397,33.1848699 1.77398735,32.8603659 1.76326108,32.5298553 L1.76326108,32.5298553 L1.76219125,32.2811103 L1.77396856,31.9798532 C1.79228241,31.6775424 1.83106977,31.3737591 1.89810537,31.0837017 L1.89810537,31.0837017 Z M94.266388,28.5839428 L94.5300097,28.621916 C96.0640153,28.8593821 96.8354292,29.2784256 97.177852,29.6749376 L97.2338943,29.7446349 L97.3084374,29.8534762 C97.5239571,30.2086587 97.4477643,30.520688 97.3759142,30.6822779 L97.3525312,30.7304223 L97.3446344,30.7248456 C97.2773741,30.677347 96.7904915,30.333517 96.2712316,29.9668923 L96.1409662,29.8749196 L95.9615596,29.7502558 C95.782844,29.6270291 95.607964,29.5092907 95.45278,29.407636 L95.3047488,29.3117351 L95.2219675,29.2581756 C95.0642369,29.1561114 94.9552909,29.0855413 94.9273825,29.0674613 L94.9203307,29.0628927 L94.9288673,29.0693367 C94.9569764,29.090553 95.0527608,29.1628349 95.1902482,29.2664296 L95.2775372,29.3321859 L95.4153414,29.4358976 C95.5434724,29.5335552 95.6854537,29.6447915 95.8318062,29.7615574 L96.0534283,29.9398474 L96.2210461,30.0760139 C96.3875294,30.2112846 96.5489332,30.3424983 96.6901744,30.4573296 L96.8241362,30.5662435 L96.8993914,30.6288896 C97.0428075,30.7482813 97.1420148,30.8308997 97.1674329,30.8520684 L97.1738559,30.8574176 L97.0159917,30.9066044 C96.3883686,31.0694413 95.8085902,30.8313123 95.3429027,30.4064982 C94.8481983,29.9431367 94.4509662,29.2628247 94.266388,28.5839428 Z M9.73361205,28.5839428 C9.54903376,29.2628247 9.1518017,29.9431367 8.65709734,30.4064982 C8.19140984,30.8313123 7.61163136,31.0694413 6.98400828,30.9066044 L6.98400828,30.9066044 L6.82614408,30.8574176 C6.85798517,30.8308997 6.95719251,30.7482813 7.10060861,30.6288896 L7.10060861,30.6288896 L7.17586378,30.5662435 L7.30982558,30.4573296 C7.45106684,30.3424983 7.61247062,30.2112846 7.7789539,30.0760139 L7.7789539,30.0760139 L7.94657172,29.9398474 L8.16819381,29.7615574 C8.31454627,29.6447915 8.45652764,29.5335552 8.58465857,29.4358976 L8.58465857,29.4358976 L8.72246282,29.3321859 L8.80975181,29.2664296 C8.94723918,29.1628349 9.04302364,29.090553 9.07113271,29.0693367 L9.07113271,29.0693367 L9.07966931,29.0628927 C9.0447091,29.0855413 8.93576307,29.1561114 8.77803253,29.2581756 L8.77803253,29.2581756 L8.6952512,29.3117351 L8.54721999,29.407636 C8.39203601,29.5092907 8.217156,29.6270291 8.03844045,29.7502558 L8.03844045,29.7502558 L7.85903381,29.8749196 L7.7287684,29.9668923 C7.20950848,30.333517 6.72262585,30.677347 6.65536555,30.7248456 L6.65536555,30.7248456 L6.64746884,30.7304223 L6.62408578,30.6822779 C6.55223574,30.520688 6.47604292,30.2086587 6.69156258,29.8534762 L6.69156258,29.8534762 L6.76610574,29.7446349 L6.82214801,29.6749376 C7.16457083,29.2784256 7.93598469,28.8593821 9.46999034,28.621916 L9.46999034,28.621916 Z M100.397353,26.4201588 L100.482691,26.671663 C100.694905,27.3525905 100.781461,28.1086902 100.67476,28.7761631 L100.625556,29.0219911 L100.585587,29.1791544 C100.395109,29.8486263 99.9794142,30.3627495 99.3137582,30.528536 L99.1556969,30.560523 C99.1677907,30.5275075 99.1932644,30.4572535 99.2290281,30.3532173 L99.2895877,30.1733926 L99.3241498,30.0674148 L99.450156,29.6682397 C99.4958807,29.523513 99.5446555,29.3692354 99.5944622,29.2117588 L99.6696942,28.9739388 L99.7445586,28.7330606 C99.8183911,28.4934546 99.8882014,28.260243 99.9456551,28.0566248 L99.9986812,27.8637302 L100.028877,27.7543684 C100.086382,27.5459932 100.12594,27.4020742 100.136068,27.3652071 L100.138627,27.3558917 L100.135356,27.3651543 C100.122411,27.4018119 100.071889,27.544908 99.9988522,27.752028 L99.9605273,27.860727 L99.8926785,28.0522749 C99.8198516,28.2544104 99.7330716,28.4857582 99.6411706,28.7233666 L99.5478898,28.9622117 L99.4541885,29.1976692 C99.3610954,29.4315672 99.2707908,29.6584222 99.1919514,29.8569503 L99.1172551,30.0452478 L99.0751587,30.1498754 C98.9940435,30.3492995 98.9328106,30.4874348 98.9169709,30.5228322 L98.912952,30.5317774 L98.8685064,30.499783 C98.6925155,30.3675163 98.3879525,30.0675817 98.4395562,29.4952205 C98.5021861,28.8636759 98.9531215,27.9273709 100.397353,26.4201588 Z M3.60264698,26.4201588 C5.0468785,27.9273709 5.49781391,28.8636759 5.56044383,29.4952205 C5.61204752,30.0675817 5.30748455,30.3675163 5.13149363,30.499783 L5.13149363,30.499783 L5.08704803,30.5317774 C5.06718935,30.4874348 5.00595646,30.3492995 4.92484127,30.1498754 L4.92484127,30.1498754 L4.88274492,30.0452478 L4.80804859,29.8569503 C4.72920919,29.6584222 4.63890462,29.4315672 4.54581151,29.1976692 L4.54581151,29.1976692 L4.45211024,28.9622117 L4.35882938,28.7233666 C4.2669284,28.4857582 4.18014839,28.2544104 4.10732146,28.0522749 L4.10732146,28.0522749 L4.03947267,27.860727 L4.00114783,27.752028 C3.92811109,27.544908 3.87758872,27.4018119 3.86464431,27.3651543 L3.86464431,27.3651543 L3.86137334,27.3558917 L3.86393202,27.3652071 C3.87406045,27.4020742 3.91361752,27.5459932 3.97112332,27.7543684 L3.97112332,27.7543684 L4.00131881,27.8637302 L4.0543449,28.0566248 C4.11179856,28.260243 4.18160889,28.4934546 4.25544136,28.7330606 L4.25544136,28.7330606 L4.33030585,28.9739388 L4.40553777,29.2117588 C4.45534454,29.3692354 4.50411928,29.523513 4.54984401,29.6682397 L4.54984401,29.6682397 L4.67585022,30.0674148 L4.71041225,30.1733926 L4.77097194,30.3532173 C4.80673556,30.4572535 4.83220934,30.5275075 4.84430311,30.560523 L4.84430311,30.560523 L4.68624177,30.528536 C4.02058585,30.3627495 3.60489072,29.8486263 3.41441335,29.1791544 L3.41441335,29.1791544 L3.37444372,29.0219911 L3.32524007,28.7761631 C3.21853942,28.1086902 3.30509483,27.3525905 3.51730861,26.671663 L3.51730861,26.671663 Z M93.607838,25.3365506 L93.8640847,25.3612237 C95.1054636,25.4956683 95.7545053,25.7928231 96.0577806,26.0962851 L96.1138985,26.1570152 L96.1920535,26.2597466 C96.3714716,26.5316506 96.3279906,26.7832079 96.2790731,26.9190094 L96.2608989,26.9643226 L96.2519238,26.9587667 C96.1875083,26.9188912 95.7857777,26.6702008 95.3531055,26.4022526 L95.222682,26.32148 L95.1023465,26.2491804 C94.8223832,26.08173 94.5521529,25.9251308 94.3755656,25.8237026 L94.2490953,25.7513092 C94.2158875,25.732371 94.1922812,25.7189703 94.1802335,25.7121407 L94.1710753,25.7069539 L94.1796618,25.7126499 C94.2412691,25.7535558 94.6251707,26.0090789 95.0314589,26.2936342 L95.1537171,26.3796862 L95.2653309,26.460245 C95.710012,26.781179 96.1228251,27.0788759 96.1228251,27.0788759 C95.0143476,27.5661205 93.992976,26.4426118 93.607838,25.3365506 Z M10.392162,25.3365506 C10.007024,26.4426118 8.98565245,27.5661205 7.87717489,27.0788759 C7.87717489,27.0788759 8.28998796,26.781179 8.73466913,26.460245 L8.73466913,26.460245 L8.84628288,26.3796862 L8.96854106,26.2936342 C9.37482932,26.0090789 9.75873086,25.7535558 9.82033819,25.7126499 L9.82033819,25.7126499 L9.8289247,25.7069539 L9.81976654,25.7121407 C9.80771876,25.7189703 9.78411246,25.732371 9.75090473,25.7513092 L9.75090473,25.7513092 L9.62443436,25.8237026 C9.44784715,25.9251308 9.17761681,26.08173 8.89765351,26.2491804 L8.89765351,26.2491804 L8.77731799,26.32148 L8.64689447,26.4022526 C8.21422234,26.6702008 7.81249173,26.9188912 7.74807624,26.9587667 L7.74807624,26.9587667 L7.73910111,26.9643226 L7.72092692,26.9190094 C7.67200935,26.7832079 7.62852835,26.5316506 7.80794651,26.2597466 L7.80794651,26.2597466 L7.88610145,26.1570152 L7.94221935,26.0962851 C8.24549468,25.7928231 8.89453637,25.4956683 10.1359153,25.3612237 L10.1359153,25.3612237 Z M98.7757421,23.0037255 L98.8636894,23.2246294 C99.0862707,23.8229538 99.2097406,24.489778 99.1488833,25.0935942 L99.1172551,25.3168149 L99.0862587,25.4706419 C98.9461514,26.0758394 98.6111616,26.5552599 98.0300621,26.7486856 L97.8796303,26.7909911 L97.8820556,26.7814842 L97.9157949,26.6492518 C97.9718622,26.4295368 98.085942,25.9825952 98.2066307,25.5104062 L98.2520984,25.3325463 L98.3066817,25.1117196 C98.3590628,24.8928654 98.4050063,24.6818574 98.4460363,24.4960563 L98.4854848,24.3193004 L98.5073918,24.2195158 C98.549154,24.0293595 98.5781204,23.8978576 98.5855442,23.8641663 L98.5874204,23.8556529 C98.575666,23.8954711 98.5383845,24.0217582 98.484728,24.2034536 L98.4506424,24.3188714 L98.3978398,24.4953561 C98.3427669,24.6807899 98.280873,24.8911527 98.2120647,25.1091763 L98.1409482,25.329114 L98.0926149,25.4741694 C97.8837922,26.1008699 97.6870885,26.6911055 97.6600535,26.7722274 L97.6568982,26.7816952 L97.6090576,26.7536772 C97.4370372,26.6460694 97.1531887,26.3924403 97.1682408,25.8764241 C97.1899813,25.3029426 97.5366775,24.4332817 98.7757421,23.0037255 Z M5.22425794,23.0037255 C6.46332248,24.4332817 6.81001867,25.3029426 6.83175917,25.8764241 C6.8468113,26.3924403 6.56296277,26.6460694 6.39094238,26.7536772 L6.39094238,26.7536772 L6.34310184,26.7816952 C6.31291145,26.6911055 6.11620784,26.1008699 5.90738505,25.4741694 L5.90738505,25.4741694 L5.85905176,25.329114 L5.78793527,25.1091763 C5.71912702,24.8911527 5.65723311,24.6807899 5.60216025,24.4953561 L5.60216025,24.4953561 L5.54935761,24.3188714 L5.51527195,24.2034536 C5.46161548,24.0217582 5.42433399,23.8954711 5.41257963,23.8556529 L5.41257963,23.8556529 C5.42187963,23.8978576 5.45084597,24.0293595 5.49260825,24.2195158 L5.49260825,24.2195158 L5.51451522,24.3193004 L5.55396372,24.4960563 C5.59499366,24.6818574 5.64093724,24.8928654 5.69331831,25.1117196 L5.69331831,25.1117196 L5.74790165,25.3325463 L5.79336931,25.5104062 C5.91405802,25.9825952 6.02813776,26.4295368 6.0842051,26.6492518 L6.0842051,26.6492518 L6.11794444,26.7814842 L6.12036969,26.7909911 L5.96993789,26.7486856 C5.38883841,26.5552599 5.05384862,26.0758394 4.91374133,25.4706419 L4.91374133,25.4706419 L4.88274492,25.3168149 L4.85111667,25.0935942 C4.79025939,24.489778 4.91372931,23.8229538 5.13631056,23.2246294 L5.13631056,23.2246294 Z M94.2450794,20.5 C95.9619967,21.8801235 96.648923,22.996328 96.8631645,23.7741444 L96.8895017,23.8781059 L96.9215748,24.0540924 C97.0107648,24.6761018 96.798783,25.0437099 96.6602604,25.210374 L96.6245843,25.250886 C96.6021957,25.2040433 96.5189085,25.0298102 96.398211,24.7776553 L96.3442615,24.6649624 L96.237608,24.4409643 C96.124888,24.204976 95.9948458,23.9360375 95.8553807,23.6613328 L95.5714941,23.1099989 C95.422042,22.8177603 95.2786877,22.5348122 95.1520746,22.293321 L95.0604201,22.1204783 L95.0009358,22.0112548 C94.8868919,21.8018699 94.8034138,21.6487155 94.7688025,21.5852248 L94.7589585,21.569 L94.7667564,21.5858926 C94.7973624,21.6506874 94.8712184,21.806961 94.9723695,22.0204327 L95.0251458,22.1317763 L95.1270941,22.3544553 C95.2332833,22.589867 95.3514042,22.8604632 95.4743351,23.139122 L95.5986055,23.4194638 L95.7235854,23.6996453 C95.8540335,23.9973573 95.9744798,24.2879462 96.0768851,24.5383083 L96.1501807,24.7180202 L96.1970186,24.8322419 C96.3017784,25.0877079 96.373751,25.2631678 96.3901073,25.3030411 L96.3936455,25.3116664 L96.2349448,25.2882797 C95.5633982,25.1522878 95.0999467,24.5724427 94.7690493,23.8056893 L94.695007,23.6255452 L94.5891054,23.3093651 C94.3240569,22.4459066 94.1991348,21.4299012 94.2450794,20.5 Z M9.75492062,20.5 C9.80086522,21.4299012 9.67594311,22.4459066 9.41089461,23.3093651 L9.41089461,23.3093651 L9.30499304,23.6255452 L9.23095073,23.8056893 C8.90005326,24.5724427 8.4366018,25.1522878 7.76505517,25.2882797 L7.76505517,25.2882797 L7.60635448,25.3116664 C7.62624896,25.2631678 7.69822157,25.0877079 7.8029814,24.8322419 L7.8029814,24.8322419 L7.84981929,24.7180202 L7.92311495,24.5383083 C8.02552022,24.2879462 8.14596649,23.9973573 8.27641456,23.6996453 L8.27641456,23.6996453 L8.4013945,23.4194638 L8.52566493,23.139122 C8.64859579,22.8604632 8.76671668,22.589867 8.87290593,22.3544553 L8.87290593,22.3544553 L8.97485419,22.1317763 L9.02763048,22.0204327 C9.12878161,21.806961 9.20263757,21.6506874 9.2332436,21.5858926 L9.2332436,21.5858926 L9.2410415,21.569 L9.23119751,21.5852248 C9.1965862,21.6487155 9.11310808,21.8018699 8.99906422,22.0112548 L8.99906422,22.0112548 L8.93957987,22.1204783 L8.84792535,22.293321 C8.72131229,22.5348122 8.577958,22.8177603 8.42850591,23.1099989 L8.42850591,23.1099989 L8.14461932,23.6613328 C8.00515416,23.9360375 7.87511199,24.204976 7.76239196,24.4409643 L7.76239196,24.4409643 L7.65573853,24.6649624 L7.60178904,24.7776553 C7.48109145,25.0298102 7.39780428,25.2040433 7.37541566,25.250886 L7.37541566,25.250886 L7.33973955,25.210374 C7.20121701,25.0437099 6.98923522,24.6761018 7.07842522,24.0540924 L7.07842522,24.0540924 L7.1104983,23.8781059 L7.13683553,23.7741444 C7.35107704,22.996328 8.03800326,21.8801235 9.75492062,20.5 Z" id="形状结合" fill="url(#linearGradient-1)"></path>
            <path d="M52,7.5 L62.5,32.5 L77.5,16.5 L70,55 L34,55 L26.5,16.5 L41.5,32.5 L52,7.5 Z M52,14.2065 L42.5236891,37.1608258 L31.2265,25.123 L36.418,52 L67.5805,52 L72.772,25.123 L61.4763109,37.1608258 L52,14.2065 Z M62,45.5 L62,48.5 L42,48.5 L42,45.5 L62,45.5 Z M25,9 C26.6568542,9 28,10.3431458 28,12 C28,13.6568542 26.6568542,15 25,15 C23.3431458,15 22,13.6568542 22,12 C22,10.3431458 23.3431458,9 25,9 Z M79,9 C80.6568542,9 82,10.3431458 82,12 C82,13.6568542 80.6568542,15 79,15 C77.3431458,15 76,13.6568542 76,12 C76,10.3431458 77.3431458,9 79,9 Z M52,0 C53.6568542,0 55,1.34314575 55,3 C55,4.65685425 53.6568542,6 52,6 C50.3431458,6 49,4.65685425 49,3 C49,1.34314575 50.3431458,0 52,0 Z" id="形状结合" fill="url(#linearGradient-2)"></path>
        </g>
    </g>
</svg>