<?xml version="1.0" encoding="UTF-8"?>
<svg width="104px" height="70px" viewBox="0 0 104 70" version="1.1" xmlns="http://www.w3.org/2000/svg" xmlns:xlink="http://www.w3.org/1999/xlink">
    <title>培训实践奖</title>
    <defs>
        <linearGradient x1="50%" y1="0%" x2="50%" y2="100%" id="linearGradient-1">
            <stop stop-color="#B67BFF" offset="0%"></stop>
            <stop stop-color="#5C50E6" offset="99.9811346%"></stop>
        </linearGradient>
        <linearGradient x1="50%" y1="0%" x2="50%" y2="100%" id="linearGradient-2">
            <stop stop-color="#D2AEFF" offset="0%"></stop>
            <stop stop-color="#8975FF" offset="100%"></stop>
        </linearGradient>
    </defs>
    <g id="培训实践奖" stroke="none" stroke-width="1" fill="none" fill-rule="evenodd">
        <g id="编组-12" transform="translate(0.000000, 0.000000)">
            <path d="M96.384,24.436 L96.6468293,25.1163118 C98.1568105,29.0988209 99.302075,33.2596865 99.6882593,37.547997 L99.7484495,38.3060703 L99.7888068,39.0267005 C99.8251599,39.7963246 99.8386669,40.5687604 99.8156649,41.3417586 L99.7913546,41.9215775 L99.7584699,42.5243712 C99.7065662,43.3281775 99.6216119,44.1318989 99.4937525,44.9306202 L99.3896592,45.5286469 L99.275071,46.1247131 C99.1134544,46.9182621 98.9160248,47.706419 98.6769806,48.4823616 L98.4898041,49.0619217 L98.2858842,49.6368981 C98.0042469,50.4004489 97.6836932,51.1511815 97.3249483,51.8833329 L97.0487401,52.4288726 L96.782205,52.9263169 C95.7823104,54.7382682 94.5358548,56.4168004 93.109914,57.9191128 L92.7166214,58.3244332 L92.2401883,58.7920424 C90.7940033,60.1766373 89.1979806,61.3974193 87.5096861,62.4620649 L86.9435828,62.8111744 L86.2420897,63.2217537 C84.5948183,64.1607635 82.8754886,64.9669745 81.1076748,65.6458369 L80.3471406,65.928997 L79.9253065,66.0780342 L79.5014208,66.2228883 L78.9155737,66.4156749 L78.3259513,66.5989591 L78.3259513,66.5989591 L77.7325215,66.7747748 L77.2951379,66.8958709 L76.8557027,67.0124621 L76.2640646,67.1603851 L75.6679792,67.2983924 L75.6679792,67.2983924 L75.0669346,67.4256262 L74.6135696,67.5146338 L74.1585848,67.5953824 L73.6938276,67.668605 L73.4633208,67.702356 L73.2581538,67.7283843 L72.9299406,67.7667833 L72.6059388,67.8159082 L72.4454406,67.8572389 L72.2868861,67.9007148 L72.1342707,67.957759 L71.9794956,68.0168412 L71.7421216,68.1292973 C71.5084057,68.2486284 71.2854502,68.3876986 71.0713267,68.5385382 L70.8600758,68.6930058 L70.603941,68.89637 L70.355869,69.1170388 L70.0962968,69.3594813 L69.8407199,69.6120062 L69.6561236,69.8028926 L69.4757387,70 L67.9609585,70 L68.2697595,69.6427877 C68.6872869,69.1715367 69.1286612,68.7216739 69.6019877,68.3083271 L69.9631002,68.0054002 L70.2377654,67.7936439 C70.5172002,67.587551 70.810868,67.3994262 71.1180846,67.2380734 L71.4297921,67.0859707 L71.6974983,66.9778583 C71.8177634,66.9334361 71.9397159,66.8940234 72.0632548,66.8603108 L72.2497401,66.8141034 L72.5356141,66.7665648 L72.8226399,66.7349802 L72.8226399,66.7349802 L73.1101456,66.709561 L73.685098,66.6389847 C74.2590162,66.5607212 74.8299384,66.4601443 75.3988288,66.3439882 L75.9670777,66.2228883 L76.2929333,66.1492904 L76.6190048,66.0730109 L77.1770049,65.9342527 L77.7325215,65.784554 L78.5082206,65.5659881 C78.8519733,65.4648056 79.1943609,65.3583782 79.5352695,65.2472833 L80.0455092,65.0772126 L80.7930173,64.8139425 C82.5311642,64.1817399 84.2258496,63.4239479 85.8520767,62.535318 L86.544767,62.1464509 L87.1039942,61.8151543 C88.7721159,60.8043674 90.35204,59.6410994 91.7855698,58.3143841 L92.2579113,57.8660771 L92.6487432,57.4777939 C94.0545599,56.0499797 95.2906077,54.450055 96.2955438,52.7131761 L96.5900299,52.188039 L96.8694909,51.6583579 C97.2328964,50.947563 97.5594758,50.2188226 97.8493572,49.4753572 L98.0598893,48.9150475 L98.25409,48.3493073 C98.502594,47.5915248 98.7100166,46.8204367 98.8840366,46.0425688 L99.0084086,45.4579986 L99.1212051,44.8698007 C99.2609533,44.0840803 99.3589588,43.2927348 99.4253748,42.4981794 L99.4694224,41.9016987 L99.5095159,41.186487 C99.5486039,40.2321499 99.5325706,39.2752682 99.4897231,38.3199426 C99.2601634,33.7932254 98.1565584,29.3657267 96.6341846,25.1211069 L96.384,24.436 Z M7.615,24.436 L7.36581537,25.1211069 C5.84344164,29.3657267 4.73983656,33.7932254 4.51027688,38.3199426 C4.46742937,39.2752682 4.45139612,40.2321499 4.4904841,41.186487 L4.4904841,41.186487 L4.53057761,41.9016987 L4.57462519,42.4981794 C4.64104116,43.2927348 4.73904672,44.0840803 4.87879489,44.8698007 L4.87879489,44.8698007 L4.9915914,45.4579986 L5.11596338,46.0425688 C5.28998336,46.8204367 5.49740597,47.5915248 5.74590997,48.3493073 L5.74590997,48.3493073 L5.94011071,48.9150475 L6.15064282,49.4753572 C6.44052415,50.2188226 6.76710358,50.947563 7.13050908,51.6583579 L7.13050908,51.6583579 L7.4099701,52.188039 L7.70445623,52.7131761 C8.70939231,54.450055 9.94544009,56.0499797 11.3512568,57.4777939 L11.3512568,57.4777939 L11.7420887,57.8660771 L12.2144302,58.3143841 C13.64796,59.6410994 15.2278841,60.8043674 16.8960058,61.8151543 L16.8960058,61.8151543 L17.455233,62.1464509 L18.1479233,62.535318 C19.7741504,63.4239479 21.4688358,64.1817399 23.2069827,64.8139425 L23.2069827,64.8139425 L23.9544908,65.0772126 L24.4647305,65.2472833 C24.8056391,65.3583782 25.1480267,65.4648056 25.4917794,65.5659881 L25.4917794,65.5659881 L26.2674785,65.784554 L26.8229951,65.9342527 L27.3809952,66.0730109 L27.7070667,66.1492904 L28.0329223,66.2228883 L28.6011712,66.3439882 C29.1700616,66.4601443 29.7409838,66.5607212 30.314902,66.6389847 L30.314902,66.6389847 L30.8898544,66.709561 L31.1773601,66.7349802 L31.1773601,66.7349802 L31.4643859,66.7665648 L31.7502599,66.8141034 L31.9367452,66.8603108 C32.0602841,66.8940234 32.1822366,66.9334361 32.3025017,66.9778583 L32.3025017,66.9778583 L32.5702079,67.0859707 L32.8819154,67.2380734 C33.189132,67.3994262 33.4827998,67.587551 33.7622346,67.7936439 L33.7622346,67.7936439 L34.0368998,68.0054002 L34.3980123,68.3083271 C34.8713388,68.7216739 35.3127131,69.1715367 35.7302405,69.6427877 L35.7302405,69.6427877 L36.0390415,70 L34.5242613,70 L34.3438764,69.8028926 L34.1592801,69.6120062 L33.9037032,69.3594813 L33.644131,69.1170388 L33.396059,68.89637 L33.1399242,68.6930058 L32.9286733,68.5385382 C32.7145498,68.3876986 32.4915943,68.2486284 32.2578784,68.1292973 L32.2578784,68.1292973 L32.0205044,68.0168412 L31.8657293,67.957759 L31.7131139,67.9007148 L31.5545594,67.8572389 L31.3940612,67.8159082 L31.0700594,67.7667833 L30.7418462,67.7283843 L30.5366792,67.702356 L30.3061724,67.668605 L29.8414152,67.5953824 L29.3864304,67.5146338 L28.9330654,67.4256262 L28.3320208,67.2983924 L28.3320208,67.2983924 L27.7359354,67.1603851 L27.1442973,67.0124621 L26.7048621,66.8958709 L26.2674785,66.7747748 L25.6740487,66.5989591 L25.6740487,66.5989591 L25.0844263,66.4156749 L24.4985792,66.2228883 L24.0746935,66.0780342 L23.6528594,65.928997 L22.8923252,65.6458369 C21.1245114,64.9669745 19.4051817,64.1607635 17.7579103,63.2217537 L17.7579103,63.2217537 L17.0564172,62.8111744 L16.4903139,62.4620649 C14.8020194,61.3974193 13.2059967,60.1766373 11.7598117,58.7920424 L11.7598117,58.7920424 L11.2833786,58.3244332 L10.890086,57.9191128 C9.46414523,56.4168004 8.21768958,54.7382682 7.21779498,52.9263169 L7.21779498,52.9263169 L6.95125994,52.4288726 L6.67505173,51.8833329 C6.31630682,51.1511815 5.99575308,50.4004489 5.71411575,49.6368981 L5.71411575,49.6368981 L5.51019591,49.0619217 L5.32301938,48.4823616 C5.08397519,47.706419 4.88654564,46.9182621 4.72492899,46.1247131 L4.72492899,46.1247131 L4.61034077,45.5286469 L4.50624753,44.9306202 C4.37838811,44.1318989 4.29343378,43.3281775 4.24153014,42.5243712 L4.24153014,42.5243712 L4.20864543,41.9215775 L4.18433507,41.3417586 C4.16133313,40.5687604 4.17484014,39.7963246 4.21119325,39.0267005 L4.21119325,39.0267005 L4.25155053,38.3060703 L4.31174071,37.547997 C4.69792505,33.2596865 5.84318947,29.0988209 7.35317075,25.1163118 L7.35317075,25.1163118 L7.615,24.436 Z M16.5595532,63.7663571 C16.7851649,63.7663571 16.9874524,63.7830896 17.1701589,63.8139804 C18.213406,63.9782216 18.6295103,64.6201034 18.7935901,64.9701374 L18.7935901,64.9701374 L18.8231568,65.0360249 C18.7602136,65.0478089 18.4691599,65.1015293 18.0375475,65.1677128 L18.0375475,65.1677128 L17.8886033,65.1901928 L17.6671444,65.2239795 C17.5139801,65.2465219 17.3502155,65.2689928 17.1785501,65.2907486 L17.1785501,65.2907486 L16.9154639,65.3227656 L16.5481097,65.3665435 L16.5481097,65.3665435 L16.1683415,65.4063169 L15.7815025,65.4407512 L15.391352,65.4734747 L15.391352,65.4734747 L15.0050088,65.499842 L14.6281041,65.5194083 L14.3538508,65.5331219 C14.1742847,65.5412959 14.0018635,65.5474768 13.8402225,65.5513247 L13.8402225,65.5513247 L13.6063006,65.5553045 L13.4307814,65.5569257 C13.2617065,65.5585286 13.1125868,65.5600491 12.9890202,65.5612401 L12.9890202,65.5612401 L12.8741785,65.5623121 L12.7918197,65.5612316 C12.7160519,65.5602186 12.6604049,65.5594201 12.6280101,65.5589434 L12.6280101,65.5589434 L12.5951514,65.5584508 C12.6251939,65.5609191 12.6896929,65.5661841 12.7895035,65.5740762 L12.7895035,65.5740762 L12.870867,65.5804747 L12.9844164,65.5871071 C13.1066112,65.5941845 13.254131,65.6025697 13.4214713,65.6120154 L13.4214713,65.6120154 L13.5952144,65.6218055 L13.8619598,65.6341392 C14.3240541,65.6531811 14.8687986,65.6641135 15.4220536,65.6588579 L15.4220536,65.6588579 L15.7544348,65.6536973 L15.9661099,65.6497744 C17.3726161,65.6178626 18.6682083,65.4747783 18.791194,65.460916 L18.791194,65.460916 L18.715239,65.6466187 C18.2016824,66.7906184 17.0766185,67.3254516 15.6910158,67.311692 L15.6910158,67.311692 L15.4807349,67.3054954 L15.1872245,67.2857862 C13.804761,67.1562897 12.2549442,66.5070791 11.00509,65.5719244 L11.00509,65.5719244 L10.7420257,65.3672426 L11.1112674,65.2262664 C12.5619273,64.6756975 13.6994742,64.2851661 14.6164795,64.0548525 L14.6164795,64.0548525 L14.8411898,64.0006121 L15.1298004,63.9361663 C15.5979392,63.8380003 16.0024322,63.7855212 16.354508,63.770755 L16.354508,63.770755 Z M87.4404468,63.7663571 L87.645492,63.770755 C87.9975678,63.7855212 88.4020608,63.8380003 88.8701996,63.9361663 L89.1588102,64.0006121 L89.3835205,64.0548525 C90.3005258,64.2851661 91.4380727,64.6756975 92.8887326,65.2262664 L93.2579743,65.3672426 L92.99491,65.5719244 C91.7450558,66.5070791 90.195239,67.1562897 88.8127755,67.2857862 L88.5192651,67.3054954 L88.3089842,67.311692 C86.9233815,67.3254516 85.7983176,66.7906184 85.284761,65.6466187 L85.208806,65.460916 C85.3317917,65.4747783 86.6273839,65.6178626 88.0338901,65.6497744 L88.2455652,65.6536973 L88.5779464,65.6588579 C89.1312014,65.6641135 89.6759459,65.6531811 90.1380402,65.6341392 L90.4047856,65.6218055 L90.5785287,65.6120154 C90.745869,65.6025697 90.8933888,65.5941845 91.0155836,65.5871071 L91.129133,65.5804747 L91.2104965,65.5740762 C91.3103071,65.5661841 91.3748061,65.5609191 91.3966133,65.5591288 L91.4048486,65.5584508 L91.3719899,65.5589434 C91.3395951,65.5594201 91.2839481,65.5602186 91.2081803,65.5612316 L91.1258215,65.5623121 L91.0109798,65.5612401 C90.8874132,65.5600491 90.7382935,65.5585286 90.5692186,65.5569257 L90.3936994,65.5553045 L90.1597775,65.5513247 C89.9981365,65.5474768 89.8257153,65.5412959 89.6461492,65.5331219 L89.3718959,65.5194083 L88.9949912,65.499842 L88.608648,65.4734747 L88.608648,65.4734747 L88.2184975,65.4407512 L87.8316585,65.4063169 L87.4518903,65.3665435 L87.4518903,65.3665435 L87.0845361,65.3227656 L86.8214499,65.2907486 C86.6497845,65.2689928 86.4860199,65.2465219 86.3328556,65.2239795 L86.1113967,65.1901928 L85.9624525,65.1677128 C85.5308401,65.1015293 85.2397864,65.0478089 85.1858918,65.0377267 L85.1768432,65.0360249 L85.2064099,64.9701374 C85.3704897,64.6201034 85.786594,63.9782216 86.8298411,63.8139804 C87.0125476,63.7830896 87.2148351,63.7663571 87.4404468,63.7663571 Z M11.4267795,60.6941556 C11.6639093,60.6941556 11.8807384,60.7033085 12.0811541,60.7194689 C12.3735999,60.7449824 12.6240274,60.7938356 12.8446736,60.8540932 L12.8446736,60.8540932 L13.0047655,60.9012382 L13.1871391,60.9694609 C13.5346812,61.1136245 13.7808275,61.302073 13.9586209,61.4983648 L13.9586209,61.4983648 L14.0419745,61.5969956 L14.1351035,61.7298823 C14.2478694,61.9054544 14.3163543,62.0721914 14.3566838,62.2013638 L14.3566838,62.2013638 L14.3819038,62.2907508 L14.3717931,62.2910565 C14.3249838,62.2924252 14.1182663,62.2979763 13.8065826,62.2991967 L13.8065826,62.2991967 L13.5496984,62.2991492 C13.0448073,62.2970144 12.3623395,62.2822116 11.6520324,62.2315396 L11.6520324,62.2315396 L11.4577345,62.2168132 L11.2543276,62.2015349 C9.8983592,62.0920709 8.56371614,61.8367079 8.4368128,61.8120869 L8.4368128,61.8120869 C8.56163033,61.8447467 9.8728227,62.1843815 11.209565,62.3856872 L11.209565,62.3856872 L11.4005757,62.4134558 C12.8059773,62.6245303 14.1676448,62.6801582 14.2913424,62.6848941 L14.2913424,62.6848941 L14.1941761,62.8477878 C13.5526243,63.8447404 12.4195236,64.1839076 11.113603,63.9592405 L11.113603,63.9592405 L10.9060153,63.9190948 L10.6313438,63.8543092 C9.34263085,63.5141787 7.96733731,62.6518362 6.93381199,61.5595901 L6.93381199,61.5595901 L6.71772953,61.3221249 L7.11879383,61.2454176 C8.5594533,60.9734554 9.67428971,60.8036245 10.5683438,60.7309858 L10.5683438,60.7309858 L10.7888182,60.7147495 L11.0115823,60.7031178 L11.0115823,60.7031178 L11.2240761,60.6963485 Z M92.5732205,60.6941556 L92.7759239,60.6963485 L92.9884177,60.7031178 L92.9884177,60.7031178 L93.2111818,60.7147495 L93.4316562,60.7309858 C94.3257103,60.8036245 95.4405467,60.9734554 96.8812062,61.2454176 L97.2822705,61.3221249 L97.066188,61.5595901 C96.0326627,62.6518362 94.6573691,63.5141787 93.3686562,63.8543092 L93.0939847,63.9190948 L92.886397,63.9592405 C91.5804764,64.1839076 90.4473757,63.8447404 89.8058239,62.8477878 L89.7086576,62.6848941 C89.8323552,62.6801582 91.1940227,62.6245303 92.5994243,62.4134558 L92.790435,62.3856872 C94.1271773,62.1843815 95.4383697,61.8447467 95.5548071,61.8142867 L95.5631872,61.8120869 C95.4362839,61.8367079 94.1016408,62.0920709 92.7456724,62.2015349 L92.5422655,62.2168132 L92.3479676,62.2315396 C91.6376605,62.2822116 90.9551927,62.2970144 90.4503016,62.2991492 L90.1934174,62.2991967 C89.8817337,62.2979763 89.6750162,62.2924252 89.6282069,62.2910565 L89.6180962,62.2907508 L89.6433162,62.2013638 C89.6836457,62.0721914 89.7521306,61.9054544 89.8648965,61.7298823 L89.9580255,61.5969956 L90.0413791,61.4983648 C90.2191725,61.302073 90.4653188,61.1136245 90.8128609,60.9694609 L90.9952345,60.9012382 L91.1553264,60.8540932 C91.3759726,60.7938356 91.6264001,60.7449824 91.9188459,60.7194689 C92.1192616,60.7033085 92.3360907,60.6941556 92.5732205,60.6941556 Z M85.9351691,54.4158927 L86.052427,54.7882012 C86.5714408,56.5029389 86.7004667,57.9001982 86.6356905,58.9945418 L86.618915,59.2244129 L86.5894544,59.4954251 C86.4659612,60.4632835 86.1759002,61.1488894 85.8385077,61.6225953 L85.7454076,61.746587 L85.6191978,61.892709 C84.8571348,62.7153656 83.977848,62.6324664 83.5690904,62.5183952 L83.5019608,62.4981194 C83.5599204,62.3756129 84.2233867,60.9640799 84.714376,59.4944261 L84.780187,59.2937741 L84.8774338,58.9943329 C85.066481,58.396875 85.2224652,57.8129621 85.3384622,57.3325513 L85.3930963,57.1013875 L85.4242301,56.9559343 C85.5229048,56.491226 85.5810834,56.1811635 85.5917324,56.1237981 C85.5785763,56.1707441 85.5009501,56.4626286 85.3734866,56.900515 L85.3291706,57.0517621 L85.2492308,57.303508 C85.1078375,57.7415192 84.9262525,58.266641 84.7136055,58.802937 L84.5823629,59.125448 L84.4478402,59.4496952 C84.2192193,59.9873608 83.9716883,60.5071291 83.7528372,60.9465099 L83.6253489,61.199992 L83.5545248,61.3363545 C83.3244968,61.7772983 83.1575087,62.0785811 83.1290483,62.1297156 L83.1247415,62.137441 L83.0042204,61.9198991 C82.2520784,60.4681808 82.515507,58.9914518 83.1303566,57.7159136 C83.7913542,56.370306 84.8323066,55.2117591 85.9351691,54.4158927 Z M18.0648309,54.4158927 C19.1676934,55.2117591 20.2086458,56.370306 20.8696434,57.7159136 C21.484493,58.9914518 21.7479216,60.4681808 20.9957796,61.9198991 L20.9957796,61.9198991 L20.8752585,62.137441 C20.8424913,62.0785811 20.6755032,61.7772983 20.4454752,61.3363545 L20.4454752,61.3363545 L20.3746511,61.199992 L20.2471628,60.9465099 C20.0283117,60.5071291 19.7807807,59.9873608 19.5521598,59.4496952 L19.5521598,59.4496952 L19.4176371,59.125448 L19.2863945,58.802937 C19.0737475,58.266641 18.8921625,57.7415192 18.7507692,57.303508 L18.7507692,57.303508 L18.6708294,57.0517621 L18.6265134,56.900515 C18.4990499,56.4626286 18.4214237,56.1707441 18.4064879,56.11417 L18.408,56.123 L18.4135679,56.1521446 C18.4299979,56.2394966 18.4747077,56.4731243 18.5443878,56.8068936 L18.5757699,56.9559343 L18.6069037,57.1013875 L18.6615378,57.3325513 C18.7775348,57.8129621 18.933519,58.396875 19.1225662,58.9943329 L19.1225662,58.9943329 L19.219813,59.2937741 L19.285624,59.4944261 C19.7766133,60.9640799 20.4400796,62.3756129 20.4980392,62.4981194 L20.4980392,62.4981194 L20.4309096,62.5183952 C20.022152,62.6324664 19.1428652,62.7153656 18.3808022,61.892709 L18.3808022,61.892709 L18.2545924,61.746587 L18.1614923,61.6225953 C17.8240998,61.1488894 17.5340388,60.4632835 17.4105456,59.4954251 L17.4105456,59.4954251 L17.381085,59.2244129 L17.3643095,58.9945418 C17.2995333,57.9001982 17.4285592,56.5029389 17.947573,54.7882012 L17.947573,54.7882012 Z M100.538162,56.5589399 L100.380961,56.8196554 C99.6201039,58.0264271 98.4862894,59.0859975 97.3400599,59.6375559 L97.0943807,59.7478398 L96.8479329,59.8422037 C96.6844022,59.9002535 96.5225453,59.9484801 96.3631899,59.9862578 L96.1261366,60.0350095 L95.8905635,60.0640009 C95.7348166,60.0775067 95.5819132,60.0794106 95.4332931,60.0699628 L95.2137555,60.0473086 L95.0237455,60.0119305 C94.586944,59.9126057 94.1965845,59.6953143 93.8643865,59.3488191 L93.725611,59.192378 L93.7353284,59.1899523 C93.7674446,59.1819358 93.877787,59.1543944 94.045713,59.1124945 L94.405711,59.0226834 L94.5487265,58.9870116 L94.7436284,58.9361884 C94.8775853,58.8996844 95.019434,58.8582464 95.1682565,58.8137337 L95.396606,58.7448909 L95.7150454,58.6476316 L96.0427633,58.542586 L96.0427633,58.542586 L96.3726249,58.4279745 L96.7052454,58.3109582 C97.1459504,58.1511493 97.5718419,57.9787553 97.9390227,57.8245398 L98.2027143,57.7127673 L98.3340244,57.6544421 C98.7147593,57.4841096 98.9734493,57.357746 99.0213799,57.3341766 L99.0294292,57.330208 L99.0210593,57.3336563 L98.9017258,57.3818946 C98.781598,57.4298858 98.5826889,57.5079273 98.3307002,57.6016015 L98.173343,57.6595666 L97.9004876,57.7542497 C97.5209674,57.8847594 97.0822673,58.0298989 96.6284551,58.1604723 L96.2859509,58.255215 L95.9473174,58.3479985 L95.6119474,58.432392 L95.6119474,58.432392 L95.284736,58.5079186 L95.0500133,58.5601764 C94.8973529,58.5942045 94.7524492,58.6262483 94.6159862,58.6541269 L94.4177076,58.6925482 L94.271201,58.7181027 C93.8949135,58.783725 93.6373919,58.8285429 93.5848105,58.8376923 L93.5748673,58.8394223 L93.5808363,58.7742167 C93.616121,58.4496578 93.7657509,57.8514388 94.4638621,57.402166 L94.6220107,57.3083271 L94.7608072,57.2343421 C95.1958174,57.0177708 95.8010945,56.8499567 96.6490604,56.739136 C97.5939803,56.6154299 98.8419714,56.5670916 100.538162,56.5589399 Z M3.46183765,56.5589399 C5.1580286,56.5670916 6.40601971,56.6154299 7.3509396,56.739136 C8.1989055,56.8499567 8.80418262,57.0177708 9.23919275,57.2343421 L9.23919275,57.2343421 L9.37798929,57.3083271 L9.53613788,57.402166 C10.2342491,57.8514388 10.383879,58.4496578 10.4191637,58.7742167 L10.4191637,58.7742167 L10.4251327,58.8394223 L10.4151895,58.8376923 C10.3626081,58.8285429 10.1050865,58.783725 9.72879904,58.7181027 L9.72879904,58.7181027 L9.5822924,58.6925482 L9.38401382,58.6541269 C9.24755079,58.6262483 9.10264712,58.5942045 8.94998669,58.5601764 L8.94998669,58.5601764 L8.71526397,58.5079186 L8.38805265,58.432392 L8.38805265,58.432392 L8.05268263,58.3479985 L7.71404915,58.255215 L7.37154495,58.1604723 C6.91773267,58.0298989 6.47903262,57.8847594 6.09951238,57.7542497 L6.09951238,57.7542497 L5.82665697,57.6595666 L5.66929978,57.6016015 C5.41731105,57.5079273 5.21840202,57.4298858 5.09827422,57.3818946 L5.09827422,57.3818946 L4.97894069,57.3336563 L4.97057078,57.330208 C5.02655072,57.357746 5.28524073,57.4841096 5.66597559,57.6544421 L5.66597559,57.6544421 L5.7972857,57.7127673 L6.06097725,57.8245398 C6.42815814,57.9787553 6.85404959,58.1511493 7.29475464,58.3109582 L7.29475464,58.3109582 L7.6273751,58.4279745 L7.95723667,58.542586 L7.95723667,58.542586 L8.28495458,58.6476316 L8.60339398,58.7448909 L8.83174347,58.8137337 C8.98056602,58.8582464 9.12241468,58.8996844 9.25637162,58.9361884 L9.25637162,58.9361884 L9.45127349,58.9870116 L9.59428898,59.0226834 L9.95428705,59.1124945 C10.122213,59.1543944 10.2325554,59.1819358 10.2646716,59.1899523 L10.2646716,59.1899523 L10.274389,59.192378 L10.1356135,59.3488191 C9.80341552,59.6953143 9.41305604,59.9126057 8.97625446,60.0119305 L8.97625446,60.0119305 L8.78624455,60.0473086 L8.56670689,60.0699628 C8.41808681,60.0794106 8.26518343,60.0775067 8.1094365,60.0640009 L8.1094365,60.0640009 L7.87386342,60.0350095 L7.63681008,59.9862578 C7.47745473,59.9484801 7.31559779,59.9002535 7.15206711,59.8422037 L7.15206711,59.8422037 L6.90561928,59.7478398 L6.65994006,59.6375559 C5.51371062,59.0859975 4.37989609,58.0264271 3.61903862,56.8196554 L3.61903862,56.8196554 Z M14.4197697,51.3587076 C15.2055952,52.2911512 15.8377974,53.5161991 16.132374,54.8404978 C16.3908503,56.0900836 16.3315741,57.4616067 15.3780738,58.6257757 L15.3780738,58.6257757 L15.2107784,58.8178274 C15.1723325,58.6917821 14.7731274,57.3676425 14.5619143,56.0156307 L14.5619143,56.0156307 L14.5330794,55.8224238 L14.4875576,55.5066232 C14.4167214,54.9834339 14.3708923,54.4801851 14.3476566,54.0600964 L14.3476566,54.0600964 L14.3364071,53.8185282 L14.3317307,53.6643809 C14.3272214,53.5158753 14.3232303,53.3848538 14.3199131,53.2763517 L14.3199131,53.2763517 L14.3168263,53.1755425 L14.3178848,53.0904739 C14.3184929,53.0393463 14.3189122,52.9996184 14.3191794,52.9726725 L14.3191794,52.9726725 L14.3190008,52.9385191 C14.3175088,52.956943 14.3130564,53.0114558 14.3058322,53.0959839 L14.3058322,53.0959839 L14.2982532,53.1838373 L14.2936333,53.2884105 C14.2886367,53.4008426 14.2825413,53.536309 14.275627,53.6899288 L14.275627,53.6899288 L14.26845,53.8494189 L14.2611837,54.0685459 C14.2579712,54.2197194 14.2578722,54.3808144 14.2599869,54.5502935 L14.2599869,54.5502935 L14.2647066,54.8106081 L14.2737772,55.1750207 L14.2737772,55.1750207 L14.2932141,55.5503022 L14.3204257,55.9334018 L14.343584,56.2227759 C14.4213315,57.0903768 14.5693706,57.9424089 14.6753623,58.4852184 L14.6753623,58.4852184 L14.7193359,58.7051519 C14.7598104,58.9028154 14.7886917,59.0308045 14.7979968,59.0715322 L14.7979968,59.0715322 L14.7076272,59.0771839 C14.5436007,59.0840635 14.315687,59.0746301 14.0713714,58.9946805 L14.0713714,58.9946805 L13.9231936,58.9378152 L13.790357,58.8744694 C13.7011814,58.8276685 13.6111419,58.7713929 13.5224701,58.7036406 L13.5224701,58.7036406 L13.3907673,58.5931543 L13.2905445,58.4888476 C13.1916566,58.378571 13.0971951,58.2501306 13.0109542,58.1012405 L13.0109542,58.1012405 L12.9275939,57.9454492 L12.8532823,57.7731599 C12.7831817,57.5930187 12.7259664,57.3894108 12.6839068,57.1631393 L12.6839068,57.1631393 L12.6469831,56.9293431 L12.6294832,56.7189216 C12.6115714,56.4311559 12.6163333,56.1142475 12.6556283,55.7642554 L12.6556283,55.7642554 L12.6917599,55.4954965 L12.7282035,55.2859572 C12.9160801,54.2917524 13.3574014,53.0696149 14.226844,51.6629454 L14.226844,51.6629454 Z M89.5802303,51.3587076 L89.773156,51.6629454 C90.6425986,53.0696149 91.0839199,54.2917524 91.2717965,55.2859572 L91.3082401,55.4954965 L91.3443717,55.7642554 C91.3836667,56.1142475 91.3884286,56.4311559 91.3705168,56.7189216 L91.3530169,56.9293431 L91.3160932,57.1631393 C91.2740336,57.3894108 91.2168183,57.5930187 91.1467177,57.7731599 L91.0724061,57.9454492 L90.9890458,58.1012405 C90.9028049,58.2501306 90.8083434,58.378571 90.7094555,58.4888476 L90.6092327,58.5931543 L90.4775299,58.7036406 C90.3888581,58.7713929 90.2988186,58.8276685 90.209643,58.8744694 L90.0768064,58.9378152 L89.9286286,58.9946805 C89.684313,59.0746301 89.4563993,59.0840635 89.2923728,59.0771839 L89.2020032,59.0715322 C89.2113083,59.0308045 89.2401896,58.9028154 89.2806641,58.7051519 L89.3246377,58.4852184 C89.4306294,57.9424089 89.5786685,57.0903768 89.656416,56.2227759 L89.6795743,55.9334018 L89.7067859,55.5503022 L89.7262228,55.1750207 L89.7262228,55.1750207 L89.7352934,54.8106081 L89.7400131,54.5502935 C89.7421278,54.3808144 89.7420288,54.2197194 89.7388163,54.0685459 L89.73155,53.8494189 L89.724373,53.6899288 C89.7174587,53.536309 89.7113633,53.4008426 89.7063667,53.2884105 L89.7017468,53.1838373 L89.6941678,53.0959839 C89.6869436,53.0114558 89.6824912,52.956943 89.6809992,52.9385191 L89.6808206,52.9726725 C89.6810878,52.9996184 89.6815071,53.0393463 89.6821152,53.0904739 L89.6831737,53.1755425 L89.6800869,53.2763517 C89.6767697,53.3848538 89.6727786,53.5158753 89.6682693,53.6643809 L89.6635929,53.8185282 L89.6523434,54.0600964 C89.6291077,54.4801851 89.5832786,54.9834339 89.5124424,55.5066232 L89.4669206,55.8224238 L89.4380857,56.0156307 C89.2268726,57.3676425 88.8276675,58.6917821 88.7918125,58.809365 L88.7892216,58.8178274 L88.6219262,58.6257757 C87.6684259,57.4616067 87.6091497,56.0900836 87.867626,54.8404978 C88.1622026,53.5161991 88.7944048,52.2911512 89.5802303,51.3587076 Z M1.22962098,51.2706117 C1.61893431,51.3494118 1.97959626,51.4264957 2.31520623,51.5022925 C2.54220969,51.5519656 2.75903878,51.6005582 2.96505362,51.6489601 L2.96505362,51.6489601 L3.26588519,51.7215312 L3.53951639,51.7914411 C3.89491897,51.8846707 4.21335497,51.9778815 4.50429781,52.0700614 L4.50429781,52.0700614 L4.76929118,52.1561471 L5.01285577,52.2442274 C5.64002226,52.4798107 6.09038983,52.7211695 6.40988361,52.972038 L6.40988361,52.972038 L6.52364877,53.0665667 L6.65044933,53.1845856 C6.88796891,53.420783 7.03064263,53.6572117 7.10805098,53.8807792 L7.10805098,53.8807792 L7.14145332,53.9914307 L7.17499859,54.1318891 C7.21077949,54.3140557 7.21262453,54.4742936 7.20271679,54.5948057 L7.20271679,54.5948057 L7.19342895,54.6774632 C7.1374129,54.6571316 6.90687375,54.5725298 6.5727358,54.435519 L6.5727358,54.435519 L6.4427338,54.3817127 L6.24418052,54.2955022 C5.89787009,54.144828 5.47934038,53.9597869 5.05942547,53.7491348 L5.05942547,53.7491348 L4.80787697,53.6197403 L4.51041552,53.4671284 C4.11765741,53.2604378 3.74311504,53.0438105 3.42023368,52.8519932 L3.42023368,52.8519932 L3.18828169,52.7133251 L3.05984399,52.6362389 C2.93700642,52.5612532 2.83112817,52.493043 2.74363979,52.435871 L2.74363979,52.435871 L2.66233435,52.3825364 L2.59353992,52.3372894 C2.5315078,52.2964862 2.4901876,52.2692954 2.47340451,52.2582503 L2.47340451,52.2582503 L2.467,52.254 C2.55904067,52.324791 3.40903395,52.9722997 4.37085565,53.5664175 L4.53208303,53.664834 L4.69471119,53.7616091 L4.98313492,53.9356473 C5.36899923,54.1615713 5.75450183,54.3622994 6.07293457,54.5295779 L6.07293457,54.5295779 L6.26261879,54.6296969 L6.38866525,54.6894762 C6.71247896,54.8430376 6.9349656,54.948454 6.98783005,54.9734997 L6.98783005,54.9734997 L6.83936782,55.0858945 C5.98679768,55.6814709 4.94687344,55.5780107 3.94792154,54.95519 L3.94792154,54.95519 L3.7721077,54.8399257 L3.56760546,54.6907281 C2.62095399,53.9611282 1.7880553,52.7743764 1.32344948,51.5365045 L1.32344948,51.5365045 Z M102.770379,51.2706117 L102.676551,51.5365045 C102.211945,52.7743764 101.379046,53.9611282 100.432395,54.6907281 L100.227892,54.8399257 L100.052078,54.95519 C99.0531266,55.5780107 98.0132023,55.6814709 97.1606322,55.0858945 L97.0121699,54.9734997 C97.0650344,54.948454 97.287521,54.8430376 97.6113347,54.6894762 L97.7373812,54.6296969 L97.9270654,54.5295779 C98.2454982,54.3622994 98.6310008,54.1615713 99.0168651,53.9356473 L99.3052888,53.7616091 L99.467917,53.664834 C100.494167,53.0460383 101.436137,52.3284861 101.527768,52.2582779 L101.532,52.254 L101.526595,52.2582503 C101.509812,52.2692954 101.468492,52.2964862 101.40646,52.3372894 L101.337666,52.3825364 L101.25636,52.435871 C101.168872,52.493043 101.062994,52.5612532 100.940156,52.6362389 L100.811718,52.7133251 L100.579766,52.8519932 C100.256885,53.0438105 99.8823426,53.2604378 99.4895845,53.4671284 L99.192123,53.6197403 L98.9405745,53.7491348 C98.5206596,53.9597869 98.1021299,54.144828 97.7558195,54.2955022 L97.5572662,54.3817127 L97.4272642,54.435519 C97.0931262,54.5725298 96.8625871,54.6571316 96.8154813,54.6742405 L96.806571,54.6774632 L96.7972832,54.5948057 C96.7873755,54.4742936 96.7892205,54.3140557 96.8250014,54.1318891 L96.8585467,53.9914307 L96.891949,53.8807792 C96.9693574,53.6572117 97.1120311,53.420783 97.3495507,53.1845856 L97.4763512,53.0665667 L97.5901164,52.972038 C97.9096102,52.7211695 98.3599777,52.4798107 98.9871442,52.2442274 L99.2307088,52.1561471 L99.4957022,52.0700614 C99.786645,51.9778815 100.105081,51.8846707 100.460484,51.7914411 L100.734115,51.7215312 L101.034946,51.6489601 C101.240961,51.6005582 101.45779,51.5519656 101.684794,51.5022925 C102.020404,51.4264957 102.381066,51.3494118 102.770379,51.2706117 Z M11.8880812,47.3236008 C12.3443438,48.3650202 12.5757145,49.589639 12.4759386,50.8138288 C12.4365712,51.3335782 12.3178697,51.8604725 12.1080472,52.3538042 L12.1080472,52.3538042 L11.9954879,52.5974847 L11.8935715,52.7840937 C11.6430402,53.2151816 11.3018214,53.6140094 10.8362474,53.9400695 L10.8362474,53.9400695 L10.6290039,54.0752362 L10.6286863,53.9409726 C10.6298448,53.5737509 10.6465873,52.5102807 10.7904515,51.4653915 L10.7904515,51.4653915 L10.8171816,51.2813377 L10.8484461,51.0671459 C11.034066,49.8613104 11.3551277,48.805657 11.3893455,48.6948078 C11.3893455,48.6948078 11.3670464,48.745789 11.3334318,48.8358161 L11.3334318,48.8358161 L11.3062709,48.9104711 L11.2747215,49.0011721 C11.2407856,49.0986737 11.1998421,49.2161204 11.1532592,49.3494038 L11.1532592,49.3494038 L11.1048473,49.4878139 L11.0402872,49.678812 C10.9970492,49.8109648 10.9535772,49.9524313 10.910843,50.101245 L10.910843,50.101245 L10.8474167,50.3297304 L10.7893998,50.5419104 C10.7504806,50.6860077 10.7115488,50.8349011 10.6754231,50.9856401 L10.6754231,50.9856401 L10.6000646,51.3266727 L10.526903,51.6733166 C10.4352484,52.1354255 10.3666728,52.5927778 10.3152038,52.9922789 L10.3152038,52.9922789 L10.2797161,53.2802279 L10.2644215,53.4392368 C10.2258911,53.8485936 10.205354,54.1359695 10.2015944,54.1899044 L10.2015944,54.1899044 L10.2009608,54.1990853 L10.1200748,54.1821964 C9.97496463,54.1478942 9.78128852,54.0809346 9.58306854,53.9530173 L9.58306854,53.9530173 L9.46394346,53.8687257 L9.37507124,53.7905799 C9.16917787,53.5963259 8.97751035,53.3172498 8.88196899,52.9234082 L8.88196899,52.9234082 L8.84714674,52.7475051 L8.82720732,52.5926976 C8.78139092,52.1134155 8.86531316,51.5007446 9.17946467,50.7640001 L9.17946467,50.7640001 L9.28181277,50.5369559 L9.37562679,50.3499524 C9.80266525,49.5295564 10.5002765,48.5800505 11.6216985,47.5601783 L11.6216985,47.5601783 Z M92.1119188,47.3236008 L92.3783015,47.5601783 C93.4997235,48.5800505 94.1973348,49.5295564 94.6243732,50.3499524 L94.7181872,50.5369559 L94.8205353,50.7640001 C95.1346868,51.5007446 95.2186091,52.1134155 95.1727927,52.5926976 L95.1528533,52.7475051 L95.118031,52.9234082 C95.0224896,53.3172498 94.8308221,53.5963259 94.6249288,53.7905799 L94.5360565,53.8687257 L94.4169315,53.9530173 C94.2187115,54.0809346 94.0250354,54.1478942 93.8799252,54.1821964 L93.7990392,54.1990853 L93.7984056,54.1899044 C93.794646,54.1359695 93.7741089,53.8485936 93.7355785,53.4392368 L93.7202839,53.2802279 L93.6847962,52.9922789 C93.6333272,52.5927778 93.5647516,52.1354255 93.473097,51.6733166 L93.3999354,51.3266727 L93.3245769,50.9856401 C93.2884512,50.8349011 93.2495194,50.6860077 93.2106002,50.5419104 L93.1525833,50.3297304 L93.089157,50.101245 C93.0464228,49.9524313 93.0029508,49.8109648 92.9597128,49.678812 L92.8951527,49.4878139 L92.8467408,49.3494038 C92.8001579,49.2161204 92.7592144,49.0986737 92.7252785,49.0011721 L92.6937291,48.9104711 L92.6665682,48.8358161 C92.6329536,48.745789 92.6106545,48.6948078 92.6106545,48.6948078 C92.6448723,48.805657 92.965934,49.8613104 93.1515539,51.0671459 L93.1828184,51.2813377 L93.2095485,51.4653915 C93.3534127,52.5102807 93.3701552,53.5737509 93.3713137,53.9409726 L93.3709961,54.0752362 L93.1637526,53.9400695 C92.6981786,53.6140094 92.3569598,53.2151816 92.1064285,52.7840937 L92.0045121,52.5974847 L91.8919528,52.3538042 C91.6821303,51.8604725 91.5634288,51.3335782 91.5240614,50.8138288 C91.4242855,49.589639 91.6556562,48.3650202 92.1119188,47.3236008 Z M0.112360837,45.7794914 C2.84072164,46.8480832 4.09706339,47.6177782 4.62286675,48.3422812 C4.86512576,48.650742 4.96573631,48.9419026 4.99549508,49.1975599 L4.99549508,49.1975599 L5.00411738,49.3049005 L5.00853467,49.4388154 C5.00631903,49.6112545 4.97406022,49.7581313 4.94029765,49.8661828 L4.94029765,49.8661828 L4.9151397,49.9397344 C4.89791072,49.928361 4.8785444,49.9155765 4.85062873,49.8971476 L4.85062873,49.8971476 L4.74224154,49.8255923 C4.6542285,49.7674862 4.53604945,49.6894612 4.39576707,49.5968353 L4.39576707,49.5968353 L4.28653689,49.5247112 L4.09490974,49.3871587 C3.82566508,49.1938133 3.50558061,48.9623629 3.18418435,48.7127658 L3.18418435,48.7127658 L2.94366506,48.5224773 L2.70598333,48.3281759 C2.38945828,48.0680408 2.07856432,47.806338 1.82244555,47.5754411 L1.82244555,47.5754411 L1.6413947,47.4085505 L1.54071948,47.3145882 C1.31446393,47.1033983 1.15067216,46.9503717 1.08904893,46.892789 L1.08904893,46.892789 L1.06217594,46.867676 C1.06217594,46.867676 1.23594157,47.0535998 1.50527829,47.3413125 L1.50527829,47.3413125 L1.59848961,47.4408713 L1.76626926,47.6181708 C2.00419363,47.8636417 2.29495216,48.1425989 2.59008332,48.4214394 L2.59008332,48.4214394 L2.81149434,48.630023 L3.03830783,48.8345167 C3.3403792,49.103402 3.63787531,49.355147 3.89253032,49.5651745 L3.89253032,49.5651745 L4.07489096,49.7144892 L4.18882778,49.8019469 C4.44367111,49.9975618 4.61880123,50.1319729 4.65860184,50.1625191 L4.65860184,50.1625191 L4.66721161,50.169127 L4.50031342,50.2458652 C3.60771834,50.6135235 2.67947231,50.3197869 1.90234309,49.575886 L1.90234309,49.575886 L1.75844786,49.4311808 L1.59188996,49.2466262 C0.883051878,48.417867 0.346420055,47.2218367 0.151259279,46.0494456 L0.151259279,46.0494456 Z M103.887639,45.7794914 L103.848741,46.0494456 C103.65358,47.2218367 103.116948,48.417867 102.40811,49.2466262 L102.241552,49.4311808 L102.097657,49.575886 C101.320528,50.3197869 100.392282,50.6135235 99.4996866,50.2458652 L99.3327884,50.169127 L99.3413982,50.1625191 C99.3811988,50.1319729 99.5563289,49.9975618 99.8111722,49.8019469 L99.925109,49.7144892 L100.10747,49.5651745 C100.362125,49.355147 100.659621,49.103402 100.961692,48.8345167 L101.188506,48.630023 L101.409917,48.4214394 C101.705048,48.1425989 101.995806,47.8636417 102.233731,47.6181708 L102.40151,47.4408713 L102.494722,47.3413125 C102.764058,47.0535998 102.937824,46.867676 102.937824,46.867676 L102.910951,46.892789 C102.849328,46.9503717 102.685536,47.1033983 102.459281,47.3145882 L102.358605,47.4085505 L102.177554,47.5754411 C101.921436,47.806338 101.610542,48.0680408 101.294017,48.3281759 L101.056335,48.5224773 L100.815816,48.7127658 C100.494419,48.9623629 100.174335,49.1938133 99.9050903,49.3871587 L99.7134631,49.5247112 L99.6042329,49.5968353 C99.4639506,49.6894612 99.3457715,49.7674862 99.2577585,49.8255923 L99.1493713,49.8971476 C99.1214556,49.9155765 99.1020893,49.928361 99.0922801,49.9348364 L99.0848603,49.9397344 L99.0597023,49.8661828 C99.0259398,49.7581313 98.993681,49.6112545 98.9914653,49.4388154 L98.9958826,49.3049005 L99.0045049,49.1975599 C99.0342637,48.9419026 99.1348742,48.650742 99.3771332,48.3422812 C99.9029366,47.6177782 101.159278,46.8480832 103.887639,45.7794914 Z M10.2398346,43.6370163 C10.4596872,44.7333526 10.4318996,45.9439561 10.0846275,47.0420086 C9.92715803,47.5140735 9.72092445,47.9603961 9.42358503,48.3585513 L9.42358503,48.3585513 L9.26712714,48.5535111 L9.13426695,48.6984983 C8.81502016,49.0291572 8.42941508,49.3046396 7.94215801,49.4899551 L7.94215801,49.4899551 L7.72700706,49.5637537 C7.73374402,49.5356099 7.74476343,49.4895518 7.76126663,49.4204388 L7.76126663,49.4204388 L7.7795586,49.3438 L7.8044712,49.2532099 C7.8313511,49.1557667 7.86397394,49.0382445 7.90090918,48.904968 L7.90090918,48.904968 L7.9392289,48.7666002 L8.00861573,48.52045 C8.1100794,48.1775476 8.24516965,47.7804699 8.38790667,47.3848116 L8.38790667,47.3848116 L8.49598727,47.0892028 L8.6154847,46.7939495 C8.77462975,46.405434 8.9323137,46.0402561 9.07987661,45.7310014 L9.07987661,45.7310014 L9.18851579,45.5100552 L9.26186074,45.3628124 C9.30845074,45.2692775 9.35024451,45.1853513 9.38614423,45.1131611 L9.38614423,45.1131611 L9.43543604,45.0139438 L9.49874769,44.8961934 C9.51543389,44.8650974 9.52769351,44.8421939 9.53549994,44.827598 L9.53549994,44.827598 C9.52048027,44.851218 9.49587751,44.889883 9.45883516,44.9479576 L9.45883516,44.9479576 L9.4177269,45.0123706 L9.35957151,45.1106986 C9.31719283,45.1822721 9.26780428,45.2655279 9.21264766,45.358303 L9.21264766,45.358303 L9.1257419,45.5043347 L8.99727324,45.7239786 C8.82164818,46.0318375 8.63000437,46.3969016 8.43812592,46.7856104 L8.43812592,46.7856104 L8.29441972,47.0810511 L8.19849404,47.2866163 C7.78956162,48.1810291 7.47128624,49.1067551 7.35931081,49.4445003 L7.35931081,49.4445003 L7.32691983,49.5432995 C7.3232555,49.5546271 7.32047786,49.5632802 7.31580925,49.577912 L7.31580925,49.577912 L7.25794558,49.5495684 C6.96913461,49.3995897 6.43568382,48.9972953 6.42565022,48.1581602 L6.42565022,48.1581602 L6.43179156,47.9715919 L6.44707038,47.8154288 C6.4701873,47.6547487 6.5165248,47.4808474 6.58343947,47.2966904 L6.58343947,47.2966904 L6.65711529,47.1092246 L6.72955629,46.9478313 C6.83360621,46.7294057 6.96844584,46.4980878 7.14538002,46.2544284 L7.14538002,46.2544284 L7.28615003,46.0693784 L7.41552443,45.9086206 C7.95536952,45.2596461 8.76593301,44.5411524 9.93897053,43.817893 L9.93897053,43.817893 Z M93.7601654,43.6370163 L94.0610295,43.817893 C95.234067,44.5411524 96.0446305,45.2596461 96.5844756,45.9086206 L96.71385,46.0693784 L96.85462,46.2544284 C97.0315542,46.4980878 97.1663938,46.7294057 97.2704437,46.9478313 L97.3428847,47.1092246 L97.4165605,47.2966904 C97.4834752,47.4808474 97.5298127,47.6547487 97.5529296,47.8154288 L97.5682084,47.9715919 L97.5743498,48.1581602 C97.5643162,48.9972953 97.0308654,49.3995897 96.7420544,49.5495684 L96.6841907,49.577912 C96.6795221,49.5632802 96.6767445,49.5546271 96.6730802,49.5432995 L96.6406892,49.4445003 C96.5287138,49.1067551 96.2104384,48.1810291 95.801506,47.2866163 L95.7055803,47.0810511 L95.5618741,46.7856104 C95.3699956,46.3969016 95.1783518,46.0318375 95.0027268,45.7239786 L94.8742581,45.5043347 L94.7873523,45.358303 C94.7321957,45.2655279 94.6828072,45.1822721 94.6404285,45.1106986 L94.5822731,45.0123706 L94.5411648,44.9479576 C94.5041225,44.889883 94.4795197,44.851218 94.4695335,44.8355152 L94.4645001,44.827598 C94.4723065,44.8421939 94.4845661,44.8650974 94.5012523,44.8961934 L94.564564,45.0139438 L94.6138558,45.1131611 C94.6497555,45.1853513 94.6915493,45.2692775 94.7381393,45.3628124 L94.8114842,45.5100552 L94.9201234,45.7310014 C95.0676863,46.0402561 95.2253702,46.405434 95.3845153,46.7939495 L95.5040127,47.0892028 L95.6120933,47.3848116 C95.7548304,47.7804699 95.8899206,48.1775476 95.9913843,48.52045 L96.0607711,48.7666002 L96.0990908,48.904968 C96.1360261,49.0382445 96.1686489,49.1557667 96.1955288,49.2532099 L96.2204414,49.3438 L96.2387334,49.4204388 C96.2552366,49.4895518 96.266256,49.5356099 96.2707342,49.5543194 L96.2729929,49.5637537 L96.057842,49.4899551 C95.5705849,49.3046396 95.1849798,49.0291572 94.8657331,48.6984983 L94.7328729,48.5535111 L94.576415,48.3585513 C94.2790755,47.9603961 94.072842,47.5140735 93.9153725,47.0420086 C93.5681004,45.9439561 93.5403128,44.7333526 93.7601654,43.6370163 Z M0.00596196425,40.3708895 C0.597418754,40.7095438 1.09802617,41.0175934 1.52362166,41.30319 C1.87262148,41.532697 2.17158647,41.7469188 2.42722481,41.9490771 L2.42722481,41.9490771 L2.61093463,42.0984844 L2.79532805,42.2592078 C3.20689913,42.628338 3.48852136,42.9566337 3.65726575,43.2525731 L3.65726575,43.2525731 L3.72272365,43.377448 L3.79158199,43.5312309 C4.03151433,44.134419 3.85794943,44.5920241 3.72141469,44.8226317 L3.72141469,44.8226317 L3.68831319,44.8755073 L3.58174585,44.7683038 C3.54763066,44.7339964 3.50604209,44.6921826 3.4580356,44.6439325 L3.29581776,44.4809442 L3.20224744,44.3869755 L3.10132818,44.2822843 C3.03180613,44.2102223 2.95797387,44.1338005 2.8808805,44.0540735 L2.8808805,44.0540735 L2.70235991,43.8695551 L2.52261818,43.671975 L2.52261818,43.671975 L2.33926103,43.4662908 L2.15308833,43.2551721 L1.96697429,43.0391327 L1.96697429,43.0391327 L1.78354782,42.8262713 L1.60540049,42.6194801 L1.49595638,42.4825126 C1.42427291,42.3927924 1.35530386,42.3064621 1.2899846,42.2247647 L1.2899846,42.2247647 L1.14956987,42.0492879 L1.06422894,41.9393244 C0.873312119,41.6933722 0.74188261,41.5243789 0.712008308,41.4859736 L0.712008308,41.4859736 L0.705545348,41.4776657 L0.711359721,41.4862953 C0.738236777,41.5261865 0.856488358,41.7017026 1.02838207,41.956927 L1.02838207,41.956927 L1.10522501,42.0710259 L1.18830576,42.1911025 C1.24551413,42.2738075 1.30622376,42.3616068 1.36958779,42.4532197 L1.36958779,42.4532197 L1.51627884,42.6652442 L1.67829543,42.8815272 L1.67829543,42.8815272 L1.84488727,43.1041028 L2.01371876,43.3298248 L2.18117914,43.551196 C2.40605227,43.8432573 2.63437019,44.1204983 2.83102386,44.3538926 L2.83102386,44.3538926 L2.9720285,44.5202635 L3.05770846,44.6208773 C3.24955516,44.845442 3.38302367,44.9968105 3.41893256,45.0373979 L3.41893256,45.0373979 L3.24097237,45.0779801 C2.35899198,45.2411152 1.5957507,44.8128596 1.01563591,44.0295862 L1.01563591,44.0295862 L0.902073712,43.868268 L0.766250027,43.6459203 C0.286001866,42.8052859 0.00369083964,41.6958677 4.26325641e-14,40.6533127 L4.26325641e-14,40.6533127 Z M103.994038,40.3708895 L104,40.6533127 C103.996309,41.6958677 103.713998,42.8052859 103.23375,43.6459203 L103.097926,43.868268 L102.984364,44.0295862 C102.404249,44.8128596 101.641008,45.2411152 100.759028,45.0779801 L100.581067,45.0373979 C100.616976,44.9968105 100.750445,44.845442 100.942292,44.6208773 L101.027972,44.5202635 L101.168976,44.3538926 C101.36563,44.1204983 101.593948,43.8432573 101.818821,43.551196 L101.986281,43.3298248 L102.155113,43.1041028 L102.321705,42.8815272 L102.321705,42.8815272 L102.483721,42.6652442 L102.630412,42.4532197 C102.693776,42.3616068 102.754486,42.2738075 102.811694,42.1911025 L102.894775,42.0710259 L102.971618,41.956927 C103.143512,41.7017026 103.261763,41.5261865 103.28864,41.4862953 L103.294455,41.4776657 L103.287992,41.4859736 C103.258117,41.5243789 103.126688,41.6933722 102.935771,41.9393244 L102.85043,42.0492879 L102.710015,42.2247647 C102.644696,42.3064621 102.575727,42.3927924 102.504044,42.4825126 L102.3946,42.6194801 L102.216452,42.8262713 L102.033026,43.0391327 L102.033026,43.0391327 L101.846912,43.2551721 L101.660739,43.4662908 L101.477382,43.671975 L101.477382,43.671975 L101.29764,43.8695551 L101.119119,44.0540735 C101.042026,44.1338005 100.968194,44.2102223 100.898672,44.2822843 L100.797753,44.3869755 L100.704182,44.4809442 L100.541964,44.6439325 C100.493958,44.6921826 100.452369,44.7339964 100.418254,44.7683038 L100.311687,44.8755073 L100.278585,44.8226317 C100.142051,44.5920241 99.9684857,44.134419 100.208418,43.5312309 L100.277276,43.377448 L100.342734,43.2525731 C100.511479,42.9566337 100.793101,42.628338 101.204672,42.2592078 L101.389065,42.0984844 L101.572775,41.9490771 C101.828414,41.7469188 102.127379,41.532697 102.476378,41.30319 C102.901974,41.0175934 103.402581,40.7095438 103.994038,40.3708895 Z M94.9835365,40.0784282 L95.2885709,40.2139334 C96.2796164,40.6673784 97.0144531,41.136962 97.5275755,41.5784892 L97.6748953,41.7100615 L97.8400828,41.8664955 C98.2570512,42.2798094 98.4888078,42.6616926 98.6083316,42.9957431 L98.6480346,43.1187378 L98.6856457,43.2663329 C98.7443309,43.5539043 98.7071883,43.7956725 98.6353225,43.9900085 L98.5967789,44.0832163 L98.5257395,44.2162468 C98.4453116,44.3476447 98.3529003,44.4457117 98.2763975,44.5130721 L98.2224391,44.5578759 C98.1932616,44.5099471 98.0847277,44.3316744 97.9275597,44.0736723 L97.8573139,43.9583661 L97.7411139,43.7748648 C97.6870498,43.6895232 97.629952,43.5994357 97.5705917,43.5058076 L97.4799506,43.3628607 L97.3300068,43.1467948 L97.1755516,42.9244046 L97.1755516,42.9244046 L97.0190808,42.6989952 L96.8633732,42.4792884 C96.6536443,42.1892134 96.4384656,41.9131324 96.2541406,41.6813431 L96.1222492,41.5162791 L96.0325719,41.4055716 C95.9755976,41.3352495 95.9244633,41.2721585 95.8804829,41.2178896 L95.8200419,41.1433017 L95.7790292,41.0946121 C95.7543527,41.0653414 95.7351266,41.0425829 95.7220697,41.0271421 L95.7021248,41.0035782 C95.7137543,41.0186079 95.7338996,41.0450354 95.7609514,41.0826115 L95.806508,41.1473061 L95.8596625,41.2239028 C95.8983922,41.2796332 95.943493,41.3444269 95.9936689,41.4166752 L96.0725772,41.5304374 L96.1892558,41.6998825 C96.3416812,41.9226795 96.5165093,42.1844514 96.688291,42.4599891 L96.8581147,42.7391818 L96.9949087,42.966016 L97.129879,43.1921829 L97.129879,43.1921829 L97.2585143,43.4140593 L97.3743996,43.62914 C97.4244822,43.722116 97.4724887,43.8112595 97.5176986,43.8951894 L97.583326,44.0170014 L97.6512606,44.1468972 C97.6943906,44.2294067 97.7330394,44.3034248 97.7662351,44.3670565 L97.8118172,44.4544776 L97.8420892,44.5129321 C97.8688758,44.5656249 97.885265,44.600679 97.8917854,44.6149128 L97.8950358,44.6220886 L97.6899367,44.5988918 C96.6864038,44.4478024 96.0106942,43.7786616 95.5899669,42.975153 C95.1368718,42.1087813 94.9363121,41.0553488 94.9835365,40.0784282 Z M9.01646349,40.0784282 C9.06368789,41.0553488 8.86312817,42.1087813 8.41003311,42.975153 C7.98930584,43.7786616 7.31359617,44.4478024 6.3100633,44.5988918 L6.3100633,44.5988918 L6.10496417,44.6220886 C6.11473501,44.600679 6.13112418,44.5656249 6.15791078,44.5129321 L6.15791078,44.5129321 L6.18818277,44.4544776 L6.23376494,44.3670565 C6.26696059,44.3034248 6.30560937,44.2294067 6.34873943,44.1468972 L6.34873943,44.1468972 L6.41667399,44.0170014 L6.48230135,43.8951894 C6.52751126,43.8112595 6.57551776,43.722116 6.62560036,43.62914 L6.62560036,43.62914 L6.74148571,43.4140593 L6.870121,43.1921829 L6.870121,43.1921829 L7.00509127,42.966016 L7.14188525,42.7391818 L7.31170896,42.4599891 C7.48349068,42.1844514 7.65831878,41.9226795 7.81074425,41.6998825 L7.81074425,41.6998825 L7.9274228,41.5304374 L8.0063311,41.4166752 C8.05650702,41.3444269 8.10160776,41.2796332 8.14033752,41.2239028 L8.14033752,41.2239028 L8.19349197,41.1473061 L8.23904858,41.0826115 C8.26610044,41.0450354 8.28624568,41.0186079 8.29787516,41.0035782 L8.29787516,41.0035782 L8.27793034,41.0271421 C8.26487337,41.0425829 8.24564728,41.0653414 8.22097081,41.0946121 L8.22097081,41.0946121 L8.17995815,41.1433017 L8.11951713,41.2178896 C8.07553671,41.2721585 8.02440244,41.3352495 7.96742811,41.4055716 L7.96742811,41.4055716 L7.87775079,41.5162791 L7.74585936,41.6813431 C7.56153436,41.9131324 7.34635567,42.1892134 7.13662676,42.4792884 L7.13662676,42.4792884 L6.98091916,42.6989952 L6.82444835,42.9244046 L6.82444835,42.9244046 L6.66999321,43.1467948 L6.52004935,43.3628607 L6.42940834,43.5058076 C6.37004802,43.5994357 6.31295025,43.6895232 6.25888606,43.7748648 L6.25888606,43.7748648 L6.1426861,43.9583661 L6.07244032,44.0736723 C5.91527226,44.3316744 5.8067384,44.5099471 5.77756087,44.5578759 L5.77756087,44.5578759 L5.72360247,44.5130721 C5.64709972,44.4457117 5.55468844,44.3476447 5.47426045,44.2162468 L5.47426045,44.2162468 L5.40322113,44.0832163 L5.36467753,43.9900085 C5.29281172,43.7956725 5.25566907,43.5539043 5.31435425,43.2663329 L5.31435425,43.2663329 L5.35196539,43.1187378 L5.39166843,42.9957431 C5.51119223,42.6616926 5.74294885,42.2798094 6.15991724,41.8664955 L6.15991724,41.8664955 L6.32510473,41.7100615 L6.47242452,41.5784892 C6.98554692,41.136962 7.72038363,40.6673784 8.71142909,40.2139334 L8.71142909,40.2139334 Z M0.692443457,35.1966855 C1.69077875,35.9410673 2.39813688,36.5563084 2.86116634,37.0748729 C3.28605795,37.5386158 3.53462238,37.9295882 3.66055411,38.2633585 L3.66055411,38.2633585 L3.70213497,38.3858715 L3.74565332,38.5465214 C3.87188292,39.1184551 3.6442093,39.5018741 3.48541164,39.6888072 L3.48541164,39.6888072 L3.4441285,39.7349114 C3.41404268,39.6928482 3.30517131,39.5406839 3.14630622,39.3193181 L3.14630622,39.3193181 L3.07525988,39.2203513 L2.95847268,39.0555595 C2.7955789,38.8246044 2.60648134,38.5512963 2.42125516,38.2665683 L2.42125516,38.2665683 L2.28353133,38.0513645 L2.11092964,37.7803875 C1.93872892,37.5096987 1.77058224,37.243323 1.63214952,37.0123002 L1.63214952,37.0123002 L1.52822892,36.8356125 L1.4656318,36.7268329 C1.32554804,36.483471 1.22861715,36.3155614 1.20255334,36.2704258 L1.206,36.278 L1.21860054,36.3034565 C1.24483631,36.3574482 1.30195601,36.4749571 1.3804056,36.6361202 L1.42995851,36.7378976 L1.48417201,36.8491987 L1.57479475,37.0304198 C1.70367534,37.2832029 1.86246045,37.5774279 2.02359184,37.8749582 L2.02359184,37.8749582 L2.14444972,38.0981297 L2.2957324,38.3747401 C2.44929127,38.6485346 2.6067378,38.9108861 2.74160359,39.1348402 L2.74160359,39.1348402 L2.84417708,39.3053009 L2.9070643,39.4078633 C3.04772306,39.6373549 3.14455073,39.7959552 3.17057254,39.8385957 L3.17057254,39.8385957 L2.99158685,39.8473068 C2.17042741,39.851907 1.54702464,39.3571247 1.13218129,38.5870535 L1.13218129,38.5870535 L1.04648247,38.4179063 L0.949314107,38.1832329 C0.827061787,37.8620526 0.734372708,37.5092611 0.67534221,37.1430795 L0.67534221,37.1430795 L0.637444311,36.8662172 L0.61565889,36.5316107 C0.601028541,36.1948773 0.608644339,35.8534897 0.645534656,35.5229859 L0.645534656,35.5229859 Z M103.307557,35.1966855 L103.354465,35.5229859 C103.391356,35.8534897 103.398971,36.1948773 103.384341,36.5316107 L103.362556,36.8662172 L103.324658,37.1430795 C103.265627,37.5092611 103.172938,37.8620526 103.050686,38.1832329 L102.953518,38.4179063 L102.867819,38.5870535 C102.452975,39.3571247 101.829573,39.851907 101.008413,39.8473068 L100.829427,39.8385957 C100.855449,39.7959552 100.952277,39.6373549 101.092936,39.4078633 L101.155823,39.3053009 L101.258396,39.1348402 C101.393262,38.9108861 101.550709,38.6485346 101.704268,38.3747401 L101.85555,38.0981297 L101.976408,37.8749582 C102.13754,37.5774279 102.296325,37.2832029 102.425205,37.0304198 L102.515828,36.8491987 L102.570041,36.7378976 C102.691281,36.4889353 102.774458,36.3177489 102.793358,36.2788424 C102.771383,36.3155614 102.674452,36.483471 102.534368,36.7268329 L102.471771,36.8356125 L102.36785,37.0123002 C102.229418,37.243323 102.061271,37.5096987 101.88907,37.7803875 L101.716469,38.0513645 L101.578745,38.2665683 C101.393519,38.5512963 101.204421,38.8246044 101.041527,39.0555595 L100.92474,39.2203513 L100.853694,39.3193181 C100.694829,39.5406839 100.585957,39.6928482 100.561222,39.7274304 L100.555871,39.7349114 L100.514588,39.6888072 C100.355791,39.5018741 100.128117,39.1184551 100.254347,38.5465214 L100.297865,38.3858715 L100.339446,38.2633585 C100.465378,37.9295882 100.713942,37.5386158 101.138834,37.0748729 C101.601863,36.5563084 102.309221,35.9410673 103.307557,35.1966855 Z M8.81950319,36.115972 C8.76795949,36.5666054 8.69208371,37.0265346 8.52651036,37.466156 C8.40165366,37.8173955 8.25164133,38.153899 8.05797062,38.4594842 L8.05797062,38.4594842 L7.90424253,38.6826231 L7.79835788,38.8229015 C7.32577974,39.4179086 6.67450679,39.8388906 5.84397668,39.821827 L5.84397668,39.821827 L5.64913355,39.8099932 C5.67889014,39.7702368 5.78655182,39.6264094 5.94340401,39.4170622 L5.94340401,39.4170622 L6.01353889,39.3234635 L6.12304317,39.1783693 C6.27583785,38.9769702 6.454741,38.7459727 6.64718434,38.51132 L6.64718434,38.51132 L6.83118327,38.291054 L6.94435574,38.153459 C7.47358151,37.5157986 8.00692541,36.9503913 8.07787858,36.8755131 L8.07,36.882 L8.04946582,36.9014743 C7.92902946,37.0118996 7.44335927,37.4609934 6.93285183,37.9859743 L6.81475646,38.1083512 L6.69670891,38.2327047 L6.44370564,38.4999063 L6.19912501,38.7588489 L6.05050894,38.9272915 L6.05050894,38.9272915 L5.91101139,39.085469 L5.78274404,39.2309342 L5.69381244,39.3340802 C5.5244296,39.53057 5.40771717,39.6661548 5.37586554,39.7031626 L5.37586554,39.7031626 L5.33759855,39.6578056 C5.18863387,39.4719208 4.95975408,39.0725554 5.15458628,38.5209182 L5.15458628,38.5209182 L5.21288377,38.3788638 L5.27278682,38.2649682 C5.42542931,37.9953097 5.67108182,37.6992165 6.07125424,37.3951255 L6.07125424,37.3951255 L6.25239644,37.2643649 L6.4180289,37.156208 C6.93243037,36.8312722 7.60763219,36.5033668 8.53175568,36.205336 L8.53175568,36.205336 Z M95.1804968,36.115972 L95.4682443,36.205336 C96.3923678,36.5033668 97.0675696,36.8312722 97.5819711,37.156208 L97.7476036,37.2643649 L97.9287458,37.3951255 C98.3289182,37.6992165 98.5745707,37.9953097 98.7272132,38.2649682 L98.7871162,38.3788638 L98.8454137,38.5209182 C99.0402459,39.0725554 98.8113661,39.4719208 98.6624014,39.6578056 L98.6241345,39.7031626 C98.5922828,39.6661548 98.4755704,39.53057 98.3061876,39.3340802 L98.217256,39.2309342 L98.0889886,39.085469 L97.9494911,38.9272915 L97.9494911,38.9272915 L97.800875,38.7588489 L97.5562944,38.4999063 L97.3032911,38.2327047 L97.1852435,38.1083512 C96.5941116,37.4909271 96.0011861,36.947624 95.9293795,36.882123 C95.9930746,36.9503913 96.5264185,37.5157986 97.0556443,38.153459 L97.1688167,38.291054 L97.3528157,38.51132 C97.545259,38.7459727 97.7241622,38.9769702 97.8769568,39.1783693 L97.9864611,39.3234635 L98.056596,39.4170622 C98.2134482,39.6264094 98.3211099,39.7702368 98.3455745,39.8029226 L98.3508665,39.8099932 L98.1560233,39.821827 C97.3254932,39.8388906 96.6742203,39.4179086 96.2016421,38.8229015 L96.0957575,38.6826231 L95.9420294,38.4594842 C95.7483587,38.153899 95.5983463,37.8173955 95.4734896,37.466156 C95.3079163,37.0265346 95.2320405,36.5666054 95.1804968,36.115972 Z M94.8908154,32.0136491 L95.1992643,32.0793532 C95.9964709,32.2593869 96.5938238,32.4768374 97.0570042,32.7037335 L97.2245358,32.7892077 L97.3956106,32.8850373 C97.7759526,33.1094448 98.0261811,33.3387163 98.1823352,33.5566353 L98.2436037,33.6492868 L98.3126275,33.7747158 C98.5309781,34.2231776 98.4042223,34.5853323 98.2930999,34.7655986 L98.260593,34.8141262 L98.2366668,34.7919546 L98.2366668,34.7919546 L98.1520374,34.7147257 C98.0980979,34.6659812 98.0273552,34.6028735 97.942663,34.5291463 L97.8534265,34.4520178 L97.6964273,34.3181726 C97.5308908,34.1770121 97.3417087,34.0155976 97.1465763,33.8491581 L96.9501159,33.6816077 L96.7547071,33.5184415 C96.5448815,33.3467529 96.334136,33.1841439 96.1563256,33.045423 L96.0296721,32.9460927 L95.858027,32.8135914 C95.7302532,32.7149796 95.6433806,32.647987 95.6179724,32.6283953 C95.6442899,32.652949 95.7543407,32.7515521 95.9127381,32.8930512 L95.9958376,32.9672586 L96.1434725,33.1006599 C96.3001113,33.24169 96.4809657,33.4041274 96.6608769,33.5746581 L96.8395417,33.7473936 L97.0195277,33.9239549 C97.1982709,34.0993733 97.3714992,34.2695712 97.5231345,34.4184235 L97.6669765,34.5595634 L97.7485214,34.6406048 C97.7999391,34.69221 97.8453098,34.7387652 97.8836977,34.7790367 L97.9359252,34.8345771 L97.9781577,34.8793423 C98.0027642,34.905393 98.020073,34.9236584 98.028878,34.9329408 L98.0355572,34.9399775 L97.8576065,34.9761719 C97.5645633,35.0222737 97.2894122,34.9984118 97.0349342,34.9217853 L96.8847505,34.8696152 L96.7123056,34.7939111 C96.4867072,34.6826524 96.2786314,34.5310535 96.090595,34.350386 L95.9533644,34.209611 L95.8240092,34.0590768 L95.7027167,33.8995486 L95.7027167,33.8995486 L95.5896789,33.7319482 L95.4788168,33.5573613 C95.4071163,33.4388832 95.3402151,33.3164006 95.2804167,33.1909307 C95.0964143,32.8145209 94.9792172,32.4105097 94.8908154,32.0136491 Z M9.10918456,32.0136491 C9.02078279,32.4105097 8.90358566,32.8145209 8.71958328,33.1909307 C8.65978491,33.3164006 8.59288368,33.4388832 8.52118322,33.5573613 L8.52118322,33.5573613 L8.41032106,33.7319482 L8.29728326,33.8995486 L8.29728326,33.8995486 L8.17599078,34.0590768 L8.04663561,34.209611 L7.90940503,34.350386 C7.72136863,34.5310535 7.5132928,34.6826524 7.28769445,34.7939111 L7.28769445,34.7939111 L7.11524954,34.8696152 L6.96506576,34.9217853 C6.71058778,34.9984118 6.43543673,35.0222737 6.14239353,34.9761719 L6.14239353,34.9761719 L5.96444279,34.9399775 C5.97992705,34.9236584 5.99723576,34.905393 6.0218423,34.8793423 L6.0218423,34.8793423 L6.06407475,34.8345771 L6.11630235,34.7790367 C6.15469017,34.7387652 6.20006086,34.69221 6.25147859,34.6406048 L6.25147859,34.6406048 L6.33302346,34.5595634 L6.47686552,34.4184235 C6.62850076,34.2695712 6.80172906,34.0993733 6.98047226,33.9239549 L6.98047226,33.9239549 L7.16045826,33.7473936 L7.33912313,33.5746581 C7.51903427,33.4041274 7.69988874,33.24169 7.85652746,33.1006599 L7.85652746,33.1006599 L8.00416245,32.9672586 L8.08726189,32.8930512 C8.24565933,32.7515521 8.35571014,32.652949 8.38973238,32.6224547 L8.382,32.628 L8.35957148,32.6457122 C8.33006861,32.6684646 8.27991912,32.7071451 8.21356464,32.7583448 L8.14197301,32.8135914 L7.97032789,32.9460927 L7.84367443,33.045423 C7.66586404,33.1841439 7.45511846,33.3467529 7.24529286,33.5184415 L7.24529286,33.5184415 L7.04988406,33.6816077 L6.85342365,33.8491581 C6.65829129,34.0155976 6.4691092,34.1770121 6.30357271,34.3181726 L6.30357271,34.3181726 L6.14657347,34.4520178 L6.05733704,34.5291463 C5.97264479,34.6028735 5.90190212,34.6659812 5.8479626,34.7147257 L5.76333325,34.7919546 L5.76333325,34.7919546 L5.73940702,34.8141262 L5.70690006,34.7655986 C5.59577774,34.5853323 5.46902194,34.2231776 5.68737247,33.7747158 L5.68737247,33.7747158 L5.75639628,33.6492868 L5.81766484,33.5566353 C5.97381886,33.3387163 6.22404742,33.1094448 6.60438936,32.8850373 L6.60438936,32.8850373 L6.77546424,32.7892077 L6.94299581,32.7037335 C7.40617616,32.4768374 8.00352909,32.2593869 8.80073567,32.0793532 L8.80073567,32.0793532 Z M102.025155,30.2987824 L102.101895,30.5837017 C102.16893,30.8737591 102.207718,31.1775424 102.226031,31.4798532 L102.237809,31.7811103 L102.236739,32.0298553 C102.226013,32.3603659 102.17846,32.6848699 102.098561,32.9864601 L102.032642,33.2080922 L101.976872,33.3676129 C101.699383,34.097774 101.180885,34.6229482 100.430058,34.7237366 L100.265614,34.7387585 L100.270009,34.7291621 C100.287403,34.6911855 100.355302,34.5429594 100.453602,34.328648 L100.505192,34.2161896 L100.590874,34.0134672 C100.681196,33.7997065 100.784362,33.5553743 100.890699,33.3033605 L100.997736,33.049634 L101.104481,32.7915794 C101.208161,32.5351792 101.302357,32.2862236 101.384424,32.0670467 L101.46235,31.8586232 L101.505949,31.7403698 C101.590779,31.5103242 101.648983,31.3527195 101.662208,31.3169128 C101.645906,31.3516118 101.575699,31.5071297 101.473987,31.7327396 L101.420596,31.8511866 L101.326707,32.0567166 C101.22811,32.2727049 101.115735,32.5176584 100.992725,32.7698918 L100.866286,33.0237487 L100.739337,33.2726734 C100.604875,33.5363918 100.474883,33.7915226 100.3631,34.0109607 L100.282891,34.1684233 L100.225096,34.2785773 C100.127861,34.4621785 100.052522,34.5958453 100.020929,34.6512036 L100.004728,34.6794082 L99.9637058,34.6425586 C99.8026598,34.4923598 99.5372848,34.1747865 99.5836438,33.6418396 L99.6043287,33.4911146 L99.6347083,33.359699 C99.7191029,33.0442755 99.900309,32.6666457 100.225589,32.2121509 C100.596905,31.6928714 101.189945,31.0606117 102.025155,30.2987824 Z M1.97484502,30.2987824 C2.81005457,31.0606117 3.40309511,31.6928714 3.77441133,32.2121509 C4.09969097,32.6666457 4.28089705,33.0442755 4.36529165,33.359699 L4.36529165,33.359699 L4.39567133,33.4911146 L4.41635621,33.6418396 C4.46271518,34.1747865 4.1973402,34.4923598 4.03629417,34.6425586 L4.03629417,34.6425586 L3.99527178,34.6794082 L3.97907087,34.6512036 C3.94747835,34.5958453 3.87213891,34.4621785 3.77490372,34.2785773 L3.77490372,34.2785773 L3.71710856,34.1684233 L3.63689984,34.0109607 C3.52511655,33.7915226 3.39512478,33.5363918 3.26066287,33.2726734 L3.26066287,33.2726734 L3.13371447,33.0237487 L3.00727518,32.7698918 C2.88426483,32.5176584 2.77189035,32.2727049 2.67329272,32.0567166 L2.67329272,32.0567166 L2.5794037,31.8511866 L2.52601269,31.7327396 C2.42430072,31.5071297 2.35409445,31.3516118 2.33493106,31.309168 L2.337,31.316 L2.34616011,31.3395717 C2.36451851,31.3892851 2.40448739,31.497543 2.45937907,31.6463579 L2.49405132,31.7403698 L2.53765042,31.8586232 L2.61557644,32.0670467 C2.69764323,32.2862236 2.79183862,32.5351792 2.89551921,32.7915794 L2.89551921,32.7915794 L3.00226363,33.049634 L3.10930061,33.3033605 C3.21563844,33.5553743 3.31880416,33.7997065 3.40912601,34.0134672 L3.40912601,34.0134672 L3.49480834,34.2161896 L3.54639844,34.328648 C3.64469806,34.5429594 3.71259719,34.6911855 3.72999083,34.7291621 L3.72999083,34.7291621 L3.73438578,34.7387585 L3.56994154,34.7237366 C2.8191152,34.6229482 2.30061712,34.097774 2.02312808,33.3676129 L2.02312808,33.3676129 L1.96735823,33.2080922 L1.90143884,32.9864601 C1.8215397,32.6848699 1.77398735,32.3603659 1.76326108,32.0298553 L1.76326108,32.0298553 L1.76219125,31.7811103 L1.77396856,31.4798532 C1.79228241,31.1775424 1.83106977,30.8737591 1.89810537,30.5837017 L1.89810537,30.5837017 Z M94.266388,28.0839428 L94.5300097,28.121916 C96.0640153,28.3593821 96.8354292,28.7784256 97.177852,29.1749376 L97.2338943,29.2446349 L97.3084374,29.3534762 C97.5239571,29.7086587 97.4477643,30.020688 97.3759142,30.1822779 L97.3525312,30.2304223 L97.3446344,30.2248456 C97.2773741,30.177347 96.7904915,29.833517 96.2712316,29.4668923 L96.1409662,29.3749196 L95.9615596,29.2502558 C95.782844,29.1270291 95.607964,29.0092907 95.45278,28.907636 L95.3047488,28.8117351 L95.2219675,28.7581756 C95.0642369,28.6561114 94.9552909,28.5855413 94.9273825,28.5674613 L94.9203307,28.5628927 L94.9288673,28.5693367 C94.9569764,28.590553 95.0527608,28.6628349 95.1902482,28.7664296 L95.2775372,28.8321859 L95.4153414,28.9358976 C95.5434724,29.0335552 95.6854537,29.1447915 95.8318062,29.2615574 L96.0534283,29.4398474 L96.2210461,29.5760139 C96.3875294,29.7112846 96.5489332,29.8424983 96.6901744,29.9573296 L96.8241362,30.0662435 L96.8993914,30.1288896 C97.0428075,30.2482813 97.1420148,30.3308997 97.1674329,30.3520684 L97.1738559,30.3574176 L97.0159917,30.4066044 C96.3883686,30.5694413 95.8085902,30.3313123 95.3429027,29.9064982 C94.8481983,29.4431367 94.4509662,28.7628247 94.266388,28.0839428 Z M9.73361205,28.0839428 C9.54903376,28.7628247 9.1518017,29.4431367 8.65709734,29.9064982 C8.19140984,30.3313123 7.61163136,30.5694413 6.98400828,30.4066044 L6.98400828,30.4066044 L6.82614408,30.3574176 C6.85798517,30.3308997 6.95719251,30.2482813 7.10060861,30.1288896 L7.10060861,30.1288896 L7.17586378,30.0662435 L7.30982558,29.9573296 C7.45106684,29.8424983 7.61247062,29.7112846 7.7789539,29.5760139 L7.7789539,29.5760139 L7.94657172,29.4398474 L8.16819381,29.2615574 C8.31454627,29.1447915 8.45652764,29.0335552 8.58465857,28.9358976 L8.58465857,28.9358976 L8.72246282,28.8321859 L8.80975181,28.7664296 C8.94723918,28.6628349 9.04302364,28.590553 9.07113271,28.5693367 L9.07113271,28.5693367 L9.07966931,28.5628927 C9.0447091,28.5855413 8.93576307,28.6561114 8.77803253,28.7581756 L8.77803253,28.7581756 L8.6952512,28.8117351 L8.54721999,28.907636 C8.39203601,29.0092907 8.217156,29.1270291 8.03844045,29.2502558 L8.03844045,29.2502558 L7.85903381,29.3749196 L7.7287684,29.4668923 C7.20950848,29.833517 6.72262585,30.177347 6.65536555,30.2248456 L6.65536555,30.2248456 L6.64746884,30.2304223 L6.62408578,30.1822779 C6.55223574,30.020688 6.47604292,29.7086587 6.69156258,29.3534762 L6.69156258,29.3534762 L6.76610574,29.2446349 L6.82214801,29.1749376 C7.16457083,28.7784256 7.93598469,28.3593821 9.46999034,28.121916 L9.46999034,28.121916 Z M100.397353,25.9201588 L100.482691,26.171663 C100.694905,26.8525905 100.781461,27.6086902 100.67476,28.2761631 L100.625556,28.5219911 L100.585587,28.6791544 C100.395109,29.3486263 99.9794142,29.8627495 99.3137582,30.028536 L99.1556969,30.060523 C99.1677907,30.0275075 99.1932644,29.9572535 99.2290281,29.8532173 L99.2895877,29.6733926 L99.3241498,29.5674148 L99.450156,29.1682397 C99.4958807,29.023513 99.5446555,28.8692354 99.5944622,28.7117588 L99.6696942,28.4739388 L99.7445586,28.2330606 C99.8183911,27.9934546 99.8882014,27.760243 99.9456551,27.5566248 L99.9986812,27.3637302 L100.028877,27.2543684 C100.086382,27.0459932 100.12594,26.9020742 100.136068,26.8652071 L100.138627,26.8558917 L100.135356,26.8651543 C100.122411,26.9018119 100.071889,27.044908 99.9988522,27.252028 L99.9605273,27.360727 L99.8926785,27.5522749 C99.8198516,27.7544104 99.7330716,27.9857582 99.6411706,28.2233666 L99.5478898,28.4622117 L99.4541885,28.6976692 C99.3610954,28.9315672 99.2707908,29.1584222 99.1919514,29.3569503 L99.1172551,29.5452478 L99.0751587,29.6498754 C98.9940435,29.8492995 98.9328106,29.9874348 98.9169709,30.0228322 L98.912952,30.0317774 L98.8685064,29.999783 C98.6925155,29.8675163 98.3879525,29.5675817 98.4395562,28.9952205 C98.5021861,28.3636759 98.9531215,27.4273709 100.397353,25.9201588 Z M3.60264698,25.9201588 C5.0468785,27.4273709 5.49781391,28.3636759 5.56044383,28.9952205 C5.61204752,29.5675817 5.30748455,29.8675163 5.13149363,29.999783 L5.13149363,29.999783 L5.08704803,30.0317774 C5.06718935,29.9874348 5.00595646,29.8492995 4.92484127,29.6498754 L4.92484127,29.6498754 L4.88274492,29.5452478 L4.80804859,29.3569503 C4.72920919,29.1584222 4.63890462,28.9315672 4.54581151,28.6976692 L4.54581151,28.6976692 L4.45211024,28.4622117 L4.35882938,28.2233666 C4.2669284,27.9857582 4.18014839,27.7544104 4.10732146,27.5522749 L4.10732146,27.5522749 L4.03947267,27.360727 L4.00114783,27.252028 C3.92811109,27.044908 3.87758872,26.9018119 3.86464431,26.8651543 L3.86464431,26.8651543 L3.86137334,26.8558917 L3.86393202,26.8652071 C3.87406045,26.9020742 3.91361752,27.0459932 3.97112332,27.2543684 L3.97112332,27.2543684 L4.00131881,27.3637302 L4.0543449,27.5566248 C4.11179856,27.760243 4.18160889,27.9934546 4.25544136,28.2330606 L4.25544136,28.2330606 L4.33030585,28.4739388 L4.40553777,28.7117588 C4.45534454,28.8692354 4.50411928,29.023513 4.54984401,29.1682397 L4.54984401,29.1682397 L4.67585022,29.5674148 L4.71041225,29.6733926 L4.77097194,29.8532173 C4.80673556,29.9572535 4.83220934,30.0275075 4.84430311,30.060523 L4.84430311,30.060523 L4.68624177,30.028536 C4.02058585,29.8627495 3.60489072,29.3486263 3.41441335,28.6791544 L3.41441335,28.6791544 L3.37444372,28.5219911 L3.32524007,28.2761631 C3.21853942,27.6086902 3.30509483,26.8525905 3.51730861,26.171663 L3.51730861,26.171663 Z M93.607838,24.8365506 L93.8640847,24.8612237 C95.1054636,24.9956683 95.7545053,25.2928231 96.0577806,25.5962851 L96.1138985,25.6570152 L96.1920535,25.7597466 C96.3714716,26.0316506 96.3279906,26.2832079 96.2790731,26.4190094 L96.2608989,26.4643226 L96.2519238,26.4587667 C96.1875083,26.4188912 95.7857777,26.1702008 95.3531055,25.9022526 L95.222682,25.82148 L95.1023465,25.7491804 C94.8223832,25.58173 94.5521529,25.4251308 94.3755656,25.3237026 L94.2490953,25.2513092 C94.2158875,25.232371 94.1922812,25.2189703 94.1802335,25.2121407 L94.1710753,25.2069539 L94.1796618,25.2126499 C94.2412691,25.2535558 94.6251707,25.5090789 95.0314589,25.7936342 L95.1537171,25.8796862 L95.2653309,25.960245 C95.710012,26.281179 96.1228251,26.5788759 96.1228251,26.5788759 C95.0143476,27.0661205 93.992976,25.9426118 93.607838,24.8365506 Z M10.392162,24.8365506 C10.007024,25.9426118 8.98565245,27.0661205 7.87717489,26.5788759 C7.87717489,26.5788759 8.28998796,26.281179 8.73466913,25.960245 L8.73466913,25.960245 L8.84628288,25.8796862 L8.96854106,25.7936342 C9.37482932,25.5090789 9.75873086,25.2535558 9.82033819,25.2126499 L9.82033819,25.2126499 L9.8289247,25.2069539 L9.81976654,25.2121407 C9.80771876,25.2189703 9.78411246,25.232371 9.75090473,25.2513092 L9.75090473,25.2513092 L9.62443436,25.3237026 C9.44784715,25.4251308 9.17761681,25.58173 8.89765351,25.7491804 L8.89765351,25.7491804 L8.77731799,25.82148 L8.64689447,25.9022526 C8.21422234,26.1702008 7.81249173,26.4188912 7.74807624,26.4587667 L7.74807624,26.4587667 L7.73910111,26.4643226 L7.72092692,26.4190094 C7.67200935,26.2832079 7.62852835,26.0316506 7.80794651,25.7597466 L7.80794651,25.7597466 L7.88610145,25.6570152 L7.94221935,25.5962851 C8.24549468,25.2928231 8.89453637,24.9956683 10.1359153,24.8612237 L10.1359153,24.8612237 Z M98.7757421,22.5037255 L98.8636894,22.7246294 C99.0862707,23.3229538 99.2097406,23.989778 99.1488833,24.5935942 L99.1172551,24.8168149 L99.0862587,24.9706419 C98.9461514,25.5758394 98.6111616,26.0552599 98.0300621,26.2486856 L97.8796303,26.2909911 L97.8820556,26.2814842 L97.9157949,26.1492518 C97.9718622,25.9295368 98.085942,25.4825952 98.2066307,25.0104062 L98.2520984,24.8325463 L98.3066817,24.6117196 C98.3590628,24.3928654 98.4050063,24.1818574 98.4460363,23.9960563 L98.4854848,23.8193004 L98.5073918,23.7195158 C98.549154,23.5293595 98.5781204,23.3978576 98.5855442,23.3641663 L98.5874204,23.3556529 C98.575666,23.3954711 98.5383845,23.5217582 98.484728,23.7034536 L98.4506424,23.8188714 L98.3978398,23.9953561 C98.3427669,24.1807899 98.280873,24.3911527 98.2120647,24.6091763 L98.1409482,24.829114 L98.0926149,24.9741694 C97.8837922,25.6008699 97.6870885,26.1911055 97.6600535,26.2722274 L97.6568982,26.2816952 L97.6090576,26.2536772 C97.4370372,26.1460694 97.1531887,25.8924403 97.1682408,25.3764241 C97.1899813,24.8029426 97.5366775,23.9332817 98.7757421,22.5037255 Z M5.22425794,22.5037255 C6.46332248,23.9332817 6.81001867,24.8029426 6.83175917,25.3764241 C6.8468113,25.8924403 6.56296277,26.1460694 6.39094238,26.2536772 L6.39094238,26.2536772 L6.34310184,26.2816952 C6.31291145,26.1911055 6.11620784,25.6008699 5.90738505,24.9741694 L5.90738505,24.9741694 L5.85905176,24.829114 L5.78793527,24.6091763 C5.71912702,24.3911527 5.65723311,24.1807899 5.60216025,23.9953561 L5.60216025,23.9953561 L5.54935761,23.8188714 L5.51527195,23.7034536 C5.46161548,23.5217582 5.42433399,23.3954711 5.41257963,23.3556529 L5.41257963,23.3556529 C5.42187963,23.3978576 5.45084597,23.5293595 5.49260825,23.7195158 L5.49260825,23.7195158 L5.51451522,23.8193004 L5.55396372,23.9960563 C5.59499366,24.1818574 5.64093724,24.3928654 5.69331831,24.6117196 L5.69331831,24.6117196 L5.74790165,24.8325463 L5.79336931,25.0104062 C5.91405802,25.4825952 6.02813776,25.9295368 6.0842051,26.1492518 L6.0842051,26.1492518 L6.11794444,26.2814842 L6.12036969,26.2909911 L5.96993789,26.2486856 C5.38883841,26.0552599 5.05384862,25.5758394 4.91374133,24.9706419 L4.91374133,24.9706419 L4.88274492,24.8168149 L4.85111667,24.5935942 C4.79025939,23.989778 4.91372931,23.3229538 5.13631056,22.7246294 L5.13631056,22.7246294 Z M94.2450794,20 C95.9619967,21.3801235 96.648923,22.496328 96.8631645,23.2741444 L96.8895017,23.3781059 L96.9215748,23.5540924 C97.0107648,24.1761018 96.798783,24.5437099 96.6602604,24.710374 L96.6245843,24.750886 C96.6021957,24.7040433 96.5189085,24.5298102 96.398211,24.2776553 L96.3442615,24.1649624 L96.237608,23.9409643 C96.124888,23.704976 95.9948458,23.4360375 95.8553807,23.1613328 L95.5714941,22.6099989 C95.422042,22.3177603 95.2786877,22.0348122 95.1520746,21.793321 L95.0604201,21.6204783 L95.0009358,21.5112548 C94.8868919,21.3018699 94.8034138,21.1487155 94.7688025,21.0852248 L94.7589585,21.069 L94.7667564,21.0858926 C94.7973624,21.1506874 94.8712184,21.306961 94.9723695,21.5204327 L95.0251458,21.6317763 L95.1270941,21.8544553 C95.2332833,22.089867 95.3514042,22.3604632 95.4743351,22.639122 L95.5986055,22.9194638 L95.7235854,23.1996453 C95.8540335,23.4973573 95.9744798,23.7879462 96.0768851,24.0383083 L96.1501807,24.2180202 L96.1970186,24.3322419 C96.3017784,24.5877079 96.373751,24.7631678 96.3901073,24.8030411 L96.3936455,24.8116664 L96.2349448,24.7882797 C95.5633982,24.6522878 95.0999467,24.0724427 94.7690493,23.3056893 L94.695007,23.1255452 L94.5891054,22.8093651 C94.3240569,21.9459066 94.1991348,20.9299012 94.2450794,20 Z M9.75492062,20 C9.80086522,20.9299012 9.67594311,21.9459066 9.41089461,22.8093651 L9.41089461,22.8093651 L9.30499304,23.1255452 L9.23095073,23.3056893 C8.90005326,24.0724427 8.4366018,24.6522878 7.76505517,24.7882797 L7.76505517,24.7882797 L7.60635448,24.8116664 C7.62624896,24.7631678 7.69822157,24.5877079 7.8029814,24.3322419 L7.8029814,24.3322419 L7.84981929,24.2180202 L7.92311495,24.0383083 C8.02552022,23.7879462 8.14596649,23.4973573 8.27641456,23.1996453 L8.27641456,23.1996453 L8.4013945,22.9194638 L8.52566493,22.639122 C8.64859579,22.3604632 8.76671668,22.089867 8.87290593,21.8544553 L8.87290593,21.8544553 L8.97485419,21.6317763 L9.02763048,21.5204327 C9.12878161,21.306961 9.20263757,21.1506874 9.2332436,21.0858926 L9.2332436,21.0858926 L9.2410415,21.069 L9.23119751,21.0852248 C9.1965862,21.1487155 9.11310808,21.3018699 8.99906422,21.5112548 L8.99906422,21.5112548 L8.93957987,21.6204783 L8.84792535,21.793321 C8.72131229,22.0348122 8.577958,22.3177603 8.42850591,22.6099989 L8.42850591,22.6099989 L8.14461932,23.1613328 C8.00515416,23.4360375 7.87511199,23.704976 7.76239196,23.9409643 L7.76239196,23.9409643 L7.65573853,24.1649624 L7.60178904,24.2776553 C7.48109145,24.5298102 7.39780428,24.7040433 7.37541566,24.750886 L7.37541566,24.750886 L7.33973955,24.710374 C7.20121701,24.5437099 6.98923522,24.1761018 7.07842522,23.5540924 L7.07842522,23.5540924 L7.1104983,23.3781059 L7.13683553,23.2741444 C7.35107704,22.496328 8.03800326,21.3801235 9.75492062,20 Z" id="形状结合" fill="url(#linearGradient-1)" fill-rule="nonzero"></path>
            <g id="编组-39" transform="translate(22.000000, 0.000000)">
                <rect id="矩形" x="0" y="0" width="60" height="60"></rect>
                <path d="M30,3 C32.4584953,3 34.5716351,4.4786429 35.4986146,6.59512401 C46.9384674,9.10818439 55.5,19.3042657 55.5,31.5 C55.5,36.7676958 53.902735,41.6623304 51.1661055,45.7260032 C51.9997305,46.7568198 52.5,48.0699878 52.5,49.5 C52.5,52.8137085 49.8137085,55.5 46.5,55.5 C44.883814,55.5 43.4168766,54.8609906 42.3380575,53.8218416 C38.6825248,55.8468044 34.4759341,57 30,57 C25.5240659,57 21.3174752,55.8468044 17.6611331,53.8213187 C16.5831234,54.8609906 15.116186,55.5 13.5,55.5 C10.1862915,55.5 7.5,52.8137085 7.5,49.5 C7.5,48.0704415 7.99995212,46.757653 8.83454877,45.7269422 C6.09747597,41.6629768 4.5,36.7680437 4.5,31.5 C4.5,19.3042501 13.0615544,9.10815843 24.5022262,6.59416201 C25.4290323,4.47817597 27.5418929,3 30,3 Z M35.9466281,9.79418965 L35.9349446,9.88663603 C35.5063981,12.7799244 33.0124623,15 30,15 C26.9557549,15 24.4410353,12.7328316 24.0521828,9.79483647 C14.5126158,12.4019605 7.5,21.1320381 7.5,31.5 C7.5,36.0985208 8.879525,40.3748363 11.2473029,43.9376743 C11.9432936,43.6551925 12.7035232,43.5 13.5,43.5 C16.8137085,43.5 19.5,46.1862915 19.5,49.5 C19.5,50.1135137 19.4079184,50.7055205 19.2368216,51.262954 C22.4330771,53.008105 26.1007038,54 30,54 C33.8991771,54 37.5666989,53.0081655 40.7640352,51.2630268 C40.5920816,50.7055205 40.5,50.1135137 40.5,49.5 C40.5,46.1862915 43.1862915,43.5 46.5,43.5 C47.2964768,43.5 48.0567064,43.6551925 48.7520994,43.936988 C51.120475,40.3748363 52.5,36.0985208 52.5,31.5 C52.5,21.1320646 45.4874199,12.402005 35.9466281,9.79418965 Z M13.5,46.5 C11.8431458,46.5 10.5,47.8431458 10.5,49.5 C10.5,51.1568542 11.8431458,52.5 13.5,52.5 C15.1568542,52.5 16.5,51.1568542 16.5,49.5 C16.5,47.8431458 15.1568542,46.5 13.5,46.5 Z M46.5,46.5 C44.8431458,46.5 43.5,47.8431458 43.5,49.5 C43.5003201,49.5014074 43.5006509,49.5011589 43.5009816,49.5009105 L43.5,49.529 L43.5050927,49.6762728 C43.5963391,51.25108 44.9023191,52.5 46.5,52.5 C48.1568542,52.5 49.5,51.1568542 49.5,49.5 C49.5,47.8431458 48.1568542,46.5 46.5,46.5 Z M30,18 L42,42 L18,42 L30,18 Z M30,24.7065 L22.8525,39 L37.146,39 L30,24.7065 Z M30,6 C28.3431458,6 27,7.34314575 27,9 C27,10.6568542 28.3431458,12 30,12 C31.6568542,12 33,10.6568542 33,9 C33,7.34314575 31.6568542,6 30,6 Z" id="形状结合" fill="url(#linearGradient-2)" fill-rule="nonzero"></path>
            </g>
        </g>
    </g>
</svg>