<?xml version="1.0" encoding="UTF-8"?>
<svg width="20px" height="20px" viewBox="0 0 20 20" version="1.1" xmlns="http://www.w3.org/2000/svg" xmlns:xlink="http://www.w3.org/1999/xlink">
    <title>画板</title>
    <g id="画板" stroke="none" stroke-width="1" fill="none" fill-rule="evenodd">
        <g id="关闭-(2)" fill="#FFFFFF" fill-rule="nonzero">
            <path d="M10,8.85180999 L1.38695091,0.238760881 C1.06912355,-0.0764545515 0.556588239,-0.0764545515 0.238760881,0.238760881 C0.0859320461,0.39071752 9.52228786e-16,0.597339136 9.52228786e-16,0.812855894 C9.52228786e-16,1.02837265 0.0859320461,1.23499427 0.238760881,1.38695091 L8.85180999,10 L0.238760881,18.6130491 C-0.0764545515,18.9308765 -0.0764545515,19.4434118 0.238760881,19.7612391 C0.39071752,19.914068 0.597339136,20 0.812855894,20 C1.02837265,20 1.23499427,19.914068 1.38695091,19.7612391 L10,11.14819 L18.6130491,19.7612391 C18.9256751,20.0738651 19.443741,20.0779252 19.7612391,19.7612391 C19.914068,19.6092825 20,19.4026609 20,19.1871441 C20,18.9716273 19.914068,18.7650057 19.7612391,18.6130491 L11.14819,10 L19.7612391,1.38695091 C20.0764546,1.06912355 20.0764546,0.556588239 19.7612391,0.238760881 C19.6092825,0.0859320461 19.4026609,4.39490209e-16 19.1871441,4.39490209e-16 C18.9716273,4.39490209e-16 18.7650057,0.0859320461 18.6130491,0.238760881 L10,8.85180999 Z" id="路径"></path>
        </g>
    </g>
</svg>