<?xml version="1.0" encoding="UTF-8"?>
<svg width="12px" height="12px" viewBox="0 0 12 12" version="1.1" xmlns="http://www.w3.org/2000/svg" xmlns:xlink="http://www.w3.org/1999/xlink">
    <title>资料下载小动效</title>
    <g id="资料下载小动效" stroke="none" stroke-width="1" fill="none" fill-rule="evenodd">
        <g id="编组-2">
            <circle id="椭圆形" fill="#FF5050" cx="6" cy="6" r="6"></circle>
            <path d="M8.77055847,6.13811133 C9.07648051,6.43597781 9.07648051,6.91881939 8.77055847,7.21668587 L6.54969981,9.3768861 C6.2432934,9.6743713 5.74724417,9.6743713 5.44083776,9.3768861 L3.2199791,7.21668587 C2.92299857,6.91738604 2.92724597,6.44163431 3.22952539,6.14740342 C3.53180482,5.85317253 4.02057049,5.84903824 4.3280575,6.13811133 L5.21279617,6.99929284 L5.21279617,3.76278257 C5.21279617,3.34150939 5.56364737,3 5.99644426,3 C6.42924114,3 6.78009234,3.34150939 6.78009234,3.76278257 L6.78009234,6.99700449 L7.66248007,6.13811133 C7.96849453,5.84033479 8.464544,5.84033479 8.77055847,6.13811133 Z" id="路径" fill="#FFFFFF" fill-rule="nonzero"></path>
        </g>
    </g>
</svg>