<?xml version="1.0" encoding="UTF-8"?>
<svg width="16px" height="16px" viewBox="0 0 16 16" version="1.1" xmlns="http://www.w3.org/2000/svg" xmlns:xlink="http://www.w3.org/1999/xlink">
    <title>资料下载icon</title>
    <g id="资料下载icon" stroke="none" stroke-width="1" fill="none" fill-rule="evenodd">
        <g id="编组-32">
            <rect id="矩形" x="0" y="0" width="16" height="16"></rect>
            <path d="M11.3333333,0.666666667 L11.3326667,5.33266667 L15.3333333,5.33333333 L15.3333333,15.3333333 L0.666666667,15.3333333 L0.666666667,0.666666667 L11.3333333,0.666666667 Z M9.999,2 L2,2 L2,13.999 L9.999,13.999 L9.999,2 Z M13.999,6.666 L11.333,6.666 L11.333,13.999 L13.999,13.999 L13.999,6.666 Z M6,8.66666667 L6,10 L3.33333333,10 L3.33333333,8.66666667 L6,8.66666667 Z M8.66666667,6 L8.66666667,7.33333333 L3.33333333,7.33333333 L3.33333333,6 L8.66666667,6 Z M8.66666667,3.33333333 L8.66666667,4.66666667 L3.33333333,4.66666667 L3.33333333,3.33333333 L8.66666667,3.33333333 Z" id="形状结合" fill="#613CE8" fill-rule="nonzero"></path>
        </g>
    </g>
</svg>