<?xml version="1.0" encoding="UTF-8"?>
<svg width="20px" height="20px" viewBox="0 0 20 20" version="1.1" xmlns="http://www.w3.org/2000/svg" xmlns:xlink="http://www.w3.org/1999/xlink">
    <title>电话</title>
    <g id="电话" stroke="none" stroke-width="1" fill="none" fill-rule="evenodd">
        <g id="编组-25">
            <rect id="矩形" x="0" y="0" width="20" height="20"></rect>
            <g id="编组-28" transform="translate(2.000000, 2.000000)" fill-rule="nonzero">
                <path d="M12.7148039,10.3827937 C12.7668048,10.400126 13.9388233,10.8254356 14.8881717,11.4467341 C15.2508441,11.6773879 15.8548536,12.085365 15.9748555,12.6866647 C16.0615235,13.0959751 15.9228547,13.5746149 15.5788493,14.1239175 C15.003361,15.0034898 14.1148208,15.6312384 13.0934766,15.8798192 C12.6628031,15.9864798 12.1801288,16.0224778 11.6961212,15.9864798 C11.1485878,15.9475428 10.6089316,15.8340572 10.0920958,15.6491654 C7.9360617,14.9598707 6.14136664,13.8412667 4.26000356,12.013369 C1.0519528,8.87487813 0.257273576,5.71772163 0.119938066,5.11508872 C-0.501405086,2.33124463 1.48262629,0.699336013 1.70662984,0.522012623 C2.01730142,0.27402651 2.3106394,0.114035465 2.58664375,0.0420395055 C2.72531261,0.00737478022 2.86264812,-0.0112908372 2.98398337,0.00737478022 C3.25998774,0.0260403976 3.63999376,0.131367828 3.98399919,0.610007691 C4.45067324,1.23130624 4.984015,2.15392122 5.43335545,3.14719892 C5.9000295,4.17514135 5.38135463,4.63644885 4.88134671,5.06175836 L4.8640131,5.08042399 C4.8640131,5.08042399 3.95066532,5.77105199 3.79466286,5.87771267 C3.63380121,5.99762641 3.58898585,6.21938907 3.69066121,6.39235052 C4.43913137,7.62625559 5.34397648,8.75823905 6.38270379,9.7601619 C7.39349273,10.7507618 8.51669878,11.6197298 9.72942339,12.3493502 C9.81609143,12.3853482 9.90275947,12.4200129 10.0054278,12.3853482 L10.040095,12.3853482 C10.1446618,12.3542886 10.2279758,12.2749476 10.2640985,12.1720268 C10.3964902,11.8648639 10.5525165,11.5684353 10.7307726,11.2854098 C11.1094452,10.7001093 11.4721176,10.3814604 11.8867909,10.2921321 C12.0067928,10.2574674 12.1107944,10.2574674 12.2134627,10.2574674 C12.3174643,10.2574674 12.5068007,10.2921321 12.7148039,10.3814604 L12.7148039,10.3827937 Z" id="路径" stroke="#FFFFFF" stroke-width="1.33333333"></path>
                <path d="M9.33333333,0 C13.0152317,0 16,2.98476833 16,6.66666667 C16,7.0348565 15.7015232,7.33333333 15.3333333,7.33333333 C14.9651435,7.33333333 14.6666667,7.0348565 14.6666667,6.66666667 C14.6666667,3.721148 12.278852,1.33333333 9.33333333,1.33333333 C8.9651435,1.33333333 8.66666667,1.0348565 8.66666667,0.666666667 C8.66666667,0.298476833 8.9651435,0 9.33333333,0 Z" id="路径" fill="#07C5D5"></path>
                <path d="M9.33333333,2.66666667 C11.5424723,2.66666667 13.3333333,4.45752767 13.3333333,6.66666667 C13.3333333,7.0348565 13.0348565,7.33333333 12.6666667,7.33333333 C12.2984768,7.33333333 12,7.0348565 12,6.66666667 C12,5.19390733 10.8060927,4 9.33333333,4 C8.9651435,4 8.66666667,3.70152317 8.66666667,3.33333333 C8.66666667,2.9651435 8.9651435,2.66666667 9.33333333,2.66666667 Z" id="路径" fill="#07C5D5"></path>
            </g>
        </g>
    </g>
</svg>