<?xml version="1.0" encoding="UTF-8"?>
<svg width="24px" height="24px" viewBox="0 0 24 24" version="1.1" xmlns="http://www.w3.org/2000/svg" xmlns:xlink="http://www.w3.org/1999/xlink">
    <title>图片直播icon</title>
    <g id="图片直播icon" stroke="none" stroke-width="1" fill="none" fill-rule="evenodd">
        <path d="M20,0 L20,10 L22,10 C23.1045695,10 24,10.8954305 24,12 L24,22 C24,23.1045695 23.1045695,24 22,24 L12,24 C10.8954305,24 10,23.1045695 10,22 L10,16 L0,16 L0,0 L20,0 Z M22,12 L12,12 L12,22 L22,22 L22,12 Z M15.5,14 L19.5,17 L15.5,20 L15.5,14 Z M18,6.234 L10.0197677,10.167699 L6.309,8.5 L2,11.152 L2,14 L10,14 L10,12 C10,10.8954305 10.8954305,10 12,10 L18,10 L18,6.234 Z M18,2 L2,2 L2,8.803 L6.16242252,6.24245436 L9.979,7.957 L18,4.003 L18,2 Z M5,3 C5.55228475,3 6,3.44771525 6,4 C6,4.55228475 5.55228475,5 5,5 C4.44771525,5 4,4.55228475 4,4 C4,3.44771525 4.44771525,3 5,3 Z" id="形状结合" fill="#FFFFFF" fill-rule="nonzero"></path>
    </g>
</svg>