<?xml version="1.0" encoding="UTF-8"?>
<svg width="20px" height="20px" viewBox="0 0 20 20" version="1.1" xmlns="http://www.w3.org/2000/svg" xmlns:xlink="http://www.w3.org/1999/xlink">
    <title>微信hover</title>
    <g id="微信hover" stroke="none" stroke-width="1" fill="none" fill-rule="evenodd">
        <g id="编组-26">
            <rect id="矩形" x="0" y="0" width="20" height="20"></rect>
            <g id="微信-(1)" transform="translate(1.000000, 3.000000)" fill-rule="nonzero">
                <path d="M8.76010596,2.58630734 C9.2398729,2.58630734 9.55743917,2.888018 9.55743917,3.34579085 C9.55743917,3.80166473 9.2398729,4.10715291 8.76010596,4.10715291 C8.28226469,4.10715291 7.80347117,3.80166473 7.80347117,3.34579085 C7.80347117,2.888018 8.28228585,2.58630734 8.76010596,2.58630734 Z M4.30139677,4.10713248 C3.8235555,4.10713248 3.34182055,3.8016443 3.34182055,3.34577042 C3.34182055,2.88799757 3.8235555,2.5862869 4.30139677,2.5862869 C4.77870902,2.5862869 5.09678315,2.88799757 5.09678315,3.34577042 C5.09678315,3.80166473 4.77870902,4.10713248 4.30139677,4.10713248 Z M10.8316402,8.21571473 C10.5145818,8.21571473 10.1945609,7.9144737 10.1945609,7.60708654 C10.1945609,7.30396695 10.5145819,6.99894841 10.8316402,6.99894841 C11.3133752,6.99894841 11.6289946,7.30396695 11.6289946,7.60708654 C11.6289946,7.9144737 11.3133752,8.21571473 10.8316402,8.21571473 Z M14.3356826,8.21571473 C14.0210789,8.21571473 13.7030048,7.9144737 13.7030048,7.60708654 C13.7030048,7.30396695 14.0210789,6.99894841 14.3356826,6.99894841 C14.8135239,6.99894841 15.133037,7.30396695 15.133037,7.60708654 C15.133037,7.9144737 14.8135239,8.21571473 14.3356826,8.21571473 Z" id="形状" fill="#07C5D5"></path>
                <path d="M12.1850266,4.23585367 C12.3921313,4.23585367 12.5963793,4.25047364 12.7986382,4.27168895 C12.2475791,1.82114733 9.50322414,0 6.37098422,0 C2.86888867,0 0,2.27938982 0,5.17353351 C0,6.84384594 0.954666814,8.21571473 2.54937557,9.27974715 L1.91227502,11.1101239 L4.13919608,10.0434778 C4.93655046,10.1938635 5.57557666,10.3489456 6.37098422,10.3489456 C6.57080951,10.3489456 6.76866682,10.3395529 6.96557189,10.3244837 C6.84097469,9.91810536 6.76866684,9.49194107 6.76866684,9.05017671 C6.768688,6.39268883 9.15878314,4.23585367 12.1850266,4.23585367 Z" id="路径" stroke="#07C5D5" stroke-width="1.33"></path>
                <path d="M18,8.9770972 C18,6.54495307 15.4511111,4.56255715 12.5885708,4.56255715 C9.55743917,4.56255715 7.17028545,6.54495309 7.17028545,8.9770972 C7.17028545,11.4127738 9.55743919,13.3909226 12.5885708,13.3909226 C13.22273,13.3909226 13.8627719,13.2390871 14.4998301,13.0863737 L16.2475133,14 L15.7681907,12.4800937 C17.0473223,11.5636291 18,10.3489456 18,8.9770972 Z" id="路径" stroke="#07C5D5" stroke-width="1.33"></path>
            </g>
        </g>
    </g>
</svg>