<?xml version="1.0" encoding="UTF-8"?>
<svg width="24px" height="24px" viewBox="0 0 24 24" version="1.1" xmlns="http://www.w3.org/2000/svg" xmlns:xlink="http://www.w3.org/1999/xlink">
    <title>我要分享icon</title>
    <g id="我要分享icon" stroke="none" stroke-width="1" fill="none" fill-rule="evenodd">
        <g id="编组-30">
            <rect id="矩形" x="0" y="0" width="24" height="24"></rect>
            <path d="M14,1 L14,3 L4,3 C3.48716416,3 3.06449284,3.38604019 3.00672773,3.88337887 L3,4 L3,20 C3,20.5128358 3.38604019,20.9355072 3.88337887,20.9932723 L4,21 L20,21 C20.5128358,21 20.9355072,20.6139598 20.9932723,20.1166211 L21,20 L21,11 L23,11 L23,20 C23,21.5976809 21.75108,22.9036609 20.1762728,22.9949073 L20,23 L4,23 C2.40231912,23 1.09633912,21.75108 1.00509269,20.1762728 L1,20 L1,4 C1,2.40231912 2.24891996,1.09633912 3.82372721,1.00509269 L4,1 L14,1 Z M17.3798389,0.739746484 L23.5817607,5.35642251 L17.3845867,11.7397465 L17.3845867,8.26282744 C12.704944,6.95189029 7.77413496,11.3977753 7.77413496,11.3977753 C9.10190811,4.95622035 14.8560594,4.35253268 16.7631957,4.33247716 L16.9435578,4.3322449 C17.220984,4.33452882 17.3798389,4.34846235 17.3798389,4.34846235 L17.3798389,4.34846235 L17.3798389,0.739746484 Z" id="形状结合" fill="#FFFFFF" fill-rule="nonzero"></path>
        </g>
    </g>
</svg>