<?xml version="1.0" encoding="UTF-8"?>
<svg width="93px" height="56px" viewBox="0 0 93 56" version="1.1" xmlns="http://www.w3.org/2000/svg" xmlns:xlink="http://www.w3.org/1999/xlink">
    <title>logo</title>
    <g id="logo" stroke="none" stroke-width="1" fill="none" fill-rule="evenodd">
        <g id="编组" transform="translate(-0.000000, -0.000000)">
            <path d="M60.3566,50.9322 L60.3566,51.8342 C60.3366,52.3932 60.2846,52.8702 60.2016,53.2642 C60.5956,53.5962 61.1756,54.0212 61.9426,54.5392 C61.9016,54.4972 61.9426,54.5292 62.0676,54.6322 L61.5076,55.2542 C60.9476,54.7362 60.4186,54.3012 59.9216,53.9482 C59.6516,54.4042 59.0096,54.8812 57.9936,55.3792 C57.9516,55.3372 57.8896,55.2542 57.8066,55.1302 C57.6616,54.9232 57.5586,54.7672 57.4956,54.6632 C58.4296,54.3522 59.0096,54.0212 59.2376,53.6682 C59.5066,53.3572 59.6416,52.7562 59.6416,51.8652 L59.6416,50.9322 L60.3566,50.9322 Z M41.6783,47.8848 C41.6573,48.3618 41.6473,48.8698 41.6473,49.4088 L43.6063,49.4088 L43.6063,49.9998 C43.5653,52.0308 43.5333,53.3678 43.5133,54.0108 C43.4923,54.7368 43.1403,55.1098 42.4563,55.1298 L41.3673,55.1298 C41.3463,54.9438 41.2843,54.6838 41.1813,54.3528 L41.6473,54.3528 C41.8553,54.3738 42.0103,54.3838 42.1133,54.3838 C42.4863,54.3838 42.6733,54.1768 42.6733,53.7618 C42.7563,52.5388 42.7983,51.3368 42.7983,50.1548 L41.6163,50.1548 L41.6163,50.4968 C41.6373,52.6528 41.1183,54.2698 40.0613,55.3478 C39.8543,55.2028 39.6153,55.0368 39.3463,54.8498 C39.5333,54.6638 39.6983,54.4878 39.8433,54.3218 L39.3463,54.4768 L39.3153,54.4148 C39.2943,54.3318 39.2743,54.2698 39.2533,54.2278 C39.0873,54.2488 38.8593,54.2698 38.5693,54.2908 C38.0093,54.3318 37.6053,54.3628 37.3563,54.3838 C37.0873,54.4048 36.8483,54.4358 36.6413,54.4768 L36.3303,53.8238 C36.4963,53.6998 36.6203,53.5238 36.7033,53.2958 C37.0353,52.5698 37.2943,51.8858 37.4813,51.2428 L36.3303,51.2428 L36.3303,50.4968 L39.9373,50.4968 L39.9373,51.2428 L38.3513,51.2428 C38.0193,52.1348 37.6883,52.9328 37.3563,53.6368 C37.4183,53.6368 37.5113,53.6268 37.6363,53.6068 C38.2163,53.5858 38.6623,53.5548 38.9733,53.5128 C38.7863,53.0568 38.6003,52.6118 38.4133,52.1758 L39.0973,51.9278 C39.4503,52.6948 39.7503,53.4198 39.9993,54.1038 C40.5383,53.3988 40.8083,52.1868 40.8083,50.4658 L40.8083,50.3418 C40.8283,50.2588 40.8393,50.1968 40.8393,50.1548 L39.9683,50.1548 L39.9683,49.4088 L40.8393,49.4088 C40.8603,48.9528 40.8703,48.4448 40.8703,47.8848 L41.6783,47.8848 Z M88.3273,51.8338 L88.3273,55.3168 L87.4573,55.3168 L87.4573,54.8188 L83.4453,54.8188 L83.4453,55.3168 L82.6063,55.3168 L82.6063,51.8338 L88.3273,51.8338 Z M24.8046,48.2888 L24.8046,49.0668 L24.1196,50.3728 L25.3646,50.3728 L25.3646,51.1498 C25.0536,52.1038 24.6806,52.8808 24.2446,53.4818 C24.6596,53.8548 25.1566,54.1768 25.7376,54.4458 C25.5506,54.6948 25.3846,54.9538 25.2396,55.2228 C24.6596,54.8088 24.1516,54.4258 23.7156,54.0728 C23.2596,54.5088 22.6796,54.9228 21.9746,55.3168 C21.7256,54.9848 21.5496,54.7468 21.4466,54.6018 C22.1506,54.2908 22.7216,53.9178 23.1566,53.4818 C22.7416,52.9638 22.4106,52.3628 22.1606,51.6788 C22.0576,53.0258 21.6016,54.2078 20.7926,55.2228 C20.7306,55.1608 20.6376,55.0578 20.5136,54.9118 C20.3686,54.7878 20.2646,54.6838 20.2026,54.6018 L20.4516,54.3218 C19.7456,54.3838 19.0316,54.5088 18.3056,54.6948 L18.1496,53.9488 C18.3366,53.9278 18.6166,53.8758 18.9896,53.7928 C19.6526,53.6898 20.1606,53.6068 20.5136,53.5438 L20.5136,54.2278 C21.1766,53.3158 21.4976,51.8858 21.4766,49.9368 L21.5086,49.0348 L20.8866,49.0348 L20.8866,48.2888 L24.8046,48.2888 Z M56.7806,51.4302 L56.7806,53.0782 C56.9266,52.8912 57.1226,52.5592 57.3716,52.0822 C57.4126,52.0002 57.4446,51.9372 57.4656,51.8962 L58.0556,52.2382 C57.3926,53.6892 56.3246,54.7152 54.8526,55.3162 C54.7286,55.0472 54.5936,54.8192 54.4486,54.6322 C55.4436,54.2802 56.1796,53.8132 56.6566,53.2332 L56.0656,53.2332 L56.0656,51.4302 L56.7806,51.4302 Z M79.75,48.2275 L79.75,49.0355 L76.828,49.0355 L76.828,51.9895 L80.123,51.9895 L80.123,52.7975 L76.828,52.7975 L76.828,55.3165 L75.957,55.3165 L75.957,52.7975 L72.661,52.7975 L72.661,51.9895 L75.957,51.9895 L75.957,49.0355 L73.034,49.0355 L73.034,48.2275 L79.75,48.2275 Z M50.8162,49.5019 C50.8162,49.9369 50.7952,50.4659 50.7542,51.0879 C50.7332,51.5439 50.6812,51.9589 50.5982,52.3319 L51.1272,52.3319 L51.1272,54.0729 C51.1062,54.3209 51.2202,54.4359 51.4692,54.4149 L51.6862,54.4149 C51.9352,54.4359 52.0802,54.3209 52.1222,54.0729 C52.1222,54.0309 52.1322,53.9689 52.1532,53.8859 C52.1942,53.5749 52.2152,53.3269 52.2152,53.1399 C52.2478667,53.1562333 52.3991012,53.2100728 52.6693742,53.3014185 L52.9302,53.3889 L52.9302,53.3889 C52.9092,53.6789 52.8682,54.0109 52.8062,54.3839 C52.7295846,54.8620538 52.4229101,55.1110006 51.8877494,55.1299537 L51.2822,55.1299 C50.6812,55.1299 50.3812,54.8189 50.3812,54.1969 L50.3812,53.0469 C50.0902,53.8139 49.3342,54.5699 48.1112,55.3169 C48.0902,55.2959 48.0592,55.2549 48.0172,55.1919 C47.8102,54.9639 47.6652,54.7879 47.5822,54.6639 C49.2612,53.8549 50.0702,52.6729 50.0072,51.1189 C50.0282,50.8079 50.0382,50.2689 50.0382,49.5019 L50.8162,49.5019 Z M52.4332,48.1959 L52.4332,52.7359 L51.6552,52.7359 L51.6552,48.9419 L49.2302,48.9419 L49.2302,52.8289 L48.4522,52.8289 L48.4522,52.4869 L47.9862,52.8909 C47.8979143,52.7846143 47.7398327,52.6092673 47.5138443,52.3654889 L47.3952,52.2379 C47.4572,52.2999 47.3852,52.2169 47.1782,51.9889 L47.1782,55.2859 L46.4312,55.2859 L46.4312,52.3319 C46.2032,52.6009 45.9342,52.8599 45.6232,53.1089 C45.5402,52.8179 45.4572,52.5179 45.3742,52.2069 C46.0792,51.6889 46.6382,51.0149 47.0532,50.1859 L45.5302,50.1859 L45.5302,49.4399 L47.8932,49.4399 L47.8932,50.1859 C47.6652,50.6419 47.4272,51.0569 47.1782,51.4299 L47.1782,51.8959 L47.6132,51.4919 C47.7582,51.6159 47.9662,51.8239 48.2352,52.1139 L48.367325,52.245775 C48.40345,52.28215 48.4317,52.3109 48.4522,52.3319 L48.4522,48.1959 L52.4332,48.1959 Z M71.0483,50.6528 L71.0483,51.4918 L67.3173,51.4918 C66.7983,52.2178 66.1563,53.0258 65.3893,53.9178 C66.0733,53.9178 67.2653,53.8758 68.9653,53.7928 C68.6333,53.3158 68.2913,52.8808 67.9393,52.4868 L68.6543,52.0518 C68.9342,52.3686 69.34856,52.87089 69.896651,53.557212 L70.0843,53.7928 C70.4163,54.2078 70.6543,54.4878 70.7993,54.6328 L70.0223,55.1298 L69.5553,54.5088 C68.8513,54.5288 67.7313,54.5808 66.1973,54.6638 C65.8653,54.6838 65.6173,54.6948 65.4513,54.6948 C65.0573,54.7158 64.7153,54.7568 64.4253,54.8188 L64.0213,53.9798 C64.2903,53.8348 64.5603,53.6068 64.8293,53.2958 C65.3273,52.7148 65.7723,52.1138 66.1663,51.4918 L63.6163,51.4918 L63.6163,50.6528 L71.0483,50.6528 Z M4.447,50.2797 L4.447,51.8027 L6.561,51.8027 L6.561,52.5497 L4.447,52.5497 L4.447,54.2597 L7.276,54.2597 L7.276,54.9747 L0.249,54.9747 L0.249,54.2597 L1.306,54.2597 L1.306,51.3987 L2.177,51.3987 L2.177,54.2597 L3.607,54.2597 L3.607,50.2797 L4.447,50.2797 Z M12.2774,47.9782 L12.2774,54.1352 L13.4594,54.1352 L13.4594,47.9782 L14.2984,47.9782 L14.2984,54.1352 L16.5684,54.1352 L16.5684,54.9122 L9.1684,54.9122 L9.1684,54.1352 L11.4074,54.1352 L11.4074,47.9782 L12.2774,47.9782 Z M34.4385,48.3509 L34.4385,49.1289 L29.6195,49.1289 L29.4635,50.1239 L33.6615,50.1239 L33.4125,54.1659 L34.6875,54.1659 L34.6875,54.8809 L27.3495,54.8809 L27.3495,54.1659 L32.5105,54.1659 L32.5725,53.0779 L28.1885,53.0779 L28.7175,49.1289 L27.5665,49.1289 L27.5665,48.3509 L34.4385,48.3509 Z M87.4563,52.5798 L83.4453,52.5798 L83.4453,54.1348 L87.4563,54.1348 L87.4563,52.5798 Z M55.1326,51.7722 L55.7856,51.9892 C55.4956,52.6942 55.2576,53.2542 55.0706,53.6682 L54.4486,53.3272 C54.6766,52.9532 54.9046,52.4352 55.1326,51.7722 Z M61.9736,48.1962 L61.9736,48.9112 L60.3256,48.9112 L60.1386,49.7502 L61.7566,49.7502 L61.7566,53.5442 L61.0406,53.5442 L61.0406,50.4662 L58.9576,50.4662 L58.9576,53.5442 L58.2736,53.5442 L58.2736,49.7502 L59.3616,49.7502 L59.5176,48.9112 L58.0556,48.9112 L58.0556,48.1962 L61.9736,48.1962 Z M19.4876,47.9158 L20.2956,48.1648 C20.0056,48.7038 19.6006,49.3878 19.0826,50.2168 L19.9226,50.1858 C19.9846,50.0818 20.0676,49.9268 20.1716,49.7198 C20.2546,49.5748 20.3166,49.4608 20.3576,49.3778 L21.0726,49.7198 C20.6796,50.3828 20.1086,51.2118 19.3626,52.2068 C19.5701,52.1968 19.6866,52.1918 19.71235,52.1918 L19.716,52.192 L19.93064,52.172368 C20.15708,52.15 20.4134,52.12 20.6996,52.0828 C20.6996,52.1238 20.6896,52.1758 20.6686,52.2388 C20.6476,52.4038 20.6376,52.5908 20.6376,52.7978 C19.9116,52.8598 19.2386,52.9328 18.6166,53.0158 L18.5236,53.0158 L18.2746,52.3008 C18.4606,52.1758 18.6576,51.9788 18.8656,51.7098 C19.0516,51.4818 19.2486,51.2018 19.4556,50.8698 C18.9996,50.8908 18.6376,50.9318 18.3676,50.9938 L18.1496,50.2798 C18.3156,50.0928 18.4606,49.8858 18.5856,49.6578 C18.9376,49.0768 19.2386,48.4968 19.4876,47.9158 Z M23.9956,49.0348 L22.3166,49.0348 L22.2856,49.4708 L22.2856,50.0928 C22.6176,51.2328 23.0836,52.1658 23.6846,52.8908 C24.0376,52.3938 24.3176,51.8128 24.5246,51.1498 L23.2806,51.1498 L23.2806,50.3728 L23.9956,49.0348 Z M10.0694,49.3462 C10.6084,50.7352 11.0024,51.8032 11.2514,52.5492 L10.4744,52.8292 C10.0804,51.6682 9.6964,50.5902 9.3234,49.5952 L10.0694,49.3462 Z M15.6674,49.3462 L16.4444,49.6262 C15.9464,50.9122 15.5224,51.9792 15.1694,52.8292 L14.3924,52.4872 C14.7034,51.8242 15.1274,50.7772 15.6674,49.3462 Z M32.7285,50.9009 L29.3705,50.9009 L29.1525,52.2999 L32.6355,52.2999 L32.7285,50.9009 Z M78.849,49.4705 L79.501,49.9375 C79.025,50.5385 78.538,51.1085 78.04,51.6475 L77.418,51.1185 C77.874,50.6625 78.351,50.1135 78.849,49.4705 Z M73.873,49.4705 C74.371,49.9885 74.837,50.5275 75.273,51.0875 L74.62,51.6165 C74.185,51.0565 73.728,50.5075 73.251,49.9685 L73.873,49.4705 Z M84.7823,47.8228 L85.7153,48.2268 C85.6733,48.2688 85.6113,48.3208 85.5283,48.3828 C84.6163,49.2328 83.8913,49.8748 83.3523,50.3098 L87.3013,50.1858 L86.3683,49.2528 L86.9903,48.7868 C87.8613,49.5948 88.6073,50.3308 89.2293,50.9938 L88.5453,51.5228 C88.3583,51.3158 88.1723,51.1188 87.9853,50.9318 C85.8083,50.9738 84.2543,51.0148 83.3213,51.0568 C82.8853,51.0978 82.5333,51.1498 82.2643,51.2118 L81.8603,50.3728 C82.1503,50.2688 82.4293,50.1028 82.6993,49.8748 C83.4863,49.2118 84.1813,48.5278 84.7823,47.8228 Z M3.483,47.8537 L4.478,47.9157 C4.457,47.9367 4.436,47.9777 4.416,48.0407 C4.374,48.0817 4.343,48.1227 4.323,48.1647 C5.027,49.1187 6.116,49.8857 7.587,50.4657 C7.401,50.7357 7.235,50.9947 7.09,51.2437 C5.639,50.5587 4.561,49.7407 3.856,48.7867 C3.11,49.7407 1.99,50.6007 0.498,51.3677 C0.457,51.2847 0.374,51.1607 0.249,50.9947 C0.145,50.8077 0.062,50.6837 3.95501409e-11,50.6207 C1.7,49.8127 2.861,48.8907 3.483,47.8537 Z M56.9676,47.8852 L56.9676,48.9112 L57.8686,48.9112 L57.8686,49.5642 L56.9676,49.5642 L56.9676,50.4662 L57.9936,50.4662 L57.9936,51.1502 L54.4796,51.1502 L54.4796,50.4662 L54.9466,50.4662 L54.9466,48.5382 L55.6306,48.5382 L55.6306,50.4662 L56.2836,50.4662 L56.2836,47.8852 L56.9676,47.8852 Z M46.7732,47.8849 C46.9602,48.1539 47.2092,48.5479 47.5202,49.0669 L46.8042,49.4399 C46.5562,48.9629 46.3282,48.5589 46.1202,48.2269 L46.7732,47.8849 Z M39.6883,48.4138 L39.6883,49.1908 L36.7033,49.1908 L36.7033,48.4138 L39.6883,48.4138 Z M70.3323,48.3508 L70.3323,49.1908 L64.2693,49.1908 L64.2693,48.3508 L70.3323,48.3508 Z M14.1224,7.1028 L13.3354,11.8378 L10.2694,11.8378 L5.2324,42.1718 L0.5584,42.1718 L5.5954,11.8378 L1.6524,11.8378 L2.4384,7.1028 L14.1224,7.1028 Z M39.8382,-2.76401124e-12 L39.4442,2.368 L47.2032,2.368 L42.8352,28.695 L39.3232,34.644 L43.8462,42.044 L38.7492,42.044 L36.7462,38.831 L34.8522,42.094 L29.9312,42.094 L34.4512,34.886 L30.7052,28.695 L32.9752,13.774 L37.6482,13.774 L35.2972,28.695 L36.8532,31.047 L38.3772,28.695 L41.8342,7.103 L38.6592,7.103 L37.8722,11.838 L33.1982,11.838 L35.1642,-2.76401124e-12 L39.8382,-2.76401124e-12 Z M30.281,19.8949 L26.689,42.0909 L21.922,42.0909 L24.822,24.6299 L17.227,24.6299 L14.328,42.0909 L9.654,42.0909 L13.34,19.8949 L30.281,19.8949 Z M77.9138,-5.82645043e-13 L74.9158,17.579 L84.5128,17.579 L81.1258,37.21 L93.1288,37.21 L89.0418,42.044 L75.5008,42.044 L78.9028,22.267 L74.1088,22.267 L70.7058,42.044 L59.4958,42.044 L60.3028,37.21 L66.7438,37.21 L69.3148,22.267 L62.9838,22.267 L64.0028,17.579 L70.1208,17.579 L72.3398,4.688 L65.8978,4.688 L66.7038,-5.82645043e-13 L77.9138,-5.82645043e-13 Z M64.9557,1.7613 L58.9417,36.7733 L45.9757,36.7733 L50.6957,9.7323 L55.5357,9.7343 L51.5227,32.0853 L54.9957,32.0853 L59.3807,6.5953 L51.1777,6.5953 L52.1227,1.7613 L64.9557,1.7613 Z M31.4927,13.3174 L30.7057,18.0524 L13.7647,18.0524 L14.5507,13.3174 L31.4927,13.3174 Z M87.4583,-1.16173737e-12 L84.9083,14.824 L80.1143,14.824 L82.6653,-1.16173737e-12 L87.4583,-1.16173737e-12 Z M27.5703,2.62900812e-13 L26.3913,7.103 L27.8503,7.103 L28.5833,2.368 L33.2563,2.368 L31.7383,11.838 L14.7973,11.838 L16.4933,2.368 L21.1673,2.368 L20.2563,7.103 L21.7163,7.103 L22.8963,2.62900812e-13 L27.5703,2.62900812e-13 Z M15.594,-2.84927637e-12 L14.808,4.736 L3.123,4.736 L7.455,-2.84927637e-12 L15.594,-2.84927637e-12 Z" id="形状结合" fill="#FFFFFF"></path>
            <g transform="translate(0.000000, 47.822800)"></g>
        </g>
    </g>
</svg>