<?xml version="1.0" encoding="UTF-8"?>
<svg width="30px" height="30px" viewBox="0 0 30 30" version="1.1" xmlns="http://www.w3.org/2000/svg" xmlns:xlink="http://www.w3.org/1999/xlink">
    <!-- Generator: Sketch 61.1 (89650) - https://sketch.com -->
    <title>关闭icon</title>
    <desc>Created with Sketch.</desc>
    <g id="关闭icon" stroke="none" stroke-width="1" fill="none" fill-rule="evenodd">
        <g id="关--闭" transform="translate(-0.684211, 0.000000)" fill="#DDDDDD" fill-rule="nonzero">
            <path d="M17.995607,15 L30.2267466,2.84688995 C30.8366985,2.24082935 30.8366985,1.25199362 30.2267466,0.550239234 L30.1304385,0.454545455 C29.5204866,-0.151515152 28.525302,-0.151515152 27.9153502,0.454545455 L15.6842105,12.7033493 L3.45307088,0.550239234 C2.84311903,-0.0558213716 1.84793444,-0.0558213716 1.2379826,0.550239234 L1.14167441,0.645933014 C0.531722565,1.25199362 0.531722565,2.24082935 1.14167441,2.94258373 L13.3728141,15 L1.14167441,27.15311 C0.531722565,27.7591707 0.531722565,28.7480064 1.14167441,29.4497608 L1.2379826,29.5454545 C1.84793444,30.1515152 2.84311903,30.1515152 3.45307088,29.5454545 L15.6842105,17.2966507 L27.9153502,29.4497608 C28.525302,30.0558214 29.5204866,30.0558214 30.1304385,29.4497608 L30.2267466,29.354067 C30.8366985,28.7480064 30.8366985,27.7591707 30.2267466,27.0574163 L17.995607,15 Z" id="路径"></path>
        </g>
    </g>
</svg>